<svg viewBox="0 0 19 19" fill="" xmlns="http://www.w3.org/2000/svg">
<path d="M17.1449 5.18493C17.9716 6.05095 18.5321 7.1362 18.7599 8.31159C18.9876 9.48699 18.873 10.7031 18.4296 11.8152C17.9862 12.9273 17.2327 13.8887 16.2587 14.5849C15.2847 15.2812 14.1313 15.6831 12.9355 15.7427L12.6246 15.7506L7.47925 15.749L9.273 17.5443C9.40242 17.6736 9.48238 17.8442 9.49894 18.0263C9.5155 18.2085 9.46761 18.3907 9.36363 18.5412L9.273 18.649C9.14373 18.7784 8.97315 18.8584 8.79098 18.8749C8.60882 18.8915 8.42661 18.8436 8.27613 18.7396L8.16831 18.649L5.04019 15.5209C4.91101 15.3914 4.83134 15.2207 4.81507 15.0386C4.79879 14.8564 4.84694 14.6743 4.95113 14.524L5.04019 14.4162L8.16831 11.2881C8.30611 11.1496 8.49075 11.0679 8.68585 11.0588C8.88095 11.0498 9.07236 11.1142 9.22235 11.2393C9.37234 11.3644 9.47004 11.5411 9.49619 11.7346C9.52234 11.9282 9.47505 12.1245 9.36363 12.2849L9.273 12.3943L7.47925 14.1865H12.6246C13.82 14.1866 14.9702 13.73 15.8401 12.9101C16.71 12.0901 17.2337 10.9689 17.3043 9.77556L17.3121 9.50056C17.3139 8.26652 16.8275 7.08186 15.9589 6.20525C15.8164 6.06095 15.7355 5.86686 15.7334 5.66401C15.7314 5.46117 15.8083 5.26548 15.9479 5.11833C16.0876 4.97118 16.279 4.88412 16.4816 4.87555C16.6843 4.86699 16.8824 4.93759 17.0339 5.07243L17.1464 5.18493H17.1449ZM10.7246 0.261495L10.8339 0.350557L13.9605 3.47868L14.0511 3.58806C14.1412 3.71852 14.1894 3.87329 14.1894 4.03181C14.1894 4.19033 14.1412 4.34509 14.0511 4.47556L13.9605 4.58493L10.8339 7.7115L10.7246 7.80212C10.5941 7.89216 10.4393 7.94038 10.2808 7.94038C10.1223 7.94038 9.96753 7.89216 9.83706 7.80212L9.72769 7.7115L9.63863 7.60212C9.54859 7.47166 9.50037 7.31689 9.50037 7.15837C9.50037 6.99985 9.54859 6.84509 9.63863 6.71462L9.72769 6.60525L11.5214 4.81306H6.37456C5.17892 4.81299 4.02845 5.26982 3.15853 6.09006C2.28861 6.91031 1.76502 8.03198 1.69488 9.22556L1.68706 9.50056C1.68706 10.7818 2.20113 11.9412 3.03238 12.7881C3.16401 12.9384 3.23305 13.1334 3.22531 13.333C3.21758 13.5327 3.13365 13.7218 2.99078 13.8614C2.84792 14.0011 2.65697 14.0807 2.4572 14.0839C2.25744 14.0871 2.06403 14.0137 1.91675 13.8787C1.07305 13.0192 0.495661 11.9342 0.25403 10.7543C0.0123997 9.57444 0.116825 8.34986 0.554743 7.22791C0.992662 6.10596 1.74542 5.13444 2.72246 4.43021C3.6995 3.72598 4.85921 3.31905 6.06206 3.25837L6.37456 3.25056L11.5214 3.249L9.72769 1.45681L9.63863 1.34743C9.53572 1.19704 9.48862 1.01541 9.50548 0.833966C9.52234 0.652521 9.6021 0.482678 9.73096 0.353824C9.85981 0.22497 10.0297 0.145213 10.2111 0.128352C10.3925 0.111492 10.5742 0.158589 10.7246 0.261495Z" fill=""/>
</svg>
