<svg viewBox="0 0 20 18" fill="" xmlns="http://www.w3.org/2000/svg">
<path d="M19.7153 12.2434C20.3367 10.1487 19.8254 7.77108 19.2821 6.12359C19.2785 6.05985 19.2602 5.99807 19.2288 5.94394C19.0442 5.40879 18.8737 4.96921 18.7281 4.65194C18.9961 4.53708 19.1729 4.25909 19.1755 3.94861V0.764494C19.1755 0.342255 18.8576 6.40283e-07 18.4654 6.40283e-07H9.74079C9.54469 -0.000381607 9.38543 0.170435 9.38508 0.381578C9.38508 0.389462 9.3853 0.397346 9.3857 0.405182C9.50643 2.69866 9.35019 4.25441 8.89923 5.35146C8.89026 5.36235 8.88196 5.37386 8.87437 5.38586C8.87304 5.40492 8.87304 5.42413 8.87437 5.44319C8.70224 5.84255 8.46943 6.20812 8.1855 6.52495L8.15354 6.54789C8.15354 6.54789 8.15354 6.54789 8.15354 6.57465C7.73724 7.00205 7.25711 7.35094 6.73318 7.60671C5.82033 8.04271 4.88351 8.41803 3.92796 8.73052L3.74687 8.7955C0.426774 9.98046 -0.00643601 12.1287 0.000665794 13.2066C-0.000221931 13.2219 -0.000221931 13.2372 0.000665794 13.2525V15.9817C0.00119843 16.1146 0.0656917 16.2376 0.171109 16.3066C0.984798 16.8396 1.86311 17.2486 2.78102 17.5222C2.9698 17.5793 3.1659 17.4609 3.21898 17.2577C3.22897 17.2194 3.23336 17.1797 3.23199 17.1399V17.052H3.75397V17.4343C3.75171 17.6236 3.87861 17.7862 4.05225 17.8165C4.36117 17.87 4.6701 17.9121 4.97193 17.9388C5.07082 17.9478 5.16869 17.9117 5.2418 17.8395C5.31486 17.7665 5.35609 17.6639 5.35543 17.5566V17.075H5.87741V17.6178C5.87741 17.8288 6.0364 18 6.2325 18C6.53077 18 6.82905 18 7.14863 17.9541C7.33359 17.9382 7.47589 17.7716 7.47531 17.5719V17.075H7.9973V17.4113C7.99477 17.6224 8.15167 17.7958 8.34777 17.7985C8.36832 17.7988 8.38887 17.7972 8.4092 17.7936C9.06102 17.6861 9.70351 17.5212 10.3302 17.3005L10.3871 17.2737C12.8727 15.7447 14.4493 17.0023 14.5132 17.0559C14.5752 17.1076 14.6513 17.1358 14.7298 17.1361H15.1701C15.3662 17.1361 15.5252 16.965 15.5252 16.7539V16.1079H16.033V16.7462C16.033 16.9573 16.192 17.1285 16.3881 17.1285H17.5315C17.7276 17.1285 17.8866 16.9573 17.8866 16.7462V16.1079H18.4121V16.7462C18.4121 16.9573 18.5711 17.1285 18.7672 17.1285H19.6443C19.8404 17.1285 19.9993 16.9573 19.9993 16.7462V12.6256C20.0028 12.4411 19.8833 12.2803 19.7153 12.2434ZM11.289 0.772139H18.4476V3.93714H11.289V0.772139ZM6.8255 8.39414L6.82905 8.41708C7.12014 8.67146 7.38876 8.95428 7.63155 9.26184C7.56715 9.37714 7.53395 9.50954 7.53568 9.64409C7.53324 10.0473 7.83493 10.3763 8.20946 10.3789C8.58404 10.3815 8.88964 10.0568 8.89208 9.6536C8.89439 9.27374 8.62572 8.95547 8.27427 8.92164C8.04967 8.592 7.79379 8.28835 7.51082 8.01572C7.82814 7.8213 8.12668 7.59338 8.4021 7.33532C8.74649 7.68311 9.06692 8.05743 9.36084 8.4553C9.23732 8.83597 9.42383 9.25233 9.77741 9.38535C10.131 9.51833 10.5178 9.31755 10.6414 8.93693C10.7649 8.55626 10.5784 8.1399 10.2248 8.00688C10.1515 7.97926 10.0742 7.96545 9.99646 7.96602H9.91123C9.59978 7.54393 9.2604 7.14663 8.89567 6.77724C9.06492 6.5529 9.21468 6.31238 9.34309 6.05861C9.89281 6.36665 10.4241 6.71135 10.9339 7.09068C10.9304 7.49811 11.2344 7.83143 11.6129 7.8352C11.9914 7.83897 12.301 7.51172 12.3045 7.1043C12.308 6.69687 12.004 6.36355 11.6255 6.35977C11.5174 6.35868 11.4106 6.38515 11.3138 6.43704C10.7773 6.046 10.2187 5.69113 9.64137 5.37439C10.0284 4.26587 10.1953 2.79422 10.1172 0.787429H10.5824V3.95243C10.5824 4.37467 10.9003 4.71693 11.2925 4.71693H17.9469C18.0392 4.91952 18.1955 5.27118 18.3659 5.72988H18.2203C16.0632 5.74665 14.3271 7.64269 14.3427 9.96484C14.3515 11.2844 14.9353 12.5229 15.9194 13.3098C13.0467 14.124 8.72523 15.0911 5.08911 14.8388C5.76023 11.9529 4.95773 10.1754 4.43574 9.39563C5.24859 9.10861 6.04634 8.77428 6.8255 8.39414ZM3.72201 9.61351C4.10551 10.099 5.10686 11.7312 4.37183 14.7318C3.09235 14.6235 1.84967 14.2193 0.728601 13.5468C0.715862 13.4595 0.707562 13.3714 0.703744 13.2831V13.2563C0.675337 12.4421 0.959409 10.68 3.72201 9.61351ZM19.1223 16.364V15.7256C19.1223 15.5145 18.9633 15.3434 18.7672 15.3434H17.535C17.3389 15.3434 17.1799 15.5145 17.1799 15.7256V16.364H16.7432V15.7256C16.7432 15.5145 16.5842 15.3434 16.3881 15.3434H15.163C14.9669 15.3434 14.8079 15.5145 14.8079 15.7256V16.3487C14.325 16.0238 12.5602 15.0796 10.0568 16.5857C9.61145 16.7439 9.1572 16.8716 8.69683 16.9679V16.7042C8.69683 16.4931 8.53783 16.3219 8.34173 16.3219H7.11667C6.92058 16.3219 6.76158 16.4931 6.76158 16.7042V17.2279H6.58049V16.6927C6.58049 16.4816 6.4215 16.3105 6.2254 16.3105H4.99323C4.79714 16.3105 4.63814 16.4816 4.63814 16.6927V17.1476L4.45705 17.1208V16.6927C4.45705 16.4816 4.29806 16.3105 4.10196 16.3105H2.86979C2.68919 16.3091 2.53637 16.4538 2.5147 16.6468C1.88446 16.4235 1.27757 16.1301 0.703744 15.7715V14.4031C2.25194 15.286 4.25465 15.6186 6.38519 15.6186C12.0453 15.6186 18.5222 13.2869 19.2856 13.0079L19.2892 16.364H19.1223ZM18.9483 12.3313C18.6465 12.4383 17.9043 12.7135 16.8781 13.0079C15.2894 12.1801 14.6248 10.1228 15.3937 8.41254C15.9197 7.24267 17.0132 6.49175 18.2203 6.47144C18.3603 6.46934 18.5003 6.47698 18.6394 6.49437L18.6429 6.50584C19.1649 8.12657 19.6336 10.4392 18.9483 12.3313Z" fill=""/>
<path d="M12.6564 1.23469C12.0857 1.23469 11.6231 1.73271 11.6231 2.34703C11.625 2.96049 12.0865 3.45727 12.6564 3.45937C13.227 3.45937 13.6897 2.96135 13.6897 2.34703C13.6897 1.73271 13.2271 1.23469 12.6564 1.23469ZM12.6564 2.69487C12.4779 2.69487 12.3332 2.53916 12.3332 2.34703C12.3332 2.1549 12.4779 1.99918 12.6564 1.99918C12.8348 1.99918 12.9795 2.1549 12.9795 2.34703C12.9795 2.53916 12.8348 2.69487 12.6564 2.69487Z" fill=""/>
</svg>
