<svg viewBox="0 0 20 22" fill="none" xmlns="http://www.w3.org/2000/svg">
<path d="M7.75001 10.912L10 13.1562L13.9375 9.22882M9.99997 1C7.67869 2.18698 5.09257 2.81813 2.44902 2.81813C2.09212 2.81813 1.73627 2.80662 1.38197 2.7838C0.924632 4.87029 0.87403 7.04136 1.25148 9.17646C1.92717 12.9986 3.93142 16.4612 6.91222 18.9559C7.86795 19.7558 8.90448 20.4398 10 21C11.0955 20.4398 12.132 19.7558 13.0878 18.9559C16.0686 16.4612 18.0728 12.9986 18.7485 9.17647C19.126 7.04136 19.0754 4.87029 18.618 2.7838C18.2637 2.80662 17.9078 2.81813 17.5509 2.81813C14.9074 2.81813 12.3212 2.18698 9.99997 1Z" stroke="#0266C1"/>
</svg>
