<svg viewBox="0 0 19 18" fill="" xmlns="http://www.w3.org/2000/svg"><path d="M1.4375 0.749998C1.55849 0.750027 1.67732 0.782046 1.78194 0.842812L14.8444 8.40531C14.9486 8.46575 15.0351 8.55249 15.0952 8.65686C15.1553 8.76123 15.187 8.87956 15.187 9C15.187 9.12044 15.1553 9.23877 15.0952 9.34314C15.0351 9.44751 14.9486 9.53425 14.8444 9.59469L1.78194 17.1572C1.67746 17.2177 1.5589 17.2496 1.43817 17.2497C1.31745 17.2498 1.19882 17.2181 1.09423 17.1579C0.98963 17.0976 0.902748 17.0108 0.842321 16.9063C0.781895 16.8018 0.750053 16.6832 0.75 16.5625L0.750001 1.4375C0.750001 1.25516 0.822433 1.08029 0.951364 0.951361C1.0803 0.82243 1.25516 0.749998 1.4375 0.749998ZM18.625 17.25L17.25 17.25L17.25 0.75L18.625 0.75L18.625 17.25Z" fill=""/></svg>