<svg viewBox="0 0 205 60" fill="" xmlns="http://www.w3.org/2000/svg"><path d="M22.7109 38.9207L28.1507 33.37L34.3385 38.9207H44.9461L28.0827 22.8634L11.3553 38.9207H22.7109Z" fill=""/><path d="M38.2827 13.1498L30.259 21.0793L35.5628 26.3656L38.2827 23.7225L53.1742 38.1278C49.7743 46.9163 41.0706 53.1938 30.8029 53.1938C17.6114 53.1938 6.93576 42.8194 6.93576 30C7.00376 17.1806 17.6794 6.80617 30.8709 6.80617C42.5665 6.80617 52.3582 15.0661 54.3301 25.837L61.5379 33.2379C61.6739 32.1806 61.7419 31.0573 61.7419 30C61.7419 22.0044 58.546 14.4714 52.6982 8.78855C46.8504 3.10573 39.0987 0 30.8709 0C22.5752 0 14.8915 3.10573 9.04369 8.78855C3.19589 14.4714 0 21.9383 0 30C0 38.0617 3.19589 45.5286 9.04369 51.2115C14.8915 56.8943 22.6432 60 30.8709 60C39.0987 60 46.8504 56.8943 52.6982 51.2115C56.3021 47.7092 58.886 43.5463 60.3139 38.9868C60.5859 38.1938 60.7899 37.3348 60.9939 36.5418L54.7381 30.1322L38.2827 13.1498Z" fill=""/><path d="M87.2138 19.2778H91.7535L89.2773 31.3763H96.9351L96.2015 34.8744H84.0039L87.2138 19.2778Z" fill=""/><path d="M101.208 19.2778H105.747L102.538 34.8744H97.9979L101.208 19.2778Z" fill=""/><path d="M112.806 22.6868L112.095 26.1181H119.18L118.469 29.527H111.408L110.307 34.8744H105.767L108.977 19.2778H121.542L120.831 22.6868H112.806Z" fill=""/><path d="M127.448 22.6868L126.921 25.3159H134.051L133.386 28.6135H126.233L125.659 31.4655H134.074L133.34 34.8744H120.478L123.688 19.2778H136.252L135.541 22.6868H127.448Z" fill=""/><path d="M141.775 22.7759H136.845L137.579 19.2778H151.955L151.221 22.7759H146.315L143.815 34.8744H139.276L141.775 22.7759Z" fill=""/><path d="M158.879 35.1864C157.259 35.1864 155.845 34.8967 154.637 34.3174C153.445 33.7381 152.52 32.9286 151.863 31.8888C151.221 30.849 150.9 29.6607 150.9 28.3239C150.9 26.5414 151.32 24.9372 152.161 23.5112C153.017 22.0852 154.202 20.9712 155.715 20.1691C157.243 19.3669 158.978 18.9659 160.919 18.9659C162.54 18.9659 163.946 19.2555 165.138 19.8348C166.346 20.4141 167.27 21.2237 167.912 22.2635C168.57 23.3032 168.898 24.4915 168.898 25.8284C168.898 27.6109 168.47 29.2151 167.614 30.6411C166.774 32.0671 165.589 33.1811 164.061 33.9832C162.547 34.7853 160.82 35.1864 158.879 35.1864ZM159.269 31.5323C160.278 31.5323 161.164 31.2872 161.928 30.797C162.693 30.3069 163.281 29.6533 163.694 28.8363C164.106 28.0045 164.313 27.091 164.313 26.0958C164.313 25.0411 163.977 24.2019 163.304 23.578C162.647 22.9393 161.722 22.62 160.53 22.62C159.521 22.62 158.634 22.865 157.87 23.3552C157.106 23.8454 156.517 24.5064 156.105 25.3382C155.692 26.1552 155.486 27.0613 155.486 28.0565C155.486 29.1111 155.814 29.9578 156.472 30.5965C157.144 31.2204 158.076 31.5323 159.269 31.5323Z" fill=""/><path d="M177.421 35.1864C176.03 35.1864 174.83 34.9636 173.821 34.518C172.812 34.0575 172.04 33.4039 171.505 32.5572C170.97 31.7106 170.703 30.7153 170.703 29.5716C170.703 29.0963 170.764 28.5467 170.886 27.9228L172.675 19.2778H177.214L175.449 27.856C175.357 28.3016 175.311 28.7101 175.311 29.0814C175.311 30.7153 176.198 31.5323 177.971 31.5323C178.934 31.5323 179.69 31.2501 180.241 30.6856C180.806 30.1063 181.227 29.1631 181.502 27.856L183.267 19.2778H187.738L185.927 28.1233C184.949 32.832 182.113 35.1864 177.421 35.1864Z" fill=""/><path d="M204.157 24.2465C204.157 25.6724 203.768 26.9053 202.988 27.9451C202.209 28.97 201.116 29.7201 199.709 30.1955L202.438 34.8744H197.692L195.307 30.7302H193.015L192.166 34.8744H187.627L190.836 19.2778H197.692C199.74 19.2778 201.33 19.716 202.461 20.5924C203.592 21.4688 204.157 22.6868 204.157 24.2465ZM199.572 24.6698C199.572 24.0311 199.35 23.5558 198.907 23.2438C198.464 22.917 197.845 22.7536 197.05 22.7536H194.665L193.702 27.3212H196.408C197.417 27.3212 198.196 27.091 198.746 26.6305C199.297 26.17 199.572 25.5165 199.572 24.6698Z" fill=""/><path d="M87.0264 49.5804C86.4734 49.5804 85.971 49.4616 85.5191 49.2239C85.0725 48.9811 84.7216 48.6504 84.4664 48.2319C84.2166 47.8134 84.0916 47.3433 84.0916 46.8214C84.0916 46.2996 84.2166 45.8294 84.4664 45.411C84.7216 44.9925 85.0725 44.6644 85.5191 44.4267C85.971 44.1839 86.4734 44.0625 87.0264 44.0625C87.5793 44.0625 88.0764 44.1813 88.5177 44.419C88.9643 44.6566 89.3152 44.9873 89.5704 45.411C89.8255 45.8294 89.9531 46.2996 89.9531 46.8214C89.9531 47.3433 89.8255 47.816 89.5704 48.2397C89.3152 48.6582 88.9643 48.9862 88.5177 49.2239C88.0764 49.4616 87.5793 49.5804 87.0264 49.5804ZM87.0264 49.0689C87.4676 49.0689 87.8664 48.9733 88.2226 48.7822C88.5788 48.5858 88.8579 48.3172 89.06 47.9762C89.262 47.63 89.363 47.2451 89.363 46.8214C89.363 46.3978 89.262 46.0154 89.06 45.6744C88.8579 45.3283 88.5788 45.0596 88.2226 44.8685C87.8664 44.6721 87.4676 44.574 87.0264 44.574C86.5851 44.574 86.1837 44.6721 85.8222 44.8685C85.466 45.0596 85.1842 45.3283 84.9768 45.6744C84.7748 46.0154 84.6738 46.3978 84.6738 46.8214C84.6738 47.2451 84.7748 47.63 84.9768 47.9762C85.1842 48.3172 85.466 48.5858 85.8222 48.7822C86.1837 48.9733 86.5851 49.0689 87.0264 49.0689Z" fill=""/><path d="M93.387 45.4265C93.7804 45.4265 94.1367 45.5143 94.4556 45.69C94.7746 45.8604 95.0245 46.1033 95.2053 46.4184C95.386 46.7336 95.4764 47.0927 95.4764 47.4957C95.4764 47.9038 95.386 48.2655 95.2053 48.5807C95.0245 48.8958 94.7746 49.1412 94.4556 49.3169C94.142 49.4874 93.7858 49.5726 93.387 49.5726C93.0467 49.5726 92.7384 49.5055 92.4619 49.3711C92.1908 49.2316 91.9675 49.0301 91.792 48.7667V51.0374H91.2258V45.4575H91.7681V46.2634C91.9382 45.9948 92.1615 45.7881 92.438 45.6435C92.7198 45.4988 93.0361 45.4265 93.387 45.4265ZM93.3471 49.0844C93.6395 49.0844 93.9054 49.0198 94.1446 48.8906C94.3839 48.7563 94.5699 48.5677 94.7029 48.3249C94.8411 48.0821 94.9102 47.8057 94.9102 47.4957C94.9102 47.1857 94.8411 46.9118 94.7029 46.6742C94.5699 46.4314 94.3839 46.2428 94.1446 46.1084C93.9054 45.9741 93.6395 45.9069 93.3471 45.9069C93.0494 45.9069 92.7809 45.9741 92.5417 46.1084C92.3077 46.2428 92.1217 46.4314 91.9834 46.6742C91.8505 46.9118 91.7841 47.1857 91.7841 47.4957C91.7841 47.8057 91.8505 48.0821 91.9834 48.3249C92.1217 48.5677 92.3077 48.7563 92.5417 48.8906C92.7809 49.0198 93.0494 49.0844 93.3471 49.0844Z" fill=""/><path d="M99.6596 45.9457H97.2592V49.5339H96.693V45.4575H99.6596V45.9457Z" fill=""/><path d="M101.921 45.4265C102.469 45.4265 102.889 45.5608 103.181 45.8294C103.474 46.0929 103.62 46.4856 103.62 47.0074V49.5339H103.078V48.8984C102.95 49.1102 102.761 49.2756 102.512 49.3944C102.267 49.5132 101.975 49.5726 101.634 49.5726C101.166 49.5726 100.794 49.4641 100.518 49.2471C100.241 49.0301 100.103 48.7434 100.103 48.3869C100.103 48.0407 100.231 47.7618 100.486 47.5499C100.746 47.3381 101.158 47.2322 101.722 47.2322H103.054V46.9842C103.054 46.6329 102.953 46.3668 102.751 46.1859C102.549 45.9999 102.254 45.9069 101.866 45.9069C101.6 45.9069 101.345 45.9509 101.1 46.0387C100.855 46.1214 100.645 46.2376 100.47 46.3874L100.215 45.9767C100.427 45.801 100.683 45.6667 100.98 45.5737C101.278 45.4755 101.592 45.4265 101.921 45.4265ZM101.722 49.1386C102.041 49.1386 102.315 49.0689 102.543 48.9294C102.772 48.7847 102.942 48.5781 103.054 48.3094V47.6429H101.738C101.02 47.6429 100.661 47.8857 100.661 48.3714C100.661 48.6091 100.754 48.7976 100.94 48.9371C101.127 49.0715 101.387 49.1386 101.722 49.1386Z" fill=""/><path d="M105.127 45.4575H105.694V47.2632H108.333V45.4575H108.899V49.5339H108.333V47.7359H105.694V49.5339H105.127V45.4575Z" fill=""/><path d="M110.509 45.4575H111.075V48.6969L113.874 45.4575H114.377V49.5339H113.81V46.2944L111.019 49.5339H110.509V45.4575Z" fill=""/><path d="M117.955 47.4104C118.253 47.4776 118.482 47.5938 118.641 47.7592C118.806 47.9245 118.888 48.126 118.888 48.3637C118.888 48.6013 118.803 48.8131 118.633 48.9991C118.468 49.1851 118.242 49.3298 117.955 49.4331C117.668 49.5313 117.352 49.5804 117.006 49.5804C116.703 49.5804 116.405 49.5391 116.113 49.4564C115.821 49.3686 115.565 49.242 115.347 49.0766L115.539 48.6659C115.73 48.8054 115.954 48.9139 116.209 48.9914C116.464 49.0689 116.722 49.1076 116.982 49.1076C117.37 49.1076 117.687 49.0379 117.931 48.8984C118.181 48.7537 118.306 48.56 118.306 48.3172C118.306 48.1002 118.205 47.9322 118.003 47.8134C117.801 47.6894 117.525 47.6274 117.174 47.6274H116.456V47.2244H117.142C117.455 47.2244 117.708 47.1676 117.899 47.0539C118.091 46.9351 118.186 46.7775 118.186 46.5812C118.186 46.3642 118.077 46.1937 117.86 46.0697C117.647 45.9457 117.368 45.8837 117.022 45.8837C116.57 45.8837 116.124 45.9948 115.682 46.2169L115.523 45.7907C116.023 45.5375 116.541 45.411 117.078 45.411C117.397 45.411 117.684 45.4575 117.939 45.5505C118.2 45.6383 118.402 45.7649 118.545 45.9302C118.694 46.0955 118.769 46.2867 118.769 46.5037C118.769 46.7104 118.694 46.8938 118.545 47.0539C118.402 47.2141 118.205 47.3329 117.955 47.4104Z" fill=""/><path d="M121.617 45.4265C122.165 45.4265 122.585 45.5608 122.877 45.8294C123.17 46.0929 123.316 46.4856 123.316 47.0074V49.5339H122.773V48.8984C122.646 49.1102 122.457 49.2756 122.207 49.3944C121.963 49.5132 121.67 49.5726 121.33 49.5726C120.862 49.5726 120.49 49.4641 120.214 49.2471C119.937 49.0301 119.799 48.7434 119.799 48.3869C119.799 48.0407 119.926 47.7618 120.182 47.5499C120.442 47.3381 120.854 47.2322 121.418 47.2322H122.75V46.9842C122.75 46.6329 122.649 46.3668 122.446 46.1859C122.244 45.9999 121.949 45.9069 121.561 45.9069C121.295 45.9069 121.04 45.9509 120.796 46.0387C120.551 46.1214 120.341 46.2376 120.166 46.3874L119.91 45.9767C120.123 45.801 120.378 45.6667 120.676 45.5737C120.974 45.4755 121.287 45.4265 121.617 45.4265ZM121.418 49.1386C121.737 49.1386 122.011 49.0689 122.239 48.9294C122.468 48.7847 122.638 48.5781 122.75 48.3094V47.6429H121.434C120.716 47.6429 120.357 47.8857 120.357 48.3714C120.357 48.6091 120.45 48.7976 120.636 48.9371C120.822 49.0715 121.083 49.1386 121.418 49.1386Z" fill=""/><path d="M129.193 49.0534V50.5569H128.659V49.5339H124.823V45.4575H125.389V49.0534H127.949V45.4575H128.515V49.0534H129.193Z" fill=""/><path d="M130.275 45.4575H130.841V48.6969L133.64 45.4575H134.142V49.5339H133.576V46.2944L130.785 49.5339H130.275V45.4575Z" fill=""/><path d="M138.987 45.4575V49.5339H138.469V48.1854H136.993L136.02 49.5339H135.406L136.451 48.1079C136.127 48.0201 135.877 47.8702 135.701 47.6584C135.526 47.4466 135.438 47.1779 135.438 46.8524C135.438 46.3978 135.598 46.0516 135.917 45.8139C136.236 45.5763 136.672 45.4575 137.225 45.4575H138.987ZM136.012 46.8679C136.012 47.4724 136.408 47.7747 137.201 47.7747H138.469V45.9457H137.24C136.422 45.9457 136.012 46.2531 136.012 46.8679Z" fill=""/><path d="M146.453 45.4575V49.5339H145.887V45.9457H143.255V49.5339H142.689V45.4575H146.453Z" fill=""/><path d="M149.793 49.5726C149.389 49.5726 149.025 49.4848 148.7 49.3091C148.376 49.1283 148.121 48.8803 147.935 48.5652C147.749 48.25 147.656 47.8935 147.656 47.4957C147.656 47.0978 147.749 46.7414 147.935 46.4262C148.121 46.111 148.376 45.8656 148.7 45.69C149.025 45.5143 149.389 45.4265 149.793 45.4265C150.197 45.4265 150.561 45.5143 150.885 45.69C151.21 45.8656 151.462 46.111 151.643 46.4262C151.829 46.7414 151.922 47.0978 151.922 47.4957C151.922 47.8935 151.829 48.25 151.643 48.5652C151.462 48.8803 151.21 49.1283 150.885 49.3091C150.561 49.4848 150.197 49.5726 149.793 49.5726ZM149.793 49.0844C150.091 49.0844 150.356 49.0198 150.59 48.8906C150.83 48.7563 151.016 48.5677 151.149 48.3249C151.282 48.0821 151.348 47.8057 151.348 47.4957C151.348 47.1857 151.282 46.9093 151.149 46.6664C151.016 46.4236 150.83 46.2376 150.59 46.1084C150.356 45.9741 150.091 45.9069 149.793 45.9069C149.495 45.9069 149.227 45.9741 148.987 46.1084C148.753 46.2376 148.567 46.4236 148.429 46.6664C148.296 46.9093 148.23 47.1857 148.23 47.4957C148.23 47.8057 148.296 48.0821 148.429 48.3249C148.567 48.5677 148.753 48.7563 148.987 48.8906C149.227 49.0198 149.495 49.0844 149.793 49.0844Z" fill=""/><path d="M155.608 49.5339L154.276 47.8289L152.936 49.5339H152.298L153.957 47.4414L152.378 45.4575H153.016L154.276 47.0539L155.536 45.4575H156.158L154.579 47.4414L156.254 49.5339H155.608Z" fill=""/><path d="M158.765 49.5726C158.361 49.5726 157.996 49.4848 157.672 49.3091C157.348 49.1283 157.093 48.8803 156.906 48.5652C156.72 48.25 156.627 47.8935 156.627 47.4957C156.627 47.0978 156.72 46.7414 156.906 46.4262C157.093 46.111 157.348 45.8656 157.672 45.69C157.996 45.5143 158.361 45.4265 158.765 45.4265C159.169 45.4265 159.533 45.5143 159.857 45.69C160.181 45.8656 160.434 46.111 160.615 46.4262C160.801 46.7414 160.894 47.0978 160.894 47.4957C160.894 47.8935 160.801 48.25 160.615 48.5652C160.434 48.8803 160.181 49.1283 159.857 49.3091C159.533 49.4848 159.169 49.5726 158.765 49.5726ZM158.765 49.0844C159.062 49.0844 159.328 49.0198 159.562 48.8906C159.801 48.7563 159.987 48.5677 160.12 48.3249C160.253 48.0821 160.32 47.8057 160.32 47.4957C160.32 47.1857 160.253 46.9093 160.12 46.6664C159.987 46.4236 159.801 46.2376 159.562 46.1084C159.328 45.9741 159.062 45.9069 158.765 45.9069C158.467 45.9069 158.198 45.9741 157.959 46.1084C157.725 46.2376 157.539 46.4236 157.401 46.6664C157.268 46.9093 157.202 47.1857 157.202 47.4957C157.202 47.8057 157.268 48.0821 157.401 48.3249C157.539 48.5677 157.725 48.7563 157.959 48.8906C158.198 49.0198 158.467 49.0844 158.765 49.0844Z" fill=""/><path d="M166.172 49.0534V50.5181H165.637V49.5339H161.881V50.5181H161.347V49.0534H161.586C161.868 49.0379 162.059 48.8364 162.16 48.4489C162.261 48.0614 162.331 47.5189 162.368 46.8214L162.424 45.4575H165.518V49.0534H166.172ZM162.886 46.8524C162.86 47.4311 162.809 47.909 162.735 48.2862C162.66 48.6582 162.527 48.9139 162.336 49.0534H164.952V45.9457H162.934L162.886 46.8524Z" fill=""/><path d="M169.006 49.5726C168.602 49.5726 168.238 49.4848 167.913 49.3091C167.589 49.1283 167.334 48.8803 167.148 48.5652C166.962 48.25 166.868 47.8935 166.868 47.4957C166.868 47.0978 166.962 46.7414 167.148 46.4262C167.334 46.111 167.589 45.8656 167.913 45.69C168.238 45.5143 168.602 45.4265 169.006 45.4265C169.41 45.4265 169.774 45.5143 170.098 45.69C170.423 45.8656 170.675 46.111 170.856 46.4262C171.042 46.7414 171.135 47.0978 171.135 47.4957C171.135 47.8935 171.042 48.25 170.856 48.5652C170.675 48.8803 170.423 49.1283 170.098 49.3091C169.774 49.4848 169.41 49.5726 169.006 49.5726ZM169.006 49.0844C169.303 49.0844 169.569 49.0198 169.803 48.8906C170.042 48.7563 170.229 48.5677 170.361 48.3249C170.494 48.0821 170.561 47.8057 170.561 47.4957C170.561 47.1857 170.494 46.9093 170.361 46.6664C170.229 46.4236 170.042 46.2376 169.803 46.1084C169.569 45.9741 169.303 45.9069 169.006 45.9069C168.708 45.9069 168.44 45.9741 168.2 46.1084C167.966 46.2376 167.78 46.4236 167.642 46.6664C167.509 46.9093 167.443 47.1857 167.443 47.4957C167.443 47.8057 167.509 48.0821 167.642 48.3249C167.78 48.5677 167.966 48.7563 168.2 48.8906C168.44 49.0198 168.708 49.0844 169.006 49.0844Z" fill=""/><path d="M175.017 47.4259C175.586 47.5551 175.87 47.8883 175.87 48.4257C175.87 48.7822 175.734 49.056 175.463 49.2471C175.192 49.4383 174.788 49.5339 174.251 49.5339H172.345V45.4575H174.195C174.674 45.4575 175.049 45.5479 175.32 45.7287C175.591 45.9095 175.727 46.1679 175.727 46.5037C175.727 46.7259 175.663 46.917 175.535 47.0772C175.413 47.2322 175.24 47.3484 175.017 47.4259ZM172.895 47.2709H174.155C174.48 47.2709 174.727 47.2115 174.897 47.0927C175.073 46.9738 175.16 46.8008 175.16 46.5734C175.16 46.3461 175.073 46.1756 174.897 46.0619C174.727 45.9483 174.48 45.8914 174.155 45.8914H172.895V47.2709ZM174.227 49.0999C174.589 49.0999 174.86 49.0431 175.041 48.9294C175.221 48.8157 175.312 48.6375 175.312 48.3947C175.312 48.1518 175.229 47.9736 175.065 47.8599C174.9 47.7411 174.639 47.6817 174.283 47.6817H172.895V49.0999H174.227Z" fill=""/><path d="M181.956 47.4259C182.525 47.5551 182.809 47.8883 182.809 48.4257C182.809 48.7822 182.674 49.056 182.402 49.2471C182.131 49.4383 181.727 49.5339 181.19 49.5339H179.284V45.4575H181.134C181.613 45.4575 181.988 45.5479 182.259 45.7287C182.53 45.9095 182.666 46.1679 182.666 46.5037C182.666 46.7259 182.602 46.917 182.474 47.0772C182.352 47.2322 182.179 47.3484 181.956 47.4259ZM179.835 47.2709H181.095C181.419 47.2709 181.666 47.2115 181.836 47.0927C182.012 46.9738 182.099 46.8008 182.099 46.5734C182.099 46.3461 182.012 46.1756 181.836 46.0619C181.666 45.9483 181.419 45.8914 181.095 45.8914H179.835V47.2709ZM181.166 49.0999C181.528 49.0999 181.799 49.0431 181.98 48.9294C182.16 48.8157 182.251 48.6375 182.251 48.3947C182.251 48.1518 182.168 47.9736 182.004 47.8599C181.839 47.7411 181.578 47.6817 181.222 47.6817H179.835V49.0999H181.166Z" fill=""/><path d="M189.19 45.9457H186.79V49.5339H186.223V45.4575H189.19V45.9457Z" fill=""/><path d="M191.544 49.5726C191.14 49.5726 190.776 49.4848 190.452 49.3091C190.127 49.1283 189.872 48.8803 189.686 48.5652C189.5 48.25 189.407 47.8935 189.407 47.4957C189.407 47.0978 189.5 46.7414 189.686 46.4262C189.872 46.111 190.127 45.8656 190.452 45.69C190.776 45.5143 191.14 45.4265 191.544 45.4265C191.948 45.4265 192.312 45.5143 192.637 45.69C192.961 45.8656 193.213 46.111 193.394 46.4262C193.58 46.7414 193.673 47.0978 193.673 47.4957C193.673 47.8935 193.58 48.25 193.394 48.5652C193.213 48.8803 192.961 49.1283 192.637 49.3091C192.312 49.4848 191.948 49.5726 191.544 49.5726ZM191.544 49.0844C191.842 49.0844 192.108 49.0198 192.342 48.8906C192.581 48.7563 192.767 48.5677 192.9 48.3249C193.033 48.0821 193.099 47.8057 193.099 47.4957C193.099 47.1857 193.033 46.9093 192.9 46.6664C192.767 46.4236 192.581 46.2376 192.342 46.1084C192.108 45.9741 191.842 45.9069 191.544 45.9069C191.246 45.9069 190.978 45.9741 190.739 46.1084C190.505 46.2376 190.319 46.4236 190.18 46.6664C190.047 46.9093 189.981 47.1857 189.981 47.4957C189.981 47.8057 190.047 48.0821 190.18 48.3249C190.319 48.5677 190.505 48.7563 190.739 48.8906C190.978 49.0198 191.246 49.0844 191.544 49.0844Z" fill=""/><path d="M197.045 45.4265C197.438 45.4265 197.794 45.5143 198.113 45.69C198.432 45.8604 198.682 46.1033 198.863 46.4184C199.044 46.7336 199.134 47.0927 199.134 47.4957C199.134 47.9038 199.044 48.2655 198.863 48.5807C198.682 48.8958 198.432 49.1412 198.113 49.3169C197.8 49.4874 197.443 49.5726 197.045 49.5726C196.704 49.5726 196.396 49.5055 196.12 49.3711C195.848 49.2316 195.625 49.0301 195.45 48.7667V51.0374H194.884V45.4575H195.426V46.2634C195.596 45.9948 195.819 45.7881 196.096 45.6435C196.377 45.4988 196.694 45.4265 197.045 45.4265ZM197.005 49.0844C197.297 49.0844 197.563 49.0198 197.802 48.8906C198.042 48.7563 198.228 48.5677 198.361 48.3249C198.499 48.0821 198.568 47.8057 198.568 47.4957C198.568 47.1857 198.499 46.9118 198.361 46.6742C198.228 46.4314 198.042 46.2428 197.802 46.1084C197.563 45.9741 197.297 45.9069 197.005 45.9069C196.707 45.9069 196.439 45.9741 196.199 46.1084C195.965 46.2428 195.779 46.4314 195.641 46.6742C195.508 46.9118 195.442 47.1857 195.442 47.4957C195.442 47.8057 195.508 48.0821 195.641 48.3249C195.779 48.5677 195.965 48.7563 196.199 48.8906C196.439 49.0198 196.707 49.0844 197.005 49.0844Z" fill=""/><path d="M202.113 46.8989C202.639 46.9041 203.041 47.0178 203.317 47.2399C203.594 47.4621 203.732 47.7824 203.732 48.2009C203.732 48.6349 203.583 48.9681 203.285 49.2006C202.988 49.4331 202.562 49.5468 202.009 49.5416L200.351 49.5339V45.4575H200.917V46.8834L202.113 46.8989ZM204.434 45.4575H205V49.5339H204.434V45.4575ZM201.978 49.1231C202.366 49.1283 202.658 49.0534 202.855 48.8984C203.057 48.7382 203.158 48.5057 203.158 48.2009C203.158 47.9012 203.059 47.6791 202.863 47.5344C202.666 47.3898 202.371 47.3148 201.978 47.3097L200.917 47.2942V49.1076L201.978 49.1231Z" fill=""/></svg>