<svg xmlns="http://www.w3.org/2000/svg" xmlns:xlink="http://www.w3.org/1999/xlink"><symbol id="boots" viewBox="0 0 20 18"><g fill="">
<path d="M19.7153 12.2434C20.3367 10.1487 19.8254 7.77108 19.2821 6.12359C19.2785 6.05985 19.2602 5.99807 19.2288 5.94394C19.0442 5.40879 18.8737 4.96921 18.7281 4.65194C18.9961 4.53708 19.1729 4.25909 19.1755 3.94861V0.764494C19.1755 0.342255 18.8576 6.40283e-07 18.4654 6.40283e-07H9.74079C9.54469 -0.000381607 9.38543 0.170435 9.38508 0.381578C9.38508 0.389462 9.3853 0.397346 9.3857 0.405182C9.50643 2.69866 9.35019 4.25441 8.89923 5.35146C8.89026 5.36235 8.88196 5.37386 8.87437 5.38586C8.87304 5.40492 8.87304 5.42413 8.87437 5.44319C8.70224 5.84255 8.46943 6.20812 8.1855 6.52495L8.15354 6.54789C8.15354 6.54789 8.15354 6.54789 8.15354 6.57465C7.73724 7.00205 7.25711 7.35094 6.73318 7.60671C5.82033 8.04271 4.88351 8.41803 3.92796 8.73052L3.74687 8.7955C0.426774 9.98046 -0.00643601 12.1287 0.000665794 13.2066C-0.000221931 13.2219 -0.000221931 13.2372 0.000665794 13.2525V15.9817C0.00119843 16.1146 0.0656917 16.2376 0.171109 16.3066C0.984798 16.8396 1.86311 17.2486 2.78102 17.5222C2.9698 17.5793 3.1659 17.4609 3.21898 17.2577C3.22897 17.2194 3.23336 17.1797 3.23199 17.1399V17.052H3.75397V17.4343C3.75171 17.6236 3.87861 17.7862 4.05225 17.8165C4.36117 17.87 4.6701 17.9121 4.97193 17.9388C5.07082 17.9478 5.16869 17.9117 5.2418 17.8395C5.31486 17.7665 5.35609 17.6639 5.35543 17.5566V17.075H5.87741V17.6178C5.87741 17.8288 6.0364 18 6.2325 18C6.53077 18 6.82905 18 7.14863 17.9541C7.33359 17.9382 7.47589 17.7716 7.47531 17.5719V17.075H7.9973V17.4113C7.99477 17.6224 8.15167 17.7958 8.34777 17.7985C8.36832 17.7988 8.38887 17.7972 8.4092 17.7936C9.06102 17.6861 9.70351 17.5212 10.3302 17.3005L10.3871 17.2737C12.8727 15.7447 14.4493 17.0023 14.5132 17.0559C14.5752 17.1076 14.6513 17.1358 14.7298 17.1361H15.1701C15.3662 17.1361 15.5252 16.965 15.5252 16.7539V16.1079H16.033V16.7462C16.033 16.9573 16.192 17.1285 16.3881 17.1285H17.5315C17.7276 17.1285 17.8866 16.9573 17.8866 16.7462V16.1079H18.4121V16.7462C18.4121 16.9573 18.5711 17.1285 18.7672 17.1285H19.6443C19.8404 17.1285 19.9993 16.9573 19.9993 16.7462V12.6256C20.0028 12.4411 19.8833 12.2803 19.7153 12.2434ZM11.289 0.772139H18.4476V3.93714H11.289V0.772139ZM6.8255 8.39414L6.82905 8.41708C7.12014 8.67146 7.38876 8.95428 7.63155 9.26184C7.56715 9.37714 7.53395 9.50954 7.53568 9.64409C7.53324 10.0473 7.83493 10.3763 8.20946 10.3789C8.58404 10.3815 8.88964 10.0568 8.89208 9.6536C8.89439 9.27374 8.62572 8.95547 8.27427 8.92164C8.04967 8.592 7.79379 8.28835 7.51082 8.01572C7.82814 7.8213 8.12668 7.59338 8.4021 7.33532C8.74649 7.68311 9.06692 8.05743 9.36084 8.4553C9.23732 8.83597 9.42383 9.25233 9.77741 9.38535C10.131 9.51833 10.5178 9.31755 10.6414 8.93693C10.7649 8.55626 10.5784 8.1399 10.2248 8.00688C10.1515 7.97926 10.0742 7.96545 9.99646 7.96602H9.91123C9.59978 7.54393 9.2604 7.14663 8.89567 6.77724C9.06492 6.5529 9.21468 6.31238 9.34309 6.05861C9.89281 6.36665 10.4241 6.71135 10.9339 7.09068C10.9304 7.49811 11.2344 7.83143 11.6129 7.8352C11.9914 7.83897 12.301 7.51172 12.3045 7.1043C12.308 6.69687 12.004 6.36355 11.6255 6.35977C11.5174 6.35868 11.4106 6.38515 11.3138 6.43704C10.7773 6.046 10.2187 5.69113 9.64137 5.37439C10.0284 4.26587 10.1953 2.79422 10.1172 0.787429H10.5824V3.95243C10.5824 4.37467 10.9003 4.71693 11.2925 4.71693H17.9469C18.0392 4.91952 18.1955 5.27118 18.3659 5.72988H18.2203C16.0632 5.74665 14.3271 7.64269 14.3427 9.96484C14.3515 11.2844 14.9353 12.5229 15.9194 13.3098C13.0467 14.124 8.72523 15.0911 5.08911 14.8388C5.76023 11.9529 4.95773 10.1754 4.43574 9.39563C5.24859 9.10861 6.04634 8.77428 6.8255 8.39414ZM3.72201 9.61351C4.10551 10.099 5.10686 11.7312 4.37183 14.7318C3.09235 14.6235 1.84967 14.2193 0.728601 13.5468C0.715862 13.4595 0.707562 13.3714 0.703744 13.2831V13.2563C0.675337 12.4421 0.959409 10.68 3.72201 9.61351ZM19.1223 16.364V15.7256C19.1223 15.5145 18.9633 15.3434 18.7672 15.3434H17.535C17.3389 15.3434 17.1799 15.5145 17.1799 15.7256V16.364H16.7432V15.7256C16.7432 15.5145 16.5842 15.3434 16.3881 15.3434H15.163C14.9669 15.3434 14.8079 15.5145 14.8079 15.7256V16.3487C14.325 16.0238 12.5602 15.0796 10.0568 16.5857C9.61145 16.7439 9.1572 16.8716 8.69683 16.9679V16.7042C8.69683 16.4931 8.53783 16.3219 8.34173 16.3219H7.11667C6.92058 16.3219 6.76158 16.4931 6.76158 16.7042V17.2279H6.58049V16.6927C6.58049 16.4816 6.4215 16.3105 6.2254 16.3105H4.99323C4.79714 16.3105 4.63814 16.4816 4.63814 16.6927V17.1476L4.45705 17.1208V16.6927C4.45705 16.4816 4.29806 16.3105 4.10196 16.3105H2.86979C2.68919 16.3091 2.53637 16.4538 2.5147 16.6468C1.88446 16.4235 1.27757 16.1301 0.703744 15.7715V14.4031C2.25194 15.286 4.25465 15.6186 6.38519 15.6186C12.0453 15.6186 18.5222 13.2869 19.2856 13.0079L19.2892 16.364H19.1223ZM18.9483 12.3313C18.6465 12.4383 17.9043 12.7135 16.8781 13.0079C15.2894 12.1801 14.6248 10.1228 15.3937 8.41254C15.9197 7.24267 17.0132 6.49175 18.2203 6.47144C18.3603 6.46934 18.5003 6.47698 18.6394 6.49437L18.6429 6.50584C19.1649 8.12657 19.6336 10.4392 18.9483 12.3313Z" fill=""/>
<path d="M12.6564 1.23469C12.0857 1.23469 11.6231 1.73271 11.6231 2.34703C11.625 2.96049 12.0865 3.45727 12.6564 3.45937C13.227 3.45937 13.6897 2.96135 13.6897 2.34703C13.6897 1.73271 13.2271 1.23469 12.6564 1.23469ZM12.6564 2.69487C12.4779 2.69487 12.3332 2.53916 12.3332 2.34703C12.3332 2.1549 12.4779 1.99918 12.6564 1.99918C12.8348 1.99918 12.9795 2.1549 12.9795 2.34703C12.9795 2.53916 12.8348 2.69487 12.6564 2.69487Z" fill=""/>
</g></symbol><symbol id="cross" viewBox="0 0 20 20"><g fill="">
<path d="M1 1L10 10M19 19L10 10M10 10L19 1L1 19" stroke="" stroke-width="2"/>
</g></symbol><symbol id="crown" viewBox="0 0 22 21"><g fill="">
<path d="M17.6867 20H4.31331M21 7.11028L18.0746 16.8049H3.92539L1 7.11028L6.77168 10.6142L11 2L15.2283 10.6142L21 7.11028Z" stroke=""/>
</g></symbol><symbol id="leaf" viewBox="0 0 22 16"><g fill="">
<path d="M10.6903 13.2442C10.0125 10.3813 8.01953 7.97182 5.27543 6.69773C3.92399 6.07026 2.46282 5.75181 1 5.74238C1.08555 7.77102 1.83429 9.74572 3.17529 11.367C5.06036 13.646 7.9121 14.9803 10.933 14.9998C10.9083 14.4135 10.828 13.8259 10.6903 13.2442ZM10.6903 13.2442C10.1339 10.894 8.69109 8.84935 6.67408 7.48755C6.70814 7.28448 6.74903 7.08183 6.79684 6.87988C7.37026 4.4577 8.88519 2.36004 11 1C13.1147 2.36004 14.6297 4.4577 15.2031 6.87988C15.2509 7.08182 15.2918 7.28447 15.3258 7.48752C13.3088 8.84932 11.8661 10.894 11.3097 13.2442M10.6903 13.2442C10.8279 13.8257 10.9082 14.4131 10.933 14.9992C10.9748 14.9997 11.0166 15 11.0585 15C11.9054 15 12.7394 14.8966 13.5431 14.698C13.5477 14.692 13.5522 14.6859 13.5567 14.6799C12.752 14.8849 11.9162 14.9943 11.067 14.9998M11.3097 13.2442C11.9875 10.3813 13.9805 7.97182 16.7246 6.69773C18.076 6.07026 19.5372 5.75181 21 5.74238C20.9144 7.77102 20.1657 9.74572 18.8247 11.367C16.9396 13.646 14.0879 14.9803 11.067 14.9998M11.3097 13.2442C11.172 13.8259 11.0917 14.4135 11.067 14.9998" stroke="" stroke-linecap="round" stroke-linejoin="round"/>
</g></symbol><symbol id="level" viewBox="0 0 20 22"><g fill="">
<path d="M19 21H15.4V1H19V21Z" stroke="" stroke-miterlimit="16" stroke-linecap="round"/>
<path d="M11.8 21V6.45455H8.2L8.2 21H11.8Z" stroke="" stroke-miterlimit="16" stroke-linecap="round"/>
<path d="M4.6 21V11.9091H1V21H4.6Z" stroke="" stroke-miterlimit="16" stroke-linecap="round"/>
</g></symbol><symbol id="mail" viewBox="0 0 22 16"><g fill="">
<path d="M21 2.55556V13.4444C21 14.3036 20.3604 15 19.5714 15H2.42857C1.63959 15 1 14.3036 1 13.4444V2.55556M21 2.55556C21 1.69645 20.3604 1 19.5714 1H2.42857C1.63959 1 1 1.69645 1 2.55556M21 2.55556L12.8594 10.1534C11.7895 11.152 10.2106 11.152 9.14062 10.1534L1 2.55556" stroke="" stroke-linecap="round" stroke-linejoin="round"/>
</g></symbol><symbol id="map-filled" viewBox="0 0 16 20"><g fill="">
<path d="M15.5 7.14732C15.5 3.19996 12.1421 0 8 0C3.85786 0 0.5 3.19996 0.5 7.14732V7.57782C0.5 9.15722 1.01784 10.6971 1.98114 11.9823L7.98519 19.9927C7.99245 20.0024 8.00756 20.0024 8.01482 19.9927L14.0189 11.9823C14.9822 10.6971 15.5 9.15722 15.5 7.57782V7.14732Z" fill=""/>
<path d="M6.66733 4.76428C7.50949 4.38052 8.49051 4.38052 9.33267 4.76428C10.1748 5.14804 10.7865 5.87379 10.9945 6.73609C11.2025 7.59839 10.9842 8.50338 10.4014 9.19489C9.81859 9.8864 8.93473 10.2892 8 10.2892C7.06527 10.2892 6.18141 9.8864 5.59862 9.19489C5.01582 8.50338 4.79753 7.59839 5.00552 6.73609C5.21352 5.87379 5.82517 5.14804 6.66733 4.76428Z" fill=""/>
</g></symbol><symbol id="map" viewBox="0 0 16 22"><g fill="">
<path d="M15.5 8.14732C15.5 4.19996 12.1421 1 8 1C3.85786 1 0.5 4.19996 0.5 8.14732V8.57782C0.5 10.1572 1.01784 11.6971 1.98114 12.9823L7.98518 20.9927C7.99245 21.0024 8.00756 21.0024 8.01482 20.9927L14.0189 12.9823C14.9822 11.6971 15.5 10.1572 15.5 8.57782V8.14732Z" stroke="" stroke-linecap="round" stroke-linejoin="round"/>
<path d="M6.53407 5.28903C7.46044 4.86389 8.53956 4.86389 9.46593 5.28903C10.3923 5.71417 11.0651 6.51818 11.2939 7.47347C11.5227 8.42875 11.2826 9.43134 10.6415 10.1974C10.0004 10.9635 9.0282 11.4097 8 11.4097C6.9718 11.4097 5.99955 10.9635 5.35848 10.1974C4.7174 9.43134 4.47728 8.42875 4.70608 7.47347C4.93487 6.51818 5.60769 5.71417 6.53407 5.28903Z" stroke="" stroke-linecap="round" stroke-linejoin="round"/>
</g></symbol><symbol id="moon" viewBox="0 0 20 20"><g fill="">
<path d="M19.5272 11.382C19.3228 11.3307 19.1183 11.382 18.9394 11.5103C18.2748 12.0745 17.5081 12.5362 16.6646 12.844C15.8723 13.1518 15.0033 13.3057 14.0831 13.3057C12.0128 13.3057 10.1215 12.4593 8.76681 11.0999C7.41217 9.74052 6.56872 7.84251 6.56872 5.76497C6.56872 4.89291 6.72207 4.0465 6.97767 3.27704C7.25882 2.45628 7.66777 1.71247 8.20451 1.07125C8.43454 0.789119 8.38343 0.378739 8.10227 0.147901C7.92336 0.0196573 7.71888 -0.0316401 7.51441 0.0196573C5.34188 0.609578 3.4505 1.91766 2.09586 3.66177C0.792336 5.38024 0 7.50908 0 9.84311C0 12.6388 1.12461 15.178 2.96487 17.0247C4.80513 18.8715 7.3355 20 10.1215 20C12.4729 20 14.6454 19.1792 16.3835 17.8199C18.147 16.4348 19.425 14.4599 19.9618 12.2028C20.0895 11.8181 19.8851 11.459 19.5272 11.382ZM15.6167 16.7426C14.1342 17.9225 12.2429 18.6406 10.1726 18.6406C7.74444 18.6406 5.54635 17.6403 3.96168 16.0501C2.37701 14.4599 1.3802 12.2541 1.3802 9.81746C1.3802 7.79122 2.04474 5.94451 3.1949 4.45688C3.98724 3.43094 4.98405 2.58453 6.13421 1.99461C6.00642 2.27674 5.87862 2.55888 5.77638 2.86666C5.44411 3.79002 5.29076 4.76467 5.29076 5.79062C5.29076 8.22724 6.28757 10.4587 7.87224 12.0489C9.45691 13.6391 11.6806 14.6394 14.1087 14.6394C15.1822 14.6394 16.2045 14.4599 17.1502 14.1008C17.4825 13.9726 17.8148 13.8443 18.1215 13.6904C17.5081 14.8703 16.6646 15.9219 15.6167 16.7426Z" fill=""/>
</g></symbol><symbol id="odnoklassniki" viewBox="0 0 9 16"><g fill="">
<path d="M4.5 2.42035C5.41587 2.42035 6.1607 3.18736 6.1607 4.1305C6.1607 5.0708 5.41587 5.83781 4.5 5.83781C3.58413 5.83781 2.8393 5.0708 2.8393 4.1305C2.8393 3.18736 3.58413 2.42035 4.5 2.42035ZM4.5 8.25816C6.71243 8.25816 8.51106 6.40597 8.51106 4.1305C8.51106 1.85219 6.71243 0 4.5 0C2.28757 0 0.491701 1.85219 0.491701 4.1305C0.491701 6.40597 2.28757 8.25816 4.5 8.25816ZM6.12208 11.6273C6.93863 11.4342 7.72485 11.1018 8.45037 10.6331C8.99934 10.278 9.16486 9.53083 8.82003 8.96551C8.47244 8.39735 7.74967 8.22691 7.19795 8.58485C5.55656 9.6473 3.44344 9.6473 1.79929 8.58485C1.25033 8.22691 0.524805 8.39735 0.179975 8.96551C-0.164855 9.53083 0.000663014 10.278 0.549632 10.6331C1.27515 11.1018 2.06136 11.4342 2.87792 11.6273L0.63515 13.934C0.177216 14.4056 0.177216 15.1726 0.63515 15.6442C0.866875 15.88 1.16481 15.9993 1.4655 15.9993C1.76619 15.9993 2.06688 15.88 2.29861 15.6442L4.5 13.3772L6.70415 15.6442C7.16208 16.1186 7.90416 16.1186 8.36485 15.6442C8.82278 15.1726 8.82278 14.4056 8.36485 13.934L6.12208 11.6273Z" fill=""/>
</g></symbol><symbol id="path" viewBox="0 0 22 22"><g fill="">
<path d="M18.1429 8.76743H12.7857C11.1091 8.76743 9.75 10.1366 9.75 11.8256C9.75 13.5145 11.1091 14.8837 12.7857 14.8837H15.1071C16.7837 14.8837 18.1429 16.2529 18.1429 17.9419C18.1429 19.6308 16.7837 21 15.1071 21H3.85714M6.71428 15.9302C6.71428 14.3406 5.4351 13.0519 3.85714 13.0519C2.27919 13.0519 1 14.3406 1 15.9302V16.0384C1 16.6695 1.1985 17.2845 1.56701 17.7949L3.8515 20.9593C3.85429 20.9632 3.86 20.9632 3.86279 20.9593L6.14727 17.7949C6.51578 17.2845 6.71428 16.6695 6.71428 16.0384V15.9302ZM4.40947 14.7454L4.42662 14.7535C4.77242 14.9183 5.02453 15.2332 5.11112 15.6086C5.19868 15.9881 5.10458 16.3904 4.86077 16.6929C4.61964 16.9921 4.25485 17.1691 3.87232 17.1691H3.84197C3.45944 17.1691 3.09464 16.9921 2.85352 16.6929C2.60971 16.3904 2.51561 15.9881 2.60316 15.6086C2.68975 15.2332 2.94186 14.9183 3.28767 14.7535L3.30482 14.7454C3.65446 14.5788 4.05982 14.5788 4.40947 14.7454ZM21 3.89849C21 2.30887 19.7208 1 18.1429 1C16.5649 1 15.2857 2.30887 15.2857 3.89849C15.2857 4.52339 15.4857 5.1384 15.8561 5.63972L18.1372 8.72766C18.14 8.73147 18.1457 8.73147 18.1485 8.72766L20.4297 5.63972C20.8 5.1384 21 4.52339 21 3.89849ZM18.6875 2.65136L18.7262 2.66941C19.0631 2.82627 19.3099 3.13018 19.3957 3.4939C19.4838 3.86694 19.3925 4.25998 19.1492 4.55491L19.137 4.56971C18.8999 4.85725 18.548 5.02359 18.1769 5.02359H18.1088C17.7377 5.02359 17.3858 4.85725 17.1487 4.56971L17.1365 4.55491C16.8932 4.25998 16.8019 3.86694 16.89 3.4939C16.9758 3.13018 17.2226 2.82627 17.5595 2.66941L17.5983 2.65136C17.9438 2.49048 18.342 2.49048 18.6875 2.65136Z" stroke="" stroke-linecap="round"/>
</g></symbol><symbol id="phone" viewBox="0 0 22 22"><g fill="">
<path d="M19.3236 20.0443C19.0034 20.6753 18.3438 21.0672 17.6426 20.9904C17.3412 20.9575 17.0402 20.9171 16.7396 20.8693C12.8229 20.2465 9.20304 18.3949 6.39895 15.5797C3.59486 12.7646 1.75046 9.1305 1.1301 5.19831C1.08254 4.89683 1.04236 4.59477 1.00952 4.29242C0.933062 3.58844 1.32346 2.92622 1.95195 2.60473L4.70244 1.19777C5.76693 0.653244 7.05498 1.28842 7.42933 2.42743C7.65638 3.11826 7.92452 3.79805 8.23342 4.4631C8.38821 4.79636 8.5524 5.12412 8.72567 5.44606C9.13588 6.20824 8.85917 7.18583 8.0736 7.54431C6.93267 8.06496 6.66094 9.56938 7.54713 10.4591L11.4995 14.427C12.3857 15.3167 13.8842 15.0439 14.4028 13.8985C14.7796 13.0663 15.8009 12.765 16.6118 13.1807C16.8084 13.2814 17.0071 13.3788 17.2078 13.4728C17.9681 13.8287 18.7478 14.1308 19.5413 14.3784C20.6964 14.7389 21.3521 16.0475 20.8029 17.1296L19.3236 20.0443Z" stroke="" stroke-linecap="round" stroke-linejoin="round"/>
</g></symbol><symbol id="reddit" viewBox="0 0 14 15"><g fill="">
<path d="M8.36171 0C7.91277 0 7.49149 0.244007 7.22128 0.59589C6.95106 0.947774 6.80213 1.37671 6.69362 1.82877C6.52128 2.55565 6.46808 3.36216 6.45532 4.08904C5.19361 4.17894 4.05105 4.57962 3.10211 5.19863C2.717 4.85188 2.25317 4.65925 1.80849 4.66438C1.3021 4.66952 0.821252 4.90325 0.463803 5.38356C-0.219178 6.30051 -0.140455 7.80051 0.651038 8.69178C0.602102 8.96661 0.565931 9.24914 0.565931 9.53425C0.565931 12.5548 3.44679 15 7 15C10.5532 15 13.4341 12.5522 13.4341 9.53425C13.4341 9.24914 13.3979 8.96661 13.349 8.69178C14.1405 7.80051 14.2192 6.30051 13.5362 5.38356C13.1788 4.90325 12.6979 4.66952 12.1915 4.66438C11.7468 4.65925 11.283 4.85188 10.8979 5.19863C9.9532 4.58219 8.81703 4.18151 7.5617 4.08904C7.57873 3.41866 7.62341 2.7226 7.74894 2.19863C7.82766 1.86986 7.92128 1.63099 8.02128 1.5C8.12128 1.36901 8.19362 1.31507 8.36171 1.31507C8.72554 1.31507 8.77235 1.44092 8.9915 1.74658C9.10214 1.90068 9.2298 2.09332 9.43405 2.28082C9.63831 2.46832 9.94044 2.63014 10.2681 2.63014V1.31507C10.1766 1.31507 10.1596 1.3125 10.0979 1.25342C10.0362 1.19435 9.95108 1.05822 9.82554 0.883562C9.57448 0.531678 9.08724 0 8.36171 0ZM11.9021 0.123288C11.0553 0.123288 10.3702 0.950343 10.3702 1.9726C10.3702 2.99486 11.0553 3.82192 11.9021 3.82192C12.749 3.82192 13.4341 2.99486 13.4341 1.9726C13.4341 0.950343 12.749 0.123288 11.9021 0.123288ZM11.9021 0.780822C12.4468 0.780822 12.8894 1.31507 12.8894 1.9726C12.8894 2.63014 12.4468 3.16438 11.9021 3.16438C11.3575 3.16438 10.9149 2.63014 10.9149 1.9726C10.9149 1.31507 11.3575 0.780822 11.9021 0.780822ZM7 5.11644C10.0149 5.11644 12.566 7.14298 12.566 9.53425C12.566 11.9281 10.0149 13.9521 7 13.9521C3.98509 13.9521 1.43402 11.9281 1.43402 9.53425C1.43402 7.14298 3.98509 5.11644 7 5.11644ZM1.82551 5.71233C1.97658 5.7149 2.13402 5.75599 2.28509 5.83562C1.73828 6.33647 1.30423 6.91182 1.00849 7.56164C0.80423 7.05308 0.85955 6.41866 1.11061 6.08219C1.29359 5.83562 1.54679 5.70976 1.82551 5.71233ZM12.1745 5.71233C12.4532 5.70976 12.7064 5.83562 12.8894 6.08219C13.1405 6.41866 13.1958 7.05308 12.9915 7.56164C12.6958 6.91182 12.2617 6.33647 11.7149 5.83562C11.866 5.75599 12.0234 5.7149 12.1745 5.71233ZM4.82127 7.35616C4.27658 7.35616 3.83403 7.89041 3.83403 8.54795C3.83403 9.20548 4.27658 9.73973 4.82127 9.73973C5.36595 9.73973 5.80851 9.20548 5.80851 8.54795C5.80851 7.89041 5.36595 7.35616 4.82127 7.35616ZM9.17873 7.35616C8.63405 7.35616 8.19149 7.89041 8.19149 8.54795C8.19149 9.20548 8.63405 9.73973 9.17873 9.73973C9.72342 9.73973 10.166 9.20548 10.166 8.54795C10.166 7.89041 9.72342 7.35616 9.17873 7.35616ZM4.29361 11.4041C4.64042 12.2697 5.71276 13.1096 7 13.1096C8.28724 13.1096 9.37661 12.2697 9.72342 11.4041C9.09363 11.8947 8.10001 12.226 7 12.226C5.9 12.226 4.9234 11.8947 4.29361 11.4041Z" fill=""/>
</g></symbol><symbol id="shield" viewBox="0 0 20 22"><g fill="">
<path d="M7.75001 10.912L10 13.1562L13.9375 9.22882M9.99997 1C7.67869 2.18698 5.09257 2.81813 2.44902 2.81813C2.09212 2.81813 1.73627 2.80662 1.38197 2.7838C0.924632 4.87029 0.87403 7.04136 1.25148 9.17646C1.92717 12.9986 3.93142 16.4612 6.91222 18.9559C7.86795 19.7558 8.90448 20.4398 10 21C11.0955 20.4398 12.132 19.7558 13.0878 18.9559C16.0686 16.4612 18.0728 12.9986 18.7485 9.17647C19.126 7.04136 19.0754 4.87029 18.618 2.7838C18.2637 2.80662 17.9078 2.81813 17.5509 2.81813C14.9074 2.81813 12.3212 2.18698 9.99997 1Z" stroke=""/>
</g></symbol><symbol id="vk" viewBox="0 0 16 9"><g fill="">
<path d="M15.8574 8.02743C15.8144 7.95645 15.5484 7.38659 14.2683 6.21531C12.9282 4.98883 13.1082 5.18799 14.7223 3.06728C15.7054 1.77572 16.0984 0.986988 15.9754 0.649804C15.8584 0.328395 15.1353 0.413184 15.1353 0.413184L12.7312 0.426986C12.7312 0.426986 12.5531 0.403324 12.4201 0.481212C12.2911 0.558114 12.2081 0.735579 12.2081 0.735579C12.2081 0.735579 11.8271 1.7353 11.3191 2.58516C10.248 4.37855 9.81894 4.4732 9.64393 4.36179C9.2369 4.10249 9.33891 3.31869 9.33891 2.76263C9.33891 1.02445 9.60593 0.299803 8.81787 0.112478C8.55585 0.0503654 8.36384 0.00895679 7.69479 0.00205536C6.83672 -0.00681791 6.10967 0.00501311 5.69864 0.203183C5.42462 0.335296 5.21361 0.630086 5.34262 0.646846C5.50163 0.667551 5.86165 0.74248 6.05267 0.998819C6.29969 1.3291 6.29069 2.07248 6.29069 2.07248C6.29069 2.07248 6.4327 4.11827 5.95966 4.37263C5.63464 4.54714 5.1896 4.19122 4.23453 2.56347C3.7455 1.73037 3.37547 0.808537 3.37547 0.808537C3.37547 0.808537 3.30447 0.636987 3.17746 0.545297C3.02345 0.433888 2.80743 0.398395 2.80743 0.398395L0.521262 0.412198C0.521262 0.412198 0.178236 0.422057 0.0522271 0.568959C-0.0597811 0.700086 0.0432264 0.970227 0.0432264 0.970227C0.0432264 0.970227 1.83336 5.09827 3.85951 7.17954C5.71864 9.0873 7.8288 8.96208 7.8288 8.96208H8.78487C8.78487 8.96208 9.07389 8.93054 9.2209 8.77377C9.35691 8.62983 9.35191 8.35969 9.35191 8.35969C9.35191 8.35969 9.33291 7.09475 9.92895 6.90842C10.516 6.72504 11.2701 8.13095 12.0691 8.67222C12.6732 9.08138 13.1322 8.99166 13.1322 8.99166L15.2693 8.96208C15.2693 8.96208 16.3874 8.89406 15.8574 8.02743Z" fill=""/>
</g></symbol></svg>