<svg xmlns="http://www.w3.org/2000/svg" xmlns:xlink="http://www.w3.org/1999/xlink"><defs>
<clipPath id="clip0_248_2190">
<rect width="25" height="25" fill="white"/>
</clipPath>

<clipPath id="clip0_248_2161">
<rect width="25" height="25" fill="white"/>
</clipPath>

<clipPath id="clip0_248_2534">
<rect width="15" height="14" fill="white"/>
</clipPath>

<clipPath id="clip0_248_2546">
<rect width="15" height="14" fill="white"/>
</clipPath>

<clipPath id="clip0_248_2173">
<rect width="23" height="23" fill="white"/>
</clipPath>
</defs><symbol id="audio-next" viewBox="0 0 19 18"><g fill="">
<path d="M1.4375 0.749998C1.55849 0.750027 1.67732 0.782046 1.78194 0.842812L14.8444 8.40531C14.9486 8.46575 15.0351 8.55249 15.0952 8.65686C15.1553 8.76123 15.187 8.87956 15.187 9C15.187 9.12044 15.1553 9.23877 15.0952 9.34314C15.0351 9.44751 14.9486 9.53425 14.8444 9.59469L1.78194 17.1572C1.67746 17.2177 1.5589 17.2496 1.43817 17.2497C1.31745 17.2498 1.19882 17.2181 1.09423 17.1579C0.98963 17.0976 0.902748 17.0108 0.842321 16.9063C0.781895 16.8018 0.750053 16.6832 0.75 16.5625L0.750001 1.4375C0.750001 1.25516 0.822433 1.08029 0.951364 0.951361C1.0803 0.82243 1.25516 0.749998 1.4375 0.749998ZM18.625 17.25L17.25 17.25L17.25 0.75L18.625 0.75L18.625 17.25Z" fill=""/>
</g></symbol><symbol id="audio-play" viewBox="0 0 47 47"><g fill="">
<path d="M47 23.5C47 29.7326 44.5241 35.7099 40.117 40.117C35.7099 44.5241 29.7326 47 23.5 47C17.2674 47 11.2901 44.5241 6.88299 40.117C2.47589 35.7099 0 29.7326 0 23.5C0 17.2674 2.47589 11.2901 6.88299 6.88299C11.2901 2.47589 17.2674 0 23.5 0C29.7326 0 35.7099 2.47589 40.117 6.88299C44.5241 11.2901 47 17.2674 47 23.5ZM19.9456 14.9607C19.726 14.8043 19.4676 14.7114 19.1987 14.6922C18.9298 14.6729 18.6607 14.728 18.4211 14.8515C18.1814 14.975 17.9804 15.162 17.84 15.3922C17.6995 15.6223 17.6252 15.8867 17.625 16.1562V30.8438C17.6252 31.1133 17.6995 31.3777 17.84 31.6078C17.9804 31.838 18.1814 32.025 18.4211 32.1485C18.6607 32.272 18.9298 32.3271 19.1987 32.3078C19.4676 32.2886 19.726 32.1957 19.9456 32.0393L30.2269 24.6956C30.4173 24.5597 30.5725 24.3803 30.6795 24.1724C30.7866 23.9644 30.8425 23.7339 30.8425 23.5C30.8425 23.2661 30.7866 23.0356 30.6795 22.8276C30.5725 22.6197 30.4173 22.4403 30.2269 22.3044L19.9456 14.9607Z" fill=""/>
</g></symbol><symbol id="audio-prev" viewBox="0 0 19 18"><g fill="">
<path d="M17.5625 17.25C17.4415 17.25 17.3227 17.218 17.2181 17.1572L4.15556 9.59469C4.05138 9.53425 3.9649 9.44751 3.90479 9.34314C3.84467 9.23877 3.81303 9.12044 3.81303 9C3.81303 8.87956 3.84467 8.76123 3.90479 8.65686C3.9649 8.55249 4.05138 8.46575 4.15556 8.40531L17.2181 0.842813C17.3225 0.782331 17.4411 0.750426 17.5618 0.750308C17.6826 0.75019 17.8012 0.781862 17.9058 0.84214C18.0104 0.902417 18.0973 0.989175 18.1577 1.09369C18.2181 1.1982 18.2499 1.31678 18.25 1.4375V16.5625C18.25 16.7448 18.1776 16.9197 18.0486 17.0486C17.9197 17.1776 17.7448 17.25 17.5625 17.25ZM0.375 0.75H1.75V17.25H0.375V0.75Z" fill=""/>
</g></symbol><symbol id="audio-repeat" viewBox="0 0 19 19"><g fill="">
<path d="M17.1449 5.18493C17.9716 6.05095 18.5321 7.1362 18.7599 8.31159C18.9876 9.48699 18.873 10.7031 18.4296 11.8152C17.9862 12.9273 17.2327 13.8887 16.2587 14.5849C15.2847 15.2812 14.1313 15.6831 12.9355 15.7427L12.6246 15.7506L7.47925 15.749L9.273 17.5443C9.40242 17.6736 9.48238 17.8442 9.49894 18.0263C9.5155 18.2085 9.46761 18.3907 9.36363 18.5412L9.273 18.649C9.14373 18.7784 8.97315 18.8584 8.79098 18.8749C8.60882 18.8915 8.42661 18.8436 8.27613 18.7396L8.16831 18.649L5.04019 15.5209C4.91101 15.3914 4.83134 15.2207 4.81507 15.0386C4.79879 14.8564 4.84694 14.6743 4.95113 14.524L5.04019 14.4162L8.16831 11.2881C8.30611 11.1496 8.49075 11.0679 8.68585 11.0588C8.88095 11.0498 9.07236 11.1142 9.22235 11.2393C9.37234 11.3644 9.47004 11.5411 9.49619 11.7346C9.52234 11.9282 9.47505 12.1245 9.36363 12.2849L9.273 12.3943L7.47925 14.1865H12.6246C13.82 14.1866 14.9702 13.73 15.8401 12.9101C16.71 12.0901 17.2337 10.9689 17.3043 9.77556L17.3121 9.50056C17.3139 8.26652 16.8275 7.08186 15.9589 6.20525C15.8164 6.06095 15.7355 5.86686 15.7334 5.66401C15.7314 5.46117 15.8083 5.26548 15.9479 5.11833C16.0876 4.97118 16.279 4.88412 16.4816 4.87555C16.6843 4.86699 16.8824 4.93759 17.0339 5.07243L17.1464 5.18493H17.1449ZM10.7246 0.261495L10.8339 0.350557L13.9605 3.47868L14.0511 3.58806C14.1412 3.71852 14.1894 3.87329 14.1894 4.03181C14.1894 4.19033 14.1412 4.34509 14.0511 4.47556L13.9605 4.58493L10.8339 7.7115L10.7246 7.80212C10.5941 7.89216 10.4393 7.94038 10.2808 7.94038C10.1223 7.94038 9.96753 7.89216 9.83706 7.80212L9.72769 7.7115L9.63863 7.60212C9.54859 7.47166 9.50037 7.31689 9.50037 7.15837C9.50037 6.99985 9.54859 6.84509 9.63863 6.71462L9.72769 6.60525L11.5214 4.81306H6.37456C5.17892 4.81299 4.02845 5.26982 3.15853 6.09006C2.28861 6.91031 1.76502 8.03198 1.69488 9.22556L1.68706 9.50056C1.68706 10.7818 2.20113 11.9412 3.03238 12.7881C3.16401 12.9384 3.23305 13.1334 3.22531 13.333C3.21758 13.5327 3.13365 13.7218 2.99078 13.8614C2.84792 14.0011 2.65697 14.0807 2.4572 14.0839C2.25744 14.0871 2.06403 14.0137 1.91675 13.8787C1.07305 13.0192 0.495661 11.9342 0.25403 10.7543C0.0123997 9.57444 0.116825 8.34986 0.554743 7.22791C0.992662 6.10596 1.74542 5.13444 2.72246 4.43021C3.6995 3.72598 4.85921 3.31905 6.06206 3.25837L6.37456 3.25056L11.5214 3.249L9.72769 1.45681L9.63863 1.34743C9.53572 1.19704 9.48862 1.01541 9.50548 0.833966C9.52234 0.652521 9.6021 0.482678 9.73096 0.353824C9.85981 0.22497 10.0297 0.145213 10.2111 0.128352C10.3925 0.111492 10.5742 0.158589 10.7246 0.261495Z" fill=""/>
</g></symbol><symbol id="audio-shuffle" viewBox="0 0 22 19"><g fill="">
<path d="M21.2129 14.4121C21.3596 14.5602 21.4419 14.7603 21.4419 14.9688C21.4419 15.1772 21.3596 15.3773 21.2129 15.5254L18.8691 17.8691C18.7198 18.0135 18.5202 18.0942 18.3125 18.0942C18.1048 18.0942 17.9052 18.0135 17.7559 17.8691C17.6092 17.721 17.5269 17.521 17.5269 17.3125C17.5269 17.104 17.6092 16.904 17.7559 16.7559L18.7715 15.75H17.6191C16.4996 15.748 15.3967 15.4795 14.4016 14.9667C13.4064 14.4538 12.5477 13.7114 11.8965 12.8008L7.82422 7.10742C7.31888 6.3997 6.65233 5.82244 5.87968 5.42338C5.10703 5.02432 4.25048 4.81492 3.38086 4.8125H1.125C0.9178 4.8125 0.719086 4.73019 0.572573 4.58368C0.42606 4.43717 0.34375 4.23845 0.34375 4.03125C0.34375 3.82405 0.42606 3.62534 0.572573 3.47882C0.719086 3.33231 0.9178 3.25 1.125 3.25H3.38086C4.50037 3.25197 5.60331 3.52049 6.59844 4.03333C7.59357 4.54618 8.45228 5.28862 9.10351 6.19922L13.1758 11.8926C13.6811 12.6003 14.3477 13.1776 15.1203 13.5766C15.893 13.9757 16.7495 14.1851 17.6191 14.1875H18.7715L17.7559 13.1816C17.6313 13.0298 17.5676 12.8371 17.5772 12.641C17.5869 12.4449 17.6691 12.2593 17.808 12.1205C17.9468 11.9816 18.1324 11.8994 18.3285 11.8897C18.5246 11.8801 18.7173 11.9438 18.8691 12.0684L21.2129 14.4121ZM11.9648 7.44922C12.0487 7.50927 12.1436 7.55212 12.2441 7.5753C12.3446 7.59848 12.4487 7.60153 12.5504 7.58428C12.6521 7.56704 12.7493 7.52982 12.8365 7.4748C12.9238 7.41977 12.9992 7.34801 13.0586 7.26367L13.1758 7.10742C13.6811 6.3997 14.3477 5.82244 15.1203 5.42338C15.893 5.02432 16.7495 4.81492 17.6191 4.8125H18.7715L17.7559 5.81836C17.6092 5.96648 17.5269 6.16653 17.5269 6.375C17.5269 6.58348 17.6092 6.78352 17.7559 6.93164C17.9052 7.07603 18.1048 7.15675 18.3125 7.15675C18.5202 7.15675 18.7198 7.07603 18.8691 6.93164L21.2129 4.58789C21.3596 4.43977 21.4419 4.23973 21.4419 4.03125C21.4419 3.82278 21.3596 3.62273 21.2129 3.47461L18.8691 1.13086C18.7173 1.00628 18.5246 0.942614 18.3285 0.952247C18.1324 0.96188 17.9468 1.04412 17.808 1.18298C17.6691 1.32183 17.5869 1.50737 17.5772 1.70351C17.5676 1.89964 17.6313 2.09235 17.7559 2.24414L18.7715 3.25H17.6191C16.4996 3.25197 15.3967 3.52049 14.4016 4.03333C13.4064 4.54618 12.5477 5.28862 11.8965 6.19922L11.7891 6.35547C11.7285 6.43873 11.685 6.53313 11.6611 6.63326C11.6372 6.73338 11.6332 6.83725 11.6496 6.93889C11.6659 7.04053 11.7022 7.13794 11.7563 7.22552C11.8104 7.3131 11.8813 7.38912 11.9648 7.44922ZM9.03516 11.5508C8.9513 11.4907 8.85639 11.4479 8.7559 11.4247C8.6554 11.4015 8.55131 11.3985 8.44963 11.4157C8.34795 11.433 8.25069 11.4702 8.16346 11.5252C8.07623 11.5802 8.00076 11.652 7.94141 11.7363L7.82422 11.8926C7.31888 12.6003 6.65233 13.1776 5.87968 13.5766C5.10703 13.9757 4.25048 14.1851 3.38086 14.1875H1.125C0.9178 14.1875 0.719086 14.2698 0.572573 14.4163C0.42606 14.5628 0.34375 14.7616 0.34375 14.9688C0.34375 15.176 0.42606 15.3747 0.572573 15.5212C0.719086 15.6677 0.9178 15.75 1.125 15.75H3.38086C4.50037 15.748 5.60331 15.4795 6.59844 14.9667C7.59357 14.4538 8.45228 13.7114 9.10351 12.8008L9.21094 12.6445C9.27148 12.5613 9.31497 12.4669 9.3389 12.3667C9.36284 12.2666 9.36676 12.1628 9.35042 12.0611C9.33409 11.9595 9.29782 11.8621 9.24372 11.7745C9.18962 11.6869 9.11874 11.6109 9.03516 11.5508Z" fill=""/>
</g></symbol><symbol id="boots-advantages" viewBox="0 0 20 18"><g fill="none">
<path d="M19.7153 12.2434C20.3367 10.1487 19.8254 7.77108 19.2821 6.12359C19.2785 6.05985 19.2602 5.99807 19.2288 5.94394C19.0442 5.40879 18.8737 4.96921 18.7281 4.65194C18.9961 4.53708 19.1729 4.25909 19.1755 3.94861V0.764494C19.1755 0.342255 18.8576 6.40283e-07 18.4654 6.40283e-07H9.74079C9.54469 -0.000381607 9.38543 0.170435 9.38508 0.381578C9.38508 0.389462 9.3853 0.397346 9.3857 0.405182C9.50643 2.69866 9.35019 4.25441 8.89923 5.35146C8.89026 5.36235 8.88196 5.37386 8.87437 5.38586C8.87304 5.40492 8.87304 5.42413 8.87437 5.44319C8.70224 5.84255 8.46943 6.20812 8.1855 6.52495L8.15354 6.54789C8.15354 6.54789 8.15354 6.54789 8.15354 6.57465C7.73724 7.00205 7.25711 7.35094 6.73318 7.60671C5.82033 8.04271 4.88351 8.41803 3.92796 8.73052L3.74687 8.7955C0.426774 9.98046 -0.00643601 12.1287 0.000665794 13.2066C-0.000221931 13.2219 -0.000221931 13.2372 0.000665794 13.2525V15.9817C0.00119843 16.1146 0.0656917 16.2376 0.171109 16.3066C0.984798 16.8396 1.86311 17.2486 2.78102 17.5222C2.9698 17.5793 3.1659 17.4609 3.21898 17.2577C3.22897 17.2194 3.23336 17.1797 3.23199 17.1399V17.052H3.75397V17.4343C3.75171 17.6236 3.87861 17.7862 4.05225 17.8165C4.36117 17.87 4.6701 17.9121 4.97193 17.9388C5.07082 17.9478 5.16869 17.9117 5.2418 17.8395C5.31486 17.7665 5.35609 17.6639 5.35543 17.5566V17.075H5.87741V17.6178C5.87741 17.8288 6.0364 18 6.2325 18C6.53077 18 6.82905 18 7.14863 17.9541C7.33359 17.9382 7.47589 17.7716 7.47531 17.5719V17.075H7.9973V17.4113C7.99477 17.6224 8.15167 17.7958 8.34777 17.7985C8.36832 17.7988 8.38887 17.7972 8.4092 17.7936C9.06102 17.6861 9.70351 17.5212 10.3302 17.3005L10.3871 17.2737C12.8727 15.7447 14.4493 17.0023 14.5132 17.0559C14.5752 17.1076 14.6513 17.1358 14.7298 17.1361H15.1701C15.3662 17.1361 15.5252 16.965 15.5252 16.7539V16.1079H16.033V16.7462C16.033 16.9573 16.192 17.1285 16.3881 17.1285H17.5315C17.7276 17.1285 17.8866 16.9573 17.8866 16.7462V16.1079H18.4121V16.7462C18.4121 16.9573 18.5711 17.1285 18.7672 17.1285H19.6443C19.8404 17.1285 19.9993 16.9573 19.9993 16.7462V12.6256C20.0028 12.4411 19.8833 12.2803 19.7153 12.2434ZM11.289 0.772139H18.4476V3.93714H11.289V0.772139ZM6.8255 8.39414L6.82905 8.41708C7.12014 8.67146 7.38876 8.95428 7.63155 9.26184C7.56715 9.37714 7.53395 9.50954 7.53568 9.64409C7.53324 10.0473 7.83493 10.3763 8.20946 10.3789C8.58404 10.3815 8.88964 10.0568 8.89208 9.6536C8.89439 9.27374 8.62572 8.95547 8.27427 8.92164C8.04967 8.592 7.79379 8.28835 7.51082 8.01572C7.82814 7.8213 8.12668 7.59338 8.4021 7.33532C8.74649 7.68311 9.06692 8.05743 9.36084 8.4553C9.23732 8.83597 9.42383 9.25233 9.77741 9.38535C10.131 9.51833 10.5178 9.31755 10.6414 8.93693C10.7649 8.55626 10.5784 8.1399 10.2248 8.00688C10.1515 7.97926 10.0742 7.96545 9.99646 7.96602H9.91123C9.59978 7.54393 9.2604 7.14663 8.89567 6.77724C9.06492 6.5529 9.21468 6.31238 9.34309 6.05861C9.89281 6.36665 10.4241 6.71135 10.9339 7.09068C10.9304 7.49811 11.2344 7.83143 11.6129 7.8352C11.9914 7.83897 12.301 7.51172 12.3045 7.1043C12.308 6.69687 12.004 6.36355 11.6255 6.35977C11.5174 6.35868 11.4106 6.38515 11.3138 6.43704C10.7773 6.046 10.2187 5.69113 9.64137 5.37439C10.0284 4.26587 10.1953 2.79422 10.1172 0.787429H10.5824V3.95243C10.5824 4.37467 10.9003 4.71693 11.2925 4.71693H17.9469C18.0392 4.91952 18.1955 5.27118 18.3659 5.72988H18.2203C16.0632 5.74665 14.3271 7.64269 14.3427 9.96484C14.3515 11.2844 14.9353 12.5229 15.9194 13.3098C13.0467 14.124 8.72523 15.0911 5.08911 14.8388C5.76023 11.9529 4.95773 10.1754 4.43574 9.39563C5.24859 9.10861 6.04634 8.77428 6.8255 8.39414ZM3.72201 9.61351C4.10551 10.099 5.10686 11.7312 4.37183 14.7318C3.09235 14.6235 1.84967 14.2193 0.728601 13.5468C0.715862 13.4595 0.707562 13.3714 0.703744 13.2831V13.2563C0.675337 12.4421 0.959409 10.68 3.72201 9.61351ZM19.1223 16.364V15.7256C19.1223 15.5145 18.9633 15.3434 18.7672 15.3434H17.535C17.3389 15.3434 17.1799 15.5145 17.1799 15.7256V16.364H16.7432V15.7256C16.7432 15.5145 16.5842 15.3434 16.3881 15.3434H15.163C14.9669 15.3434 14.8079 15.5145 14.8079 15.7256V16.3487C14.325 16.0238 12.5602 15.0796 10.0568 16.5857C9.61145 16.7439 9.1572 16.8716 8.69683 16.9679V16.7042C8.69683 16.4931 8.53783 16.3219 8.34173 16.3219H7.11667C6.92058 16.3219 6.76158 16.4931 6.76158 16.7042V17.2279H6.58049V16.6927C6.58049 16.4816 6.4215 16.3105 6.2254 16.3105H4.99323C4.79714 16.3105 4.63814 16.4816 4.63814 16.6927V17.1476L4.45705 17.1208V16.6927C4.45705 16.4816 4.29806 16.3105 4.10196 16.3105H2.86979C2.68919 16.3091 2.53637 16.4538 2.5147 16.6468C1.88446 16.4235 1.27757 16.1301 0.703744 15.7715V14.4031C2.25194 15.286 4.25465 15.6186 6.38519 15.6186C12.0453 15.6186 18.5222 13.2869 19.2856 13.0079L19.2892 16.364H19.1223ZM18.9483 12.3313C18.6465 12.4383 17.9043 12.7135 16.8781 13.0079C15.2894 12.1801 14.6248 10.1228 15.3937 8.41254C15.9197 7.24267 17.0132 6.49175 18.2203 6.47144C18.3603 6.46934 18.5003 6.47698 18.6394 6.49437L18.6429 6.50584C19.1649 8.12657 19.6336 10.4392 18.9483 12.3313Z" fill="#0266C1"/>
<path d="M12.6564 1.23469C12.0857 1.23469 11.6231 1.73271 11.6231 2.34703C11.625 2.96049 12.0865 3.45727 12.6564 3.45937C13.227 3.45937 13.6897 2.96135 13.6897 2.34703C13.6897 1.73271 13.2271 1.23469 12.6564 1.23469ZM12.6564 2.69487C12.4779 2.69487 12.3332 2.53916 12.3332 2.34703C12.3332 2.1549 12.4779 1.99918 12.6564 1.99918C12.8348 1.99918 12.9795 2.1549 12.9795 2.34703C12.9795 2.53916 12.8348 2.69487 12.6564 2.69487Z" fill="#0266C1"/>
</g></symbol><symbol id="boots-education" viewBox="0 0 24 24"><g fill="">
<path d="M23.6583 15.6155C24.404 13.2805 23.7904 10.6301 23.1385 8.79354C23.1342 8.72248 23.1123 8.65361 23.0746 8.59327C22.853 7.99671 22.6484 7.50669 22.4737 7.15302C22.7953 7.02497 23.0075 6.71509 23.0106 6.36898V2.8195C23.0106 2.34881 22.6291 1.96729 22.1584 1.96729H11.6889C11.4536 1.96686 11.2625 2.15728 11.2621 2.39265C11.2621 2.40144 11.2624 2.41023 11.2628 2.41896C11.4077 4.97561 11.2202 6.70987 10.6791 7.9328C10.6683 7.94494 10.6583 7.95778 10.6492 7.97115C10.6476 7.9924 10.6476 8.01381 10.6492 8.03506C10.4427 8.48024 10.1633 8.88776 9.82259 9.24095L9.78424 9.26652C9.78424 9.26652 9.78424 9.26652 9.78424 9.29634C9.28468 9.77279 8.70853 10.1617 8.07981 10.4468C6.98439 10.9329 5.86021 11.3512 4.71355 11.6996L4.49624 11.772C0.512129 13.093 -0.00772321 15.4877 0.000798953 16.6893C-0.000266318 16.7064 -0.000266318 16.7234 0.000798953 16.7404V19.7829C0.00143811 19.9309 0.07883 20.068 0.205331 20.1451C1.18176 20.7392 2.23574 21.1951 3.33722 21.5001C3.56375 21.5638 3.79907 21.4318 3.86278 21.2052C3.87476 21.1625 3.88003 21.1182 3.87838 21.074V20.976H4.50476V21.4021C4.50204 21.6132 4.65433 21.7944 4.86269 21.8282C5.23341 21.8878 5.60412 21.9347 5.96631 21.9645C6.08498 21.9745 6.20243 21.9343 6.29015 21.8537C6.37783 21.7724 6.42731 21.658 6.42651 21.5384V21.0015H7.05289V21.6066C7.05289 21.8419 7.24368 22.0327 7.479 22.0327C7.83693 22.0327 8.19486 22.0327 8.57835 21.9816C8.8003 21.9638 8.97107 21.7781 8.97037 21.5555V21.0015H9.59675V21.3765C9.59372 21.6118 9.782 21.8051 10.0173 21.8081C10.042 21.8084 10.0666 21.8066 10.091 21.8026C10.8732 21.6828 11.6442 21.499 12.3963 21.2529L12.4645 21.2231C15.4472 19.5187 17.3391 20.9206 17.4158 20.9802C17.4902 21.038 17.5816 21.0694 17.6758 21.0697H18.2041C18.4395 21.0697 18.6302 20.8789 18.6302 20.6436V19.9235H19.2396V20.6351C19.2396 20.8704 19.4304 21.0612 19.6657 21.0612H21.0378C21.2731 21.0612 21.4639 20.8704 21.4639 20.6351V19.9235H22.0945V20.6351C22.0945 20.8704 22.2853 21.0612 22.5206 21.0612H23.5731C23.8084 21.0612 23.9992 20.8704 23.9992 20.6351V16.0416C24.0034 15.8359 23.8599 15.6566 23.6583 15.6155ZM13.5468 2.82802H13.8962H22.1371V6.3562H13.5468V2.82802ZM8.1906 11.3246L8.19486 11.3502C8.54416 11.6338 8.86651 11.949 9.15786 12.2919C9.08058 12.4204 9.04073 12.568 9.04281 12.718C9.03988 13.1675 9.40191 13.5342 9.85135 13.5371C10.3008 13.5401 10.6676 13.178 10.6705 12.7286C10.6733 12.3051 10.3509 11.9504 9.92912 11.9126C9.6596 11.5452 9.35254 11.2067 9.01298 10.9028C9.39377 10.686 9.75202 10.432 10.0825 10.1443C10.4958 10.532 10.8803 10.9493 11.233 11.3928C11.0848 11.8171 11.3086 12.2813 11.7329 12.4296C12.1572 12.5778 12.6214 12.354 12.7697 11.9297C12.9179 11.5053 12.6941 11.0412 12.2698 10.8929C12.1817 10.8621 12.0891 10.8467 11.9957 10.8474H11.8935C11.5197 10.3768 11.1125 9.93396 10.6748 9.52218C10.8779 9.27211 11.0576 9.00398 11.2117 8.7211C11.8714 9.06449 12.5089 9.44873 13.1207 9.87159C13.1165 10.3258 13.4813 10.6973 13.9354 10.7015C14.3896 10.7057 14.7612 10.3409 14.7654 9.88677C14.7696 9.43259 14.4048 9.06102 13.9506 9.05682C13.8209 9.05559 13.6927 9.0851 13.5766 9.14294C12.9327 8.70704 12.2624 8.31145 11.5696 7.95836C12.0341 6.72265 12.2344 5.08214 12.1406 2.84507H12.6988V6.37324C12.6988 6.84393 13.0803 7.22546 13.551 7.22546H21.5363C21.6471 7.4513 21.8346 7.84331 22.0391 8.35464H21.8644C19.2758 8.37334 17.1925 10.4869 17.2112 13.0755C17.2218 14.5465 17.9224 15.9272 19.1032 16.8044C15.656 17.712 10.4703 18.79 6.10693 18.5088C6.91227 15.2917 5.94927 13.3103 5.32289 12.441C6.2983 12.1211 7.25561 11.7484 8.1906 11.3246ZM4.46641 12.6839C4.92661 13.2251 6.12823 15.0445 5.24619 18.3895C3.71082 18.2688 2.2196 17.8182 0.874321 17.0686C0.859034 16.9712 0.849074 16.873 0.844493 16.7745V16.7447C0.810404 15.8371 1.15129 13.8727 4.46641 12.6839ZM22.9467 20.209V19.4974C22.9467 19.262 22.7559 19.0713 22.5206 19.0713H21.042C20.8067 19.0713 20.6159 19.262 20.6159 19.4974V20.209H20.0918V19.4974C20.0918 19.262 19.901 19.0713 19.6657 19.0713H18.1956C17.9603 19.0713 17.7695 19.262 17.7695 19.4974V20.1919C17.19 19.8297 15.0722 18.7772 12.0682 20.4561C11.5337 20.6325 10.9886 20.7748 10.4362 20.8822V20.5882C10.4362 20.3529 10.2454 20.1621 10.0101 20.1621H8.54C8.30469 20.1621 8.1139 20.3529 8.1139 20.5882V21.172H7.89658V20.5754C7.89658 20.3401 7.70579 20.1493 7.47047 20.1493H5.99188C5.75656 20.1493 5.56577 20.3401 5.56577 20.5754V21.0825L5.34845 21.0527V20.5754C5.34845 20.3401 5.15767 20.1493 4.92235 20.1493H3.44375C3.22702 20.1478 3.04364 20.3091 3.01764 20.5243C2.26136 20.2753 1.53308 19.9482 0.844493 19.5485V18.023C2.70232 19.0073 5.10557 19.3781 7.66222 19.3781C14.4544 19.3781 22.2266 16.7788 23.1427 16.4677L23.147 20.209H22.9467ZM22.7379 15.7135C22.3757 15.8328 21.4852 16.1396 20.2537 16.4677C18.3473 15.5451 17.5497 13.2516 18.4724 11.3451C19.1036 10.041 20.4158 9.20393 21.8644 9.18129C22.0324 9.17895 22.2003 9.18747 22.3672 9.20686L22.3715 9.21964C22.9979 11.0263 23.5603 13.6043 22.7379 15.7135Z" fill="#2D383F"/>
<path d="M15.1872 3.34375C14.5024 3.34375 13.9473 3.89892 13.9473 4.58372C13.9496 5.26757 14.5034 5.82135 15.1872 5.8237C15.872 5.8237 16.4272 5.26853 16.4272 4.58372C16.4272 3.89892 15.8721 3.34375 15.1872 3.34375ZM15.1872 4.97148C14.9731 4.97148 14.7995 4.7979 14.7995 4.58372C14.7995 4.36955 14.9731 4.19597 15.1872 4.19597C15.4014 4.19597 15.575 4.36955 15.575 4.58372C15.575 4.7979 15.4014 4.97148 15.1872 4.97148Z" fill="#2D383F"/>
</g></symbol><symbol id="crown" viewBox="0 0 22 21"><g fill="none">
<path d="M17.6867 20H4.31331M21 7.11028L18.0746 16.8049H3.92539L1 7.11028L6.77168 10.6142L11 2L15.2283 10.6142L21 7.11028Z" stroke="#0266C1"/>
</g></symbol><symbol id="leaf" viewBox="0 0 22 16"><g fill="none">
<path d="M10.6903 13.2442C10.0125 10.3813 8.01953 7.97182 5.27543 6.69773C3.92399 6.07026 2.46282 5.75181 1 5.74238C1.08555 7.77102 1.83429 9.74572 3.17529 11.367C5.06036 13.646 7.9121 14.9803 10.933 14.9998C10.9083 14.4135 10.828 13.8259 10.6903 13.2442ZM10.6903 13.2442C10.1339 10.894 8.69109 8.84935 6.67408 7.48755C6.70814 7.28448 6.74903 7.08183 6.79684 6.87988C7.37026 4.4577 8.88519 2.36004 11 1C13.1147 2.36004 14.6297 4.4577 15.2031 6.87988C15.2509 7.08182 15.2918 7.28447 15.3258 7.48752C13.3088 8.84932 11.8661 10.894 11.3097 13.2442M10.6903 13.2442C10.8279 13.8257 10.9082 14.4131 10.933 14.9992C10.9748 14.9997 11.0166 15 11.0585 15C11.9054 15 12.7394 14.8966 13.5431 14.698C13.5477 14.692 13.5522 14.6859 13.5567 14.6799C12.752 14.8849 11.9162 14.9943 11.067 14.9998M11.3097 13.2442C11.9875 10.3813 13.9805 7.97182 16.7246 6.69773C18.076 6.07026 19.5372 5.75181 21 5.74238C20.9144 7.77102 20.1657 9.74572 18.8247 11.367C16.9396 13.646 14.0879 14.9803 11.067 14.9998M11.3097 13.2442C11.172 13.8259 11.0917 14.4135 11.067 14.9998" stroke="#0266C1" stroke-linecap="round" stroke-linejoin="round"/>
</g></symbol><symbol id="level" viewBox="0 0 20 22"><g fill="">
<path d="M19 21H15.4V1H19V21Z" stroke="" stroke-miterlimit="16" stroke-linecap="round"/>
<path d="M11.8 21V6.45455H8.2L8.2 21H11.8Z" stroke="" stroke-miterlimit="16" stroke-linecap="round"/>
<path d="M4.6 21V11.9091H1V21H4.6Z" stroke="" stroke-miterlimit="16" stroke-linecap="round"/>
</g></symbol><symbol id="like" viewBox="0 0 15 13"><g fill="">
<path d="M14.3232 2.70821C14.1007 2.19296 13.7799 1.72605 13.3786 1.33361C12.9771 0.939992 12.5036 0.627194 11.9841 0.412219C11.4453 0.188418 10.8675 0.0738642 10.2841 0.075207C9.46562 0.075207 8.66709 0.299328 7.97314 0.722668C7.80713 0.823937 7.64941 0.935168 7.5 1.05636C7.35059 0.935168 7.19287 0.823937 7.02686 0.722668C6.33291 0.299328 5.53437 0.075207 4.71592 0.075207C4.12656 0.075207 3.55547 0.188098 3.01592 0.412219C2.49463 0.628039 2.0248 0.938488 1.62139 1.33361C1.21962 1.72561 0.898684 2.19263 0.676758 2.70821C0.445996 3.24445 0.328125 3.81388 0.328125 4.39991C0.328125 4.95275 0.441016 5.52882 0.665137 6.11486C0.852734 6.6046 1.12168 7.11261 1.46533 7.6256C2.00986 8.43741 2.75859 9.28409 3.68828 10.1424C5.22891 11.5651 6.75459 12.548 6.81934 12.5878L7.21279 12.8401C7.38711 12.9514 7.61123 12.9514 7.78555 12.8401L8.179 12.5878C8.24375 12.5463 9.76777 11.5651 11.3101 10.1424C12.2397 9.28409 12.9885 8.43741 13.533 7.6256C13.8767 7.11261 14.1473 6.6046 14.3332 6.11486C14.5573 5.52882 14.6702 4.95275 14.6702 4.39991C14.6719 3.81388 14.554 3.24445 14.3232 2.70821ZM7.5 11.527C7.5 11.527 1.58984 7.74015 1.58984 4.39991C1.58984 2.70821 2.98936 1.33693 4.71592 1.33693C5.92949 1.33693 6.98203 2.01427 7.5 3.00372C8.01797 2.01427 9.07051 1.33693 10.2841 1.33693C12.0106 1.33693 13.4102 2.70821 13.4102 4.39991C13.4102 7.74015 7.5 11.527 7.5 11.527Z" fill=""/>
</g></symbol><symbol id="logo-footer" viewBox="0 0 205 60"><g fill="">
<path d="M22.7109 38.9207L28.1507 33.37L34.3385 38.9207H44.9461L28.0827 22.8634L11.3553 38.9207H22.7109Z" fill=""/>
<path d="M38.2827 13.1498L30.259 21.0793L35.5628 26.3656L38.2827 23.7225L53.1742 38.1278C49.7743 46.9163 41.0706 53.1938 30.8029 53.1938C17.6114 53.1938 6.93576 42.8194 6.93576 30C7.00376 17.1806 17.6794 6.80617 30.8709 6.80617C42.5665 6.80617 52.3582 15.0661 54.3301 25.837L61.5379 33.2379C61.6739 32.1806 61.7419 31.0573 61.7419 30C61.7419 22.0044 58.546 14.4714 52.6982 8.78855C46.8504 3.10573 39.0987 0 30.8709 0C22.5752 0 14.8915 3.10573 9.04369 8.78855C3.19589 14.4714 0 21.9383 0 30C0 38.0617 3.19589 45.5286 9.04369 51.2115C14.8915 56.8943 22.6432 60 30.8709 60C39.0987 60 46.8504 56.8943 52.6982 51.2115C56.3021 47.7092 58.886 43.5463 60.3139 38.9868C60.5859 38.1938 60.7899 37.3348 60.9939 36.5418L54.7381 30.1322L38.2827 13.1498Z" fill=""/>
<path d="M87.2138 19.2778H91.7535L89.2773 31.3763H96.9351L96.2015 34.8744H84.0039L87.2138 19.2778Z" fill=""/>
<path d="M101.208 19.2778H105.747L102.538 34.8744H97.9979L101.208 19.2778Z" fill=""/>
<path d="M112.806 22.6868L112.095 26.1181H119.18L118.469 29.527H111.408L110.307 34.8744H105.767L108.977 19.2778H121.542L120.831 22.6868H112.806Z" fill=""/>
<path d="M127.448 22.6868L126.921 25.3159H134.051L133.386 28.6135H126.233L125.659 31.4655H134.074L133.34 34.8744H120.478L123.688 19.2778H136.252L135.541 22.6868H127.448Z" fill=""/>
<path d="M141.775 22.7759H136.845L137.579 19.2778H151.955L151.221 22.7759H146.315L143.815 34.8744H139.276L141.775 22.7759Z" fill=""/>
<path d="M158.879 35.1864C157.259 35.1864 155.845 34.8967 154.637 34.3174C153.445 33.7381 152.52 32.9286 151.863 31.8888C151.221 30.849 150.9 29.6607 150.9 28.3239C150.9 26.5414 151.32 24.9372 152.161 23.5112C153.017 22.0852 154.202 20.9712 155.715 20.1691C157.243 19.3669 158.978 18.9659 160.919 18.9659C162.54 18.9659 163.946 19.2555 165.138 19.8348C166.346 20.4141 167.27 21.2237 167.912 22.2635C168.57 23.3032 168.898 24.4915 168.898 25.8284C168.898 27.6109 168.47 29.2151 167.614 30.6411C166.774 32.0671 165.589 33.1811 164.061 33.9832C162.547 34.7853 160.82 35.1864 158.879 35.1864ZM159.269 31.5323C160.278 31.5323 161.164 31.2872 161.928 30.797C162.693 30.3069 163.281 29.6533 163.694 28.8363C164.106 28.0045 164.313 27.091 164.313 26.0958C164.313 25.0411 163.977 24.2019 163.304 23.578C162.647 22.9393 161.722 22.62 160.53 22.62C159.521 22.62 158.634 22.865 157.87 23.3552C157.106 23.8454 156.517 24.5064 156.105 25.3382C155.692 26.1552 155.486 27.0613 155.486 28.0565C155.486 29.1111 155.814 29.9578 156.472 30.5965C157.144 31.2204 158.076 31.5323 159.269 31.5323Z" fill=""/>
<path d="M177.421 35.1864C176.03 35.1864 174.83 34.9636 173.821 34.518C172.812 34.0575 172.04 33.4039 171.505 32.5572C170.97 31.7106 170.703 30.7153 170.703 29.5716C170.703 29.0963 170.764 28.5467 170.886 27.9228L172.675 19.2778H177.214L175.449 27.856C175.357 28.3016 175.311 28.7101 175.311 29.0814C175.311 30.7153 176.198 31.5323 177.971 31.5323C178.934 31.5323 179.69 31.2501 180.241 30.6856C180.806 30.1063 181.227 29.1631 181.502 27.856L183.267 19.2778H187.738L185.927 28.1233C184.949 32.832 182.113 35.1864 177.421 35.1864Z" fill=""/>
<path d="M204.157 24.2465C204.157 25.6724 203.768 26.9053 202.988 27.9451C202.209 28.97 201.116 29.7201 199.709 30.1955L202.438 34.8744H197.692L195.307 30.7302H193.015L192.166 34.8744H187.627L190.836 19.2778H197.692C199.74 19.2778 201.33 19.716 202.461 20.5924C203.592 21.4688 204.157 22.6868 204.157 24.2465ZM199.572 24.6698C199.572 24.0311 199.35 23.5558 198.907 23.2438C198.464 22.917 197.845 22.7536 197.05 22.7536H194.665L193.702 27.3212H196.408C197.417 27.3212 198.196 27.091 198.746 26.6305C199.297 26.17 199.572 25.5165 199.572 24.6698Z" fill=""/>
<path d="M87.0264 49.5804C86.4734 49.5804 85.971 49.4616 85.5191 49.2239C85.0725 48.9811 84.7216 48.6504 84.4664 48.2319C84.2166 47.8134 84.0916 47.3433 84.0916 46.8214C84.0916 46.2996 84.2166 45.8294 84.4664 45.411C84.7216 44.9925 85.0725 44.6644 85.5191 44.4267C85.971 44.1839 86.4734 44.0625 87.0264 44.0625C87.5793 44.0625 88.0764 44.1813 88.5177 44.419C88.9643 44.6566 89.3152 44.9873 89.5704 45.411C89.8255 45.8294 89.9531 46.2996 89.9531 46.8214C89.9531 47.3433 89.8255 47.816 89.5704 48.2397C89.3152 48.6582 88.9643 48.9862 88.5177 49.2239C88.0764 49.4616 87.5793 49.5804 87.0264 49.5804ZM87.0264 49.0689C87.4676 49.0689 87.8664 48.9733 88.2226 48.7822C88.5788 48.5858 88.8579 48.3172 89.06 47.9762C89.262 47.63 89.363 47.2451 89.363 46.8214C89.363 46.3978 89.262 46.0154 89.06 45.6744C88.8579 45.3283 88.5788 45.0596 88.2226 44.8685C87.8664 44.6721 87.4676 44.574 87.0264 44.574C86.5851 44.574 86.1837 44.6721 85.8222 44.8685C85.466 45.0596 85.1842 45.3283 84.9768 45.6744C84.7748 46.0154 84.6738 46.3978 84.6738 46.8214C84.6738 47.2451 84.7748 47.63 84.9768 47.9762C85.1842 48.3172 85.466 48.5858 85.8222 48.7822C86.1837 48.9733 86.5851 49.0689 87.0264 49.0689Z" fill=""/>
<path d="M93.387 45.4265C93.7804 45.4265 94.1367 45.5143 94.4556 45.69C94.7746 45.8604 95.0245 46.1033 95.2053 46.4184C95.386 46.7336 95.4764 47.0927 95.4764 47.4957C95.4764 47.9038 95.386 48.2655 95.2053 48.5807C95.0245 48.8958 94.7746 49.1412 94.4556 49.3169C94.142 49.4874 93.7858 49.5726 93.387 49.5726C93.0467 49.5726 92.7384 49.5055 92.4619 49.3711C92.1908 49.2316 91.9675 49.0301 91.792 48.7667V51.0374H91.2258V45.4575H91.7681V46.2634C91.9382 45.9948 92.1615 45.7881 92.438 45.6435C92.7198 45.4988 93.0361 45.4265 93.387 45.4265ZM93.3471 49.0844C93.6395 49.0844 93.9054 49.0198 94.1446 48.8906C94.3839 48.7563 94.5699 48.5677 94.7029 48.3249C94.8411 48.0821 94.9102 47.8057 94.9102 47.4957C94.9102 47.1857 94.8411 46.9118 94.7029 46.6742C94.5699 46.4314 94.3839 46.2428 94.1446 46.1084C93.9054 45.9741 93.6395 45.9069 93.3471 45.9069C93.0494 45.9069 92.7809 45.9741 92.5417 46.1084C92.3077 46.2428 92.1217 46.4314 91.9834 46.6742C91.8505 46.9118 91.7841 47.1857 91.7841 47.4957C91.7841 47.8057 91.8505 48.0821 91.9834 48.3249C92.1217 48.5677 92.3077 48.7563 92.5417 48.8906C92.7809 49.0198 93.0494 49.0844 93.3471 49.0844Z" fill=""/>
<path d="M99.6596 45.9457H97.2592V49.5339H96.693V45.4575H99.6596V45.9457Z" fill=""/>
<path d="M101.921 45.4265C102.469 45.4265 102.889 45.5608 103.181 45.8294C103.474 46.0929 103.62 46.4856 103.62 47.0074V49.5339H103.078V48.8984C102.95 49.1102 102.761 49.2756 102.512 49.3944C102.267 49.5132 101.975 49.5726 101.634 49.5726C101.166 49.5726 100.794 49.4641 100.518 49.2471C100.241 49.0301 100.103 48.7434 100.103 48.3869C100.103 48.0407 100.231 47.7618 100.486 47.5499C100.746 47.3381 101.158 47.2322 101.722 47.2322H103.054V46.9842C103.054 46.6329 102.953 46.3668 102.751 46.1859C102.549 45.9999 102.254 45.9069 101.866 45.9069C101.6 45.9069 101.345 45.9509 101.1 46.0387C100.855 46.1214 100.645 46.2376 100.47 46.3874L100.215 45.9767C100.427 45.801 100.683 45.6667 100.98 45.5737C101.278 45.4755 101.592 45.4265 101.921 45.4265ZM101.722 49.1386C102.041 49.1386 102.315 49.0689 102.543 48.9294C102.772 48.7847 102.942 48.5781 103.054 48.3094V47.6429H101.738C101.02 47.6429 100.661 47.8857 100.661 48.3714C100.661 48.6091 100.754 48.7976 100.94 48.9371C101.127 49.0715 101.387 49.1386 101.722 49.1386Z" fill=""/>
<path d="M105.127 45.4575H105.694V47.2632H108.333V45.4575H108.899V49.5339H108.333V47.7359H105.694V49.5339H105.127V45.4575Z" fill=""/>
<path d="M110.509 45.4575H111.075V48.6969L113.874 45.4575H114.377V49.5339H113.81V46.2944L111.019 49.5339H110.509V45.4575Z" fill=""/>
<path d="M117.955 47.4104C118.253 47.4776 118.482 47.5938 118.641 47.7592C118.806 47.9245 118.888 48.126 118.888 48.3637C118.888 48.6013 118.803 48.8131 118.633 48.9991C118.468 49.1851 118.242 49.3298 117.955 49.4331C117.668 49.5313 117.352 49.5804 117.006 49.5804C116.703 49.5804 116.405 49.5391 116.113 49.4564C115.821 49.3686 115.565 49.242 115.347 49.0766L115.539 48.6659C115.73 48.8054 115.954 48.9139 116.209 48.9914C116.464 49.0689 116.722 49.1076 116.982 49.1076C117.37 49.1076 117.687 49.0379 117.931 48.8984C118.181 48.7537 118.306 48.56 118.306 48.3172C118.306 48.1002 118.205 47.9322 118.003 47.8134C117.801 47.6894 117.525 47.6274 117.174 47.6274H116.456V47.2244H117.142C117.455 47.2244 117.708 47.1676 117.899 47.0539C118.091 46.9351 118.186 46.7775 118.186 46.5812C118.186 46.3642 118.077 46.1937 117.86 46.0697C117.647 45.9457 117.368 45.8837 117.022 45.8837C116.57 45.8837 116.124 45.9948 115.682 46.2169L115.523 45.7907C116.023 45.5375 116.541 45.411 117.078 45.411C117.397 45.411 117.684 45.4575 117.939 45.5505C118.2 45.6383 118.402 45.7649 118.545 45.9302C118.694 46.0955 118.769 46.2867 118.769 46.5037C118.769 46.7104 118.694 46.8938 118.545 47.0539C118.402 47.2141 118.205 47.3329 117.955 47.4104Z" fill=""/>
<path d="M121.617 45.4265C122.165 45.4265 122.585 45.5608 122.877 45.8294C123.17 46.0929 123.316 46.4856 123.316 47.0074V49.5339H122.773V48.8984C122.646 49.1102 122.457 49.2756 122.207 49.3944C121.963 49.5132 121.67 49.5726 121.33 49.5726C120.862 49.5726 120.49 49.4641 120.214 49.2471C119.937 49.0301 119.799 48.7434 119.799 48.3869C119.799 48.0407 119.926 47.7618 120.182 47.5499C120.442 47.3381 120.854 47.2322 121.418 47.2322H122.75V46.9842C122.75 46.6329 122.649 46.3668 122.446 46.1859C122.244 45.9999 121.949 45.9069 121.561 45.9069C121.295 45.9069 121.04 45.9509 120.796 46.0387C120.551 46.1214 120.341 46.2376 120.166 46.3874L119.91 45.9767C120.123 45.801 120.378 45.6667 120.676 45.5737C120.974 45.4755 121.287 45.4265 121.617 45.4265ZM121.418 49.1386C121.737 49.1386 122.011 49.0689 122.239 48.9294C122.468 48.7847 122.638 48.5781 122.75 48.3094V47.6429H121.434C120.716 47.6429 120.357 47.8857 120.357 48.3714C120.357 48.6091 120.45 48.7976 120.636 48.9371C120.822 49.0715 121.083 49.1386 121.418 49.1386Z" fill=""/>
<path d="M129.193 49.0534V50.5569H128.659V49.5339H124.823V45.4575H125.389V49.0534H127.949V45.4575H128.515V49.0534H129.193Z" fill=""/>
<path d="M130.275 45.4575H130.841V48.6969L133.64 45.4575H134.142V49.5339H133.576V46.2944L130.785 49.5339H130.275V45.4575Z" fill=""/>
<path d="M138.987 45.4575V49.5339H138.469V48.1854H136.993L136.02 49.5339H135.406L136.451 48.1079C136.127 48.0201 135.877 47.8702 135.701 47.6584C135.526 47.4466 135.438 47.1779 135.438 46.8524C135.438 46.3978 135.598 46.0516 135.917 45.8139C136.236 45.5763 136.672 45.4575 137.225 45.4575H138.987ZM136.012 46.8679C136.012 47.4724 136.408 47.7747 137.201 47.7747H138.469V45.9457H137.24C136.422 45.9457 136.012 46.2531 136.012 46.8679Z" fill=""/>
<path d="M146.453 45.4575V49.5339H145.887V45.9457H143.255V49.5339H142.689V45.4575H146.453Z" fill=""/>
<path d="M149.793 49.5726C149.389 49.5726 149.025 49.4848 148.7 49.3091C148.376 49.1283 148.121 48.8803 147.935 48.5652C147.749 48.25 147.656 47.8935 147.656 47.4957C147.656 47.0978 147.749 46.7414 147.935 46.4262C148.121 46.111 148.376 45.8656 148.7 45.69C149.025 45.5143 149.389 45.4265 149.793 45.4265C150.197 45.4265 150.561 45.5143 150.885 45.69C151.21 45.8656 151.462 46.111 151.643 46.4262C151.829 46.7414 151.922 47.0978 151.922 47.4957C151.922 47.8935 151.829 48.25 151.643 48.5652C151.462 48.8803 151.21 49.1283 150.885 49.3091C150.561 49.4848 150.197 49.5726 149.793 49.5726ZM149.793 49.0844C150.091 49.0844 150.356 49.0198 150.59 48.8906C150.83 48.7563 151.016 48.5677 151.149 48.3249C151.282 48.0821 151.348 47.8057 151.348 47.4957C151.348 47.1857 151.282 46.9093 151.149 46.6664C151.016 46.4236 150.83 46.2376 150.59 46.1084C150.356 45.9741 150.091 45.9069 149.793 45.9069C149.495 45.9069 149.227 45.9741 148.987 46.1084C148.753 46.2376 148.567 46.4236 148.429 46.6664C148.296 46.9093 148.23 47.1857 148.23 47.4957C148.23 47.8057 148.296 48.0821 148.429 48.3249C148.567 48.5677 148.753 48.7563 148.987 48.8906C149.227 49.0198 149.495 49.0844 149.793 49.0844Z" fill=""/>
<path d="M155.608 49.5339L154.276 47.8289L152.936 49.5339H152.298L153.957 47.4414L152.378 45.4575H153.016L154.276 47.0539L155.536 45.4575H156.158L154.579 47.4414L156.254 49.5339H155.608Z" fill=""/>
<path d="M158.765 49.5726C158.361 49.5726 157.996 49.4848 157.672 49.3091C157.348 49.1283 157.093 48.8803 156.906 48.5652C156.72 48.25 156.627 47.8935 156.627 47.4957C156.627 47.0978 156.72 46.7414 156.906 46.4262C157.093 46.111 157.348 45.8656 157.672 45.69C157.996 45.5143 158.361 45.4265 158.765 45.4265C159.169 45.4265 159.533 45.5143 159.857 45.69C160.181 45.8656 160.434 46.111 160.615 46.4262C160.801 46.7414 160.894 47.0978 160.894 47.4957C160.894 47.8935 160.801 48.25 160.615 48.5652C160.434 48.8803 160.181 49.1283 159.857 49.3091C159.533 49.4848 159.169 49.5726 158.765 49.5726ZM158.765 49.0844C159.062 49.0844 159.328 49.0198 159.562 48.8906C159.801 48.7563 159.987 48.5677 160.12 48.3249C160.253 48.0821 160.32 47.8057 160.32 47.4957C160.32 47.1857 160.253 46.9093 160.12 46.6664C159.987 46.4236 159.801 46.2376 159.562 46.1084C159.328 45.9741 159.062 45.9069 158.765 45.9069C158.467 45.9069 158.198 45.9741 157.959 46.1084C157.725 46.2376 157.539 46.4236 157.401 46.6664C157.268 46.9093 157.202 47.1857 157.202 47.4957C157.202 47.8057 157.268 48.0821 157.401 48.3249C157.539 48.5677 157.725 48.7563 157.959 48.8906C158.198 49.0198 158.467 49.0844 158.765 49.0844Z" fill=""/>
<path d="M166.172 49.0534V50.5181H165.637V49.5339H161.881V50.5181H161.347V49.0534H161.586C161.868 49.0379 162.059 48.8364 162.16 48.4489C162.261 48.0614 162.331 47.5189 162.368 46.8214L162.424 45.4575H165.518V49.0534H166.172ZM162.886 46.8524C162.86 47.4311 162.809 47.909 162.735 48.2862C162.66 48.6582 162.527 48.9139 162.336 49.0534H164.952V45.9457H162.934L162.886 46.8524Z" fill=""/>
<path d="M169.006 49.5726C168.602 49.5726 168.238 49.4848 167.913 49.3091C167.589 49.1283 167.334 48.8803 167.148 48.5652C166.962 48.25 166.868 47.8935 166.868 47.4957C166.868 47.0978 166.962 46.7414 167.148 46.4262C167.334 46.111 167.589 45.8656 167.913 45.69C168.238 45.5143 168.602 45.4265 169.006 45.4265C169.41 45.4265 169.774 45.5143 170.098 45.69C170.423 45.8656 170.675 46.111 170.856 46.4262C171.042 46.7414 171.135 47.0978 171.135 47.4957C171.135 47.8935 171.042 48.25 170.856 48.5652C170.675 48.8803 170.423 49.1283 170.098 49.3091C169.774 49.4848 169.41 49.5726 169.006 49.5726ZM169.006 49.0844C169.303 49.0844 169.569 49.0198 169.803 48.8906C170.042 48.7563 170.229 48.5677 170.361 48.3249C170.494 48.0821 170.561 47.8057 170.561 47.4957C170.561 47.1857 170.494 46.9093 170.361 46.6664C170.229 46.4236 170.042 46.2376 169.803 46.1084C169.569 45.9741 169.303 45.9069 169.006 45.9069C168.708 45.9069 168.44 45.9741 168.2 46.1084C167.966 46.2376 167.78 46.4236 167.642 46.6664C167.509 46.9093 167.443 47.1857 167.443 47.4957C167.443 47.8057 167.509 48.0821 167.642 48.3249C167.78 48.5677 167.966 48.7563 168.2 48.8906C168.44 49.0198 168.708 49.0844 169.006 49.0844Z" fill=""/>
<path d="M175.017 47.4259C175.586 47.5551 175.87 47.8883 175.87 48.4257C175.87 48.7822 175.734 49.056 175.463 49.2471C175.192 49.4383 174.788 49.5339 174.251 49.5339H172.345V45.4575H174.195C174.674 45.4575 175.049 45.5479 175.32 45.7287C175.591 45.9095 175.727 46.1679 175.727 46.5037C175.727 46.7259 175.663 46.917 175.535 47.0772C175.413 47.2322 175.24 47.3484 175.017 47.4259ZM172.895 47.2709H174.155C174.48 47.2709 174.727 47.2115 174.897 47.0927C175.073 46.9738 175.16 46.8008 175.16 46.5734C175.16 46.3461 175.073 46.1756 174.897 46.0619C174.727 45.9483 174.48 45.8914 174.155 45.8914H172.895V47.2709ZM174.227 49.0999C174.589 49.0999 174.86 49.0431 175.041 48.9294C175.221 48.8157 175.312 48.6375 175.312 48.3947C175.312 48.1518 175.229 47.9736 175.065 47.8599C174.9 47.7411 174.639 47.6817 174.283 47.6817H172.895V49.0999H174.227Z" fill=""/>
<path d="M181.956 47.4259C182.525 47.5551 182.809 47.8883 182.809 48.4257C182.809 48.7822 182.674 49.056 182.402 49.2471C182.131 49.4383 181.727 49.5339 181.19 49.5339H179.284V45.4575H181.134C181.613 45.4575 181.988 45.5479 182.259 45.7287C182.53 45.9095 182.666 46.1679 182.666 46.5037C182.666 46.7259 182.602 46.917 182.474 47.0772C182.352 47.2322 182.179 47.3484 181.956 47.4259ZM179.835 47.2709H181.095C181.419 47.2709 181.666 47.2115 181.836 47.0927C182.012 46.9738 182.099 46.8008 182.099 46.5734C182.099 46.3461 182.012 46.1756 181.836 46.0619C181.666 45.9483 181.419 45.8914 181.095 45.8914H179.835V47.2709ZM181.166 49.0999C181.528 49.0999 181.799 49.0431 181.98 48.9294C182.16 48.8157 182.251 48.6375 182.251 48.3947C182.251 48.1518 182.168 47.9736 182.004 47.8599C181.839 47.7411 181.578 47.6817 181.222 47.6817H179.835V49.0999H181.166Z" fill=""/>
<path d="M189.19 45.9457H186.79V49.5339H186.223V45.4575H189.19V45.9457Z" fill=""/>
<path d="M191.544 49.5726C191.14 49.5726 190.776 49.4848 190.452 49.3091C190.127 49.1283 189.872 48.8803 189.686 48.5652C189.5 48.25 189.407 47.8935 189.407 47.4957C189.407 47.0978 189.5 46.7414 189.686 46.4262C189.872 46.111 190.127 45.8656 190.452 45.69C190.776 45.5143 191.14 45.4265 191.544 45.4265C191.948 45.4265 192.312 45.5143 192.637 45.69C192.961 45.8656 193.213 46.111 193.394 46.4262C193.58 46.7414 193.673 47.0978 193.673 47.4957C193.673 47.8935 193.58 48.25 193.394 48.5652C193.213 48.8803 192.961 49.1283 192.637 49.3091C192.312 49.4848 191.948 49.5726 191.544 49.5726ZM191.544 49.0844C191.842 49.0844 192.108 49.0198 192.342 48.8906C192.581 48.7563 192.767 48.5677 192.9 48.3249C193.033 48.0821 193.099 47.8057 193.099 47.4957C193.099 47.1857 193.033 46.9093 192.9 46.6664C192.767 46.4236 192.581 46.2376 192.342 46.1084C192.108 45.9741 191.842 45.9069 191.544 45.9069C191.246 45.9069 190.978 45.9741 190.739 46.1084C190.505 46.2376 190.319 46.4236 190.18 46.6664C190.047 46.9093 189.981 47.1857 189.981 47.4957C189.981 47.8057 190.047 48.0821 190.18 48.3249C190.319 48.5677 190.505 48.7563 190.739 48.8906C190.978 49.0198 191.246 49.0844 191.544 49.0844Z" fill=""/>
<path d="M197.045 45.4265C197.438 45.4265 197.794 45.5143 198.113 45.69C198.432 45.8604 198.682 46.1033 198.863 46.4184C199.044 46.7336 199.134 47.0927 199.134 47.4957C199.134 47.9038 199.044 48.2655 198.863 48.5807C198.682 48.8958 198.432 49.1412 198.113 49.3169C197.8 49.4874 197.443 49.5726 197.045 49.5726C196.704 49.5726 196.396 49.5055 196.12 49.3711C195.848 49.2316 195.625 49.0301 195.45 48.7667V51.0374H194.884V45.4575H195.426V46.2634C195.596 45.9948 195.819 45.7881 196.096 45.6435C196.377 45.4988 196.694 45.4265 197.045 45.4265ZM197.005 49.0844C197.297 49.0844 197.563 49.0198 197.802 48.8906C198.042 48.7563 198.228 48.5677 198.361 48.3249C198.499 48.0821 198.568 47.8057 198.568 47.4957C198.568 47.1857 198.499 46.9118 198.361 46.6742C198.228 46.4314 198.042 46.2428 197.802 46.1084C197.563 45.9741 197.297 45.9069 197.005 45.9069C196.707 45.9069 196.439 45.9741 196.199 46.1084C195.965 46.2428 195.779 46.4314 195.641 46.6742C195.508 46.9118 195.442 47.1857 195.442 47.4957C195.442 47.8057 195.508 48.0821 195.641 48.3249C195.779 48.5677 195.965 48.7563 196.199 48.8906C196.439 49.0198 196.707 49.0844 197.005 49.0844Z" fill=""/>
<path d="M202.113 46.8989C202.639 46.9041 203.041 47.0178 203.317 47.2399C203.594 47.4621 203.732 47.7824 203.732 48.2009C203.732 48.6349 203.583 48.9681 203.285 49.2006C202.988 49.4331 202.562 49.5468 202.009 49.5416L200.351 49.5339V45.4575H200.917V46.8834L202.113 46.8989ZM204.434 45.4575H205V49.5339H204.434V45.4575ZM201.978 49.1231C202.366 49.1283 202.658 49.0534 202.855 48.8984C203.057 48.7382 203.158 48.5057 203.158 48.2009C203.158 47.9012 203.059 47.6791 202.863 47.5344C202.666 47.3898 202.371 47.3148 201.978 47.3097L200.917 47.2942V49.1076L201.978 49.1231Z" fill=""/>
</g></symbol><symbol id="logo" viewBox="0 0 205 62"><g fill="">
<path d="M22.7109 40.218L28.1507 34.4824L34.3385 40.218H44.9461L28.0827 23.6255L11.3553 40.218H22.7109Z" fill=""/>
<path d="M38.2827 13.5881L30.259 21.7819L35.5628 27.2445L38.2827 24.5132L53.1742 39.3987C49.7743 48.4802 41.0706 54.967 30.8029 54.967C17.6114 54.967 6.93576 44.2467 6.93576 31C7.00376 17.7533 17.6794 7.03304 30.8709 7.03304C42.5665 7.03304 52.3582 15.5683 54.3301 26.6982L61.5379 34.3458C61.6739 33.2533 61.7419 32.0925 61.7419 31C61.7419 22.7379 58.546 14.9537 52.6982 9.0815C46.8504 3.20925 39.0987 0 30.8709 0C22.5752 0 14.8915 3.20925 9.04369 9.0815C3.19589 14.9537 0 22.6696 0 31C0 39.3304 3.19589 47.0463 9.04369 52.9185C14.8915 58.7907 22.6432 62 30.8709 62C39.0987 62 46.8504 58.7907 52.6982 52.9185C56.3021 49.2996 58.886 44.9978 60.3139 40.2863C60.5859 39.467 60.7899 38.5793 60.9939 37.7599L54.7381 31.1366L38.2827 13.5881Z" fill=""/>
<path d="M87.2138 19.9204H91.7535L89.2773 32.4222H96.9351L96.2015 36.0369H84.0039L87.2138 19.9204Z" fill=""/>
<path d="M101.208 19.9204H105.747L102.538 36.0369H97.9979L101.208 19.9204Z" fill=""/>
<path d="M112.806 23.443L112.095 26.9887H119.18L118.469 30.5113H111.408L110.307 36.0369H105.767L108.977 19.9204H121.542L120.831 23.443H112.806Z" fill=""/>
<path d="M127.448 23.443L126.921 26.1598H134.051L133.386 29.5673H126.233L125.659 32.5143H134.074L133.34 36.0369H120.478L123.688 19.9204H136.252L135.541 23.443H127.448Z" fill=""/>
<path d="M141.775 23.5351H136.845L137.579 19.9204H151.955L151.221 23.5351H146.315L143.815 36.0369H139.276L141.775 23.5351Z" fill=""/>
<path d="M158.879 36.3593C157.259 36.3593 155.845 36.06 154.637 35.4613C153.445 34.8627 152.52 34.0262 151.863 32.9518C151.221 31.8773 150.9 30.6494 150.9 29.268C150.9 27.4261 151.32 25.7684 152.161 24.2949C153.017 22.8214 154.202 21.6702 155.715 20.8414C157.243 20.0125 158.978 19.5981 160.919 19.5981C162.54 19.5981 163.946 19.8974 165.138 20.496C166.346 21.0946 167.27 21.9311 167.912 23.0056C168.57 24.08 168.898 25.3079 168.898 26.6893C168.898 28.5312 168.47 30.1889 167.614 31.6624C166.774 33.136 165.589 34.2871 164.061 35.116C162.547 35.9448 160.82 36.3593 158.879 36.3593ZM159.269 32.5834C160.278 32.5834 161.164 32.3301 161.928 31.8236C162.693 31.3171 163.281 30.6417 163.694 29.7975C164.106 28.938 164.313 27.994 164.313 26.9656C164.313 25.8758 163.977 25.0086 163.304 24.364C162.647 23.704 161.722 23.374 160.53 23.374C159.521 23.374 158.634 23.6272 157.87 24.1337C157.106 24.6402 156.517 25.3233 156.105 26.1828C155.692 27.027 155.486 27.9633 155.486 28.9917C155.486 30.0815 155.814 30.9564 156.471 31.6164C157.144 32.2611 158.076 32.5834 159.269 32.5834Z" fill=""/>
<path d="M177.421 36.3593C176.03 36.3593 174.83 36.129 173.821 35.6686C172.812 35.1927 172.04 34.5174 171.505 33.6425C170.97 32.7676 170.703 31.7392 170.703 30.5573C170.703 30.0661 170.764 29.4982 170.886 28.8536L172.675 19.9204H177.214L175.449 28.7845C175.357 29.245 175.311 29.6671 175.311 30.0508C175.311 31.7392 176.198 32.5834 177.971 32.5834C178.934 32.5834 179.69 32.2918 180.241 31.7085C180.806 31.1099 181.227 30.1352 181.502 28.7845L183.267 19.9204H187.738L185.927 29.0608C184.949 33.9264 182.113 36.3593 177.421 36.3593Z" fill=""/>
<path d="M204.157 25.0547C204.157 26.5282 203.768 27.8022 202.988 28.8766C202.209 29.9357 201.116 30.7108 199.709 31.202L202.438 36.0369H197.692L195.307 31.7545H193.015L192.166 36.0369H187.627L190.836 19.9204H197.692C199.74 19.9204 201.33 20.3732 202.461 21.2788C203.592 22.1844 204.157 23.443 204.157 25.0547ZM199.572 25.4921C199.572 24.8321 199.35 24.3409 198.907 24.0186C198.464 23.6809 197.845 23.5121 197.05 23.5121H194.665L193.702 28.2319H196.408C197.417 28.2319 198.196 27.994 198.746 27.5182C199.297 27.0424 199.572 26.367 199.572 25.4921Z" fill=""/>
<path d="M87.0264 51.2331C86.4734 51.2331 85.971 51.1103 85.5191 50.8647C85.0725 50.6138 84.7216 50.2721 84.4664 49.8396C84.2166 49.4072 84.0916 48.9214 84.0916 48.3821C84.0916 47.8429 84.2166 47.3571 84.4664 46.9247C84.7216 46.4922 85.0725 46.1532 85.5191 45.9076C85.971 45.6567 86.4734 45.5312 87.0264 45.5312C87.5793 45.5312 88.0764 45.654 88.5177 45.8996C88.9643 46.1452 89.3152 46.4869 89.5704 46.9247C89.8255 47.3571 89.9531 47.8429 89.9531 48.3821C89.9531 48.9214 89.8255 49.4099 89.5704 49.8477C89.3152 50.2801 88.9643 50.6191 88.5177 50.8647C88.0764 51.1103 87.5793 51.2331 87.0264 51.2331ZM87.0264 50.7045C87.4676 50.7045 87.8664 50.6058 88.2226 50.4082C88.5788 50.2053 88.8579 49.9277 89.06 49.5754C89.262 49.2177 89.363 48.8199 89.363 48.3821C89.363 47.9444 89.262 47.5493 89.06 47.1969C88.8579 46.8392 88.5788 46.5616 88.2226 46.3641C87.8664 46.1612 87.4676 46.0598 87.0264 46.0598C86.5851 46.0598 86.1837 46.1612 85.8222 46.3641C85.466 46.5616 85.1842 46.8392 84.9768 47.1969C84.7748 47.5493 84.6738 47.9444 84.6738 48.3821C84.6738 48.8199 84.7748 49.2177 84.9768 49.5754C85.1842 49.9277 85.466 50.2053 85.8222 50.4082C86.1837 50.6058 86.5851 50.7045 87.0264 50.7045Z" fill=""/>
<path d="M93.387 46.9407C93.7804 46.9407 94.1367 47.0314 94.4556 47.213C94.7746 47.3891 95.0245 47.6401 95.2053 47.9657C95.386 48.2914 95.4764 48.6624 95.4764 49.0789C95.4764 49.5006 95.386 49.8743 95.2053 50.2C95.0245 50.5257 94.7746 50.7793 94.4556 50.9608C94.142 51.137 93.7858 51.2251 93.387 51.2251C93.0467 51.2251 92.7384 51.1557 92.4619 51.0168C92.1908 50.8727 91.9675 50.6645 91.792 50.3922V52.7386H91.2258V46.9727H91.7681V47.8056C91.9382 47.5279 92.1615 47.3144 92.438 47.1649C92.7198 47.0154 93.0361 46.9407 93.387 46.9407ZM93.3471 50.7205C93.6395 50.7205 93.9054 50.6538 94.1446 50.5203C94.3839 50.3815 94.5699 50.1867 94.7029 49.9357C94.8411 49.6848 94.9102 49.3992 94.9102 49.0789C94.9102 48.7585 94.8411 48.4756 94.7029 48.23C94.5699 47.9791 94.3839 47.7842 94.1446 47.6454C93.9054 47.5066 93.6395 47.4372 93.3471 47.4372C93.0494 47.4372 92.7809 47.5066 92.5417 47.6454C92.3077 47.7842 92.1217 47.9791 91.9834 48.23C91.8505 48.4756 91.7841 48.7585 91.7841 49.0789C91.7841 49.3992 91.8505 49.6848 91.9834 49.9357C92.1217 50.1867 92.3077 50.3815 92.5417 50.5203C92.7809 50.6538 93.0494 50.7205 93.3471 50.7205Z" fill=""/>
<path d="M99.6596 47.4772H97.2592V51.185H96.693V46.9727H99.6596V47.4772Z" fill=""/>
<path d="M101.921 46.9407C102.469 46.9407 102.889 47.0795 103.181 47.3571C103.474 47.6294 103.62 48.0351 103.62 48.5743V51.185H103.078V50.5283C102.95 50.7472 102.761 50.9181 102.512 51.0409C102.267 51.1637 101.975 51.2251 101.634 51.2251C101.166 51.2251 100.794 51.1129 100.518 50.8887C100.241 50.6645 100.103 50.3682 100.103 49.9998C100.103 49.6421 100.231 49.3538 100.486 49.1349C100.746 48.916 101.158 48.8066 101.722 48.8066H103.054V48.5503C103.054 48.1873 102.953 47.9123 102.751 47.7255C102.549 47.5333 102.254 47.4372 101.866 47.4372C101.6 47.4372 101.345 47.4826 101.1 47.5733C100.855 47.6587 100.645 47.7789 100.47 47.9337L100.215 47.5093C100.427 47.3277 100.683 47.1889 100.98 47.0928C101.278 46.9914 101.592 46.9407 101.921 46.9407ZM101.722 50.7766C102.041 50.7766 102.315 50.7045 102.543 50.5604C102.772 50.4109 102.942 50.1973 103.054 49.9197V49.231H101.738C101.02 49.231 100.661 49.4819 100.661 49.9838C100.661 50.2294 100.754 50.4242 100.94 50.5684C101.127 50.7072 101.387 50.7766 101.722 50.7766Z" fill=""/>
<path d="M105.127 46.9727H105.694V48.8386H108.333V46.9727H108.899V51.185H108.333V49.3271H105.694V51.185H105.127V46.9727Z" fill=""/>
<path d="M110.509 46.9727H111.075V50.3201L113.874 46.9727H114.377V51.185H113.81V47.8376L111.019 51.185H110.509V46.9727Z" fill=""/>
<path d="M117.955 48.9908C118.253 49.0602 118.482 49.1803 118.641 49.3511C118.806 49.522 118.888 49.7302 118.888 49.9758C118.888 50.2214 118.803 50.4403 118.633 50.6325C118.468 50.8246 118.242 50.9741 117.955 51.0809C117.668 51.1824 117.352 51.2331 117.006 51.2331C116.703 51.2331 116.405 51.1904 116.113 51.1049C115.821 51.0142 115.565 50.8834 115.347 50.7125L115.539 50.2881C115.73 50.4322 115.954 50.5444 116.209 50.6244C116.464 50.7045 116.722 50.7446 116.982 50.7446C117.37 50.7446 117.687 50.6725 117.931 50.5283C118.181 50.3789 118.306 50.1787 118.306 49.9277C118.306 49.7035 118.205 49.53 118.003 49.4072C117.801 49.2791 117.525 49.215 117.174 49.215H116.456V48.7986H117.142C117.455 48.7986 117.708 48.7398 117.899 48.6224C118.091 48.4996 118.186 48.3368 118.186 48.1339C118.186 47.9097 118.077 47.7335 117.86 47.6054C117.647 47.4772 117.368 47.4132 117.022 47.4132C116.57 47.4132 116.124 47.5279 115.682 47.7575L115.523 47.3171C116.023 47.0555 116.541 46.9247 117.078 46.9247C117.397 46.9247 117.684 46.9727 117.939 47.0688C118.2 47.1596 118.402 47.2904 118.545 47.4612C118.694 47.632 118.769 47.8296 118.769 48.0538C118.769 48.2674 118.694 48.4569 118.545 48.6224C118.402 48.7879 118.205 48.9107 117.955 48.9908Z" fill=""/>
<path d="M121.617 46.9407C122.165 46.9407 122.585 47.0795 122.877 47.3571C123.17 47.6294 123.316 48.0351 123.316 48.5743V51.185H122.773V50.5283C122.646 50.7472 122.457 50.9181 122.207 51.0409C121.963 51.1637 121.67 51.2251 121.33 51.2251C120.862 51.2251 120.49 51.1129 120.214 50.8887C119.937 50.6645 119.799 50.3682 119.799 49.9998C119.799 49.6421 119.926 49.3538 120.182 49.1349C120.442 48.916 120.854 48.8066 121.418 48.8066H122.75V48.5503C122.75 48.1873 122.649 47.9123 122.446 47.7255C122.244 47.5333 121.949 47.4372 121.561 47.4372C121.295 47.4372 121.04 47.4826 120.796 47.5733C120.551 47.6587 120.341 47.7789 120.166 47.9337L119.91 47.5093C120.123 47.3277 120.378 47.1889 120.676 47.0928C120.974 46.9914 121.287 46.9407 121.617 46.9407ZM121.418 50.7766C121.737 50.7766 122.011 50.7045 122.239 50.5604C122.468 50.4109 122.638 50.1973 122.75 49.9197V49.231H121.434C120.716 49.231 120.357 49.4819 120.357 49.9838C120.357 50.2294 120.45 50.4242 120.636 50.5684C120.822 50.7072 121.083 50.7766 121.418 50.7766Z" fill=""/>
<path d="M129.193 50.6885V52.2421H128.659V51.185H124.823V46.9727H125.389V50.6885H127.949V46.9727H128.515V50.6885H129.193Z" fill=""/>
<path d="M130.275 46.9727H130.841V50.3201L133.64 46.9727H134.142V51.185H133.576V47.8376L130.785 51.185H130.275V46.9727Z" fill=""/>
<path d="M138.987 46.9727V51.185H138.469V49.7916H136.993L136.02 51.185H135.406L136.451 49.7115C136.127 49.6208 135.877 49.4659 135.701 49.247C135.526 49.0281 135.438 48.7505 135.438 48.4142C135.438 47.9444 135.598 47.5867 135.917 47.3411C136.236 47.0955 136.672 46.9727 137.225 46.9727H138.987ZM136.012 48.4302C136.012 49.0548 136.408 49.3672 137.201 49.3672H138.469V47.4772H137.24C136.422 47.4772 136.012 47.7949 136.012 48.4302Z" fill=""/>
<path d="M146.453 46.9727V51.185H145.887V47.4772H143.255V51.185H142.689V46.9727H146.453Z" fill=""/>
<path d="M149.793 51.2251C149.389 51.2251 149.025 51.1343 148.7 50.9528C148.376 50.7659 148.121 50.5097 147.935 50.184C147.749 49.8583 147.656 49.4899 147.656 49.0789C147.656 48.6678 147.749 48.2994 147.935 47.9737C148.121 47.6481 148.376 47.3945 148.7 47.213C149.025 47.0314 149.389 46.9407 149.793 46.9407C150.197 46.9407 150.561 47.0314 150.885 47.213C151.21 47.3945 151.462 47.6481 151.643 47.9737C151.829 48.2994 151.922 48.6678 151.922 49.0789C151.922 49.4899 151.829 49.8583 151.643 50.184C151.462 50.5097 151.21 50.7659 150.885 50.9528C150.561 51.1343 150.197 51.2251 149.793 51.2251ZM149.793 50.7205C150.091 50.7205 150.356 50.6538 150.59 50.5203C150.83 50.3815 151.016 50.1867 151.149 49.9357C151.282 49.6848 151.348 49.3992 151.348 49.0789C151.348 48.7585 151.282 48.4729 151.149 48.222C151.016 47.9711 150.83 47.7789 150.59 47.6454C150.356 47.5066 150.091 47.4372 149.793 47.4372C149.495 47.4372 149.227 47.5066 148.987 47.6454C148.753 47.7789 148.567 47.9711 148.429 48.222C148.296 48.4729 148.23 48.7585 148.23 49.0789C148.23 49.3992 148.296 49.6848 148.429 49.9357C148.567 50.1867 148.753 50.3815 148.987 50.5203C149.227 50.6538 149.495 50.7205 149.793 50.7205Z" fill=""/>
<path d="M155.608 51.185L154.276 49.4232L152.936 51.185H152.298L153.957 49.0228L152.378 46.9727H153.016L154.276 48.6224L155.536 46.9727H156.158L154.579 49.0228L156.254 51.185H155.608Z" fill=""/>
<path d="M158.765 51.2251C158.361 51.2251 157.996 51.1343 157.672 50.9528C157.348 50.7659 157.093 50.5097 156.906 50.184C156.72 49.8583 156.627 49.4899 156.627 49.0789C156.627 48.6678 156.72 48.2994 156.906 47.9737C157.093 47.6481 157.348 47.3945 157.672 47.213C157.996 47.0314 158.361 46.9407 158.765 46.9407C159.169 46.9407 159.533 47.0314 159.857 47.213C160.181 47.3945 160.434 47.6481 160.615 47.9737C160.801 48.2994 160.894 48.6678 160.894 49.0789C160.894 49.4899 160.801 49.8583 160.615 50.184C160.434 50.5097 160.181 50.7659 159.857 50.9528C159.533 51.1343 159.169 51.2251 158.765 51.2251ZM158.765 50.7205C159.062 50.7205 159.328 50.6538 159.562 50.5203C159.801 50.3815 159.987 50.1867 160.12 49.9357C160.253 49.6848 160.32 49.3992 160.32 49.0789C160.32 48.7585 160.253 48.4729 160.12 48.222C159.987 47.9711 159.801 47.7789 159.562 47.6454C159.328 47.5066 159.062 47.4372 158.765 47.4372C158.467 47.4372 158.198 47.5066 157.959 47.6454C157.725 47.7789 157.539 47.9711 157.401 48.222C157.268 48.4729 157.202 48.7585 157.202 49.0789C157.202 49.3992 157.268 49.6848 157.401 49.9357C157.539 50.1867 157.725 50.3815 157.959 50.5203C158.198 50.6538 158.467 50.7205 158.765 50.7205Z" fill=""/>
<path d="M166.172 50.6885V52.2021H165.637V51.185H161.881V52.2021H161.347V50.6885H161.586C161.868 50.6725 162.059 50.4643 162.16 50.0639C162.261 49.6635 162.331 49.1029 162.368 48.3821L162.424 46.9727H165.518V50.6885H166.172ZM162.886 48.4142C162.86 49.0121 162.809 49.506 162.735 49.8957C162.66 50.2801 162.527 50.5444 162.336 50.6885H164.952V47.4772H162.934L162.886 48.4142Z" fill=""/>
<path d="M169.006 51.2251C168.602 51.2251 168.238 51.1343 167.913 50.9528C167.589 50.7659 167.334 50.5097 167.148 50.184C166.962 49.8583 166.868 49.4899 166.868 49.0789C166.868 48.6678 166.962 48.2994 167.148 47.9737C167.334 47.6481 167.589 47.3945 167.913 47.213C168.238 47.0314 168.602 46.9407 169.006 46.9407C169.41 46.9407 169.774 47.0314 170.098 47.213C170.423 47.3945 170.675 47.6481 170.856 47.9737C171.042 48.2994 171.135 48.6678 171.135 49.0789C171.135 49.4899 171.042 49.8583 170.856 50.184C170.675 50.5097 170.423 50.7659 170.098 50.9528C169.774 51.1343 169.41 51.2251 169.006 51.2251ZM169.006 50.7205C169.303 50.7205 169.569 50.6538 169.803 50.5203C170.042 50.3815 170.229 50.1867 170.361 49.9357C170.494 49.6848 170.561 49.3992 170.561 49.0789C170.561 48.7585 170.494 48.4729 170.361 48.222C170.229 47.9711 170.042 47.7789 169.803 47.6454C169.569 47.5066 169.303 47.4372 169.006 47.4372C168.708 47.4372 168.44 47.5066 168.2 47.6454C167.966 47.7789 167.78 47.9711 167.642 48.222C167.509 48.4729 167.443 48.7585 167.443 49.0789C167.443 49.3992 167.509 49.6848 167.642 49.9357C167.78 50.1867 167.966 50.3815 168.2 50.5203C168.44 50.6538 168.708 50.7205 169.006 50.7205Z" fill=""/>
<path d="M175.017 49.0068C175.586 49.1403 175.87 49.4846 175.87 50.0398C175.87 50.4082 175.734 50.6912 175.463 50.8887C175.192 51.0863 174.788 51.185 174.251 51.185H172.345V46.9727H174.195C174.674 46.9727 175.049 47.0661 175.32 47.253C175.591 47.4398 175.727 47.7068 175.727 48.0538C175.727 48.2834 175.663 48.4809 175.535 48.6464C175.413 48.8066 175.24 48.9267 175.017 49.0068ZM172.895 48.8466H174.155C174.48 48.8466 174.727 48.7852 174.897 48.6624C175.073 48.5396 175.16 48.3608 175.16 48.1259C175.16 47.891 175.073 47.7148 174.897 47.5973C174.727 47.4799 174.48 47.4212 174.155 47.4212H172.895V48.8466ZM174.227 50.7366C174.589 50.7366 174.86 50.6778 175.041 50.5604C175.221 50.4429 175.312 50.2587 175.312 50.0078C175.312 49.7569 175.229 49.5727 175.065 49.4552C174.9 49.3325 174.639 49.2711 174.283 49.2711H172.895V50.7366H174.227Z" fill=""/>
<path d="M181.956 49.0068C182.525 49.1403 182.809 49.4846 182.809 50.0398C182.809 50.4082 182.674 50.6912 182.402 50.8887C182.131 51.0863 181.727 51.185 181.19 51.185H179.284V46.9727H181.134C181.613 46.9727 181.988 47.0661 182.259 47.253C182.53 47.4398 182.666 47.7068 182.666 48.0538C182.666 48.2834 182.602 48.4809 182.474 48.6464C182.352 48.8066 182.179 48.9267 181.956 49.0068ZM179.835 48.8466H181.095C181.419 48.8466 181.666 48.7852 181.836 48.6624C182.012 48.5396 182.099 48.3608 182.099 48.1259C182.099 47.891 182.012 47.7148 181.836 47.5973C181.666 47.4799 181.419 47.4212 181.095 47.4212H179.835V48.8466ZM181.166 50.7366C181.528 50.7366 181.799 50.6778 181.98 50.5604C182.161 50.4429 182.251 50.2587 182.251 50.0078C182.251 49.7569 182.168 49.5727 182.004 49.4552C181.839 49.3325 181.578 49.2711 181.222 49.2711H179.835V50.7366H181.166Z" fill=""/>
<path d="M189.19 47.4772H186.79V51.185H186.223V46.9727H189.19V47.4772Z" fill=""/>
<path d="M191.544 51.2251C191.14 51.2251 190.776 51.1343 190.452 50.9528C190.127 50.7659 189.872 50.5097 189.686 50.184C189.5 49.8583 189.407 49.4899 189.407 49.0789C189.407 48.6678 189.5 48.2994 189.686 47.9737C189.872 47.6481 190.127 47.3945 190.452 47.213C190.776 47.0314 191.14 46.9407 191.544 46.9407C191.948 46.9407 192.312 47.0314 192.637 47.213C192.961 47.3945 193.214 47.6481 193.394 47.9737C193.58 48.2994 193.673 48.6678 193.673 49.0789C193.673 49.4899 193.58 49.8583 193.394 50.184C193.214 50.5097 192.961 50.7659 192.637 50.9528C192.312 51.1343 191.948 51.2251 191.544 51.2251ZM191.544 50.7205C191.842 50.7205 192.108 50.6538 192.342 50.5203C192.581 50.3815 192.767 50.1867 192.9 49.9357C193.033 49.6848 193.099 49.3992 193.099 49.0789C193.099 48.7585 193.033 48.4729 192.9 48.222C192.767 47.9711 192.581 47.7789 192.342 47.6454C192.108 47.5066 191.842 47.4372 191.544 47.4372C191.246 47.4372 190.978 47.5066 190.739 47.6454C190.505 47.7789 190.319 47.9711 190.18 48.222C190.047 48.4729 189.981 48.7585 189.981 49.0789C189.981 49.3992 190.047 49.6848 190.18 49.9357C190.319 50.1867 190.505 50.3815 190.739 50.5203C190.978 50.6538 191.246 50.7205 191.544 50.7205Z" fill=""/>
<path d="M197.045 46.9407C197.438 46.9407 197.794 47.0314 198.113 47.213C198.432 47.3891 198.682 47.6401 198.863 47.9657C199.044 48.2914 199.134 48.6624 199.134 49.0789C199.134 49.5006 199.044 49.8743 198.863 50.2C198.682 50.5257 198.432 50.7793 198.113 50.9608C197.8 51.137 197.443 51.2251 197.045 51.2251C196.704 51.2251 196.396 51.1557 196.12 51.0168C195.848 50.8727 195.625 50.6645 195.45 50.3922V52.7386H194.884V46.9727H195.426V47.8056C195.596 47.5279 195.819 47.3144 196.096 47.1649C196.377 47.0154 196.694 46.9407 197.045 46.9407ZM197.005 50.7205C197.297 50.7205 197.563 50.6538 197.802 50.5203C198.042 50.3815 198.228 50.1867 198.361 49.9357C198.499 49.6848 198.568 49.3992 198.568 49.0789C198.568 48.7585 198.499 48.4756 198.361 48.23C198.228 47.9791 198.042 47.7842 197.802 47.6454C197.563 47.5066 197.297 47.4372 197.005 47.4372C196.707 47.4372 196.439 47.5066 196.199 47.6454C195.965 47.7842 195.779 47.9791 195.641 48.23C195.508 48.4756 195.442 48.7585 195.442 49.0789C195.442 49.3992 195.508 49.6848 195.641 49.9357C195.779 50.1867 195.965 50.3815 196.199 50.5203C196.439 50.6538 196.707 50.7205 197.005 50.7205Z" fill=""/>
<path d="M202.113 48.4622C202.639 48.4676 203.041 48.585 203.317 48.8146C203.594 49.0442 203.732 49.3752 203.732 49.8076C203.732 50.2561 203.583 50.6004 203.285 50.8407C202.988 51.0809 202.562 51.1984 202.009 51.193L200.351 51.185V46.9727H200.917V48.4462L202.113 48.4622ZM204.434 46.9727H205V51.185H204.434V46.9727ZM201.978 50.7606C202.366 50.7659 202.658 50.6885 202.855 50.5283C203.057 50.3628 203.158 50.1226 203.158 49.8076C203.158 49.498 203.059 49.2684 202.863 49.1189C202.666 48.9694 202.371 48.892 201.978 48.8867L200.917 48.8706V50.7446L201.978 50.7606Z" fill=""/>
</g></symbol><symbol id="mail" viewBox="0 0 26 18"><g fill="none">
<path d="M24.818 2.56592V15.4346C24.818 16.4499 24.0621 17.273 23.1297 17.273H2.86995C1.93752 17.273 1.18164 16.4499 1.18164 15.4346V2.56592M24.818 2.56592C24.818 1.55061 24.0621 0.727539 23.1297 0.727539H2.86995C1.93752 0.727539 1.18164 1.55061 1.18164 2.56592M24.818 2.56592L15.1973 11.5452C13.9328 12.7254 12.0669 12.7254 10.8024 11.5452L1.18164 2.56592" stroke="#2D383F" stroke-linecap="round" stroke-linejoin="round"/>
</g></symbol><symbol id="map" viewBox="0 0 25 25"><g fill="">
<g clip-path="url(#clip0_248_2190)">
<path d="M24.1704 22.2803V6.70123C24.1823 6.44571 23.9848 6.22897 23.7293 6.2171C23.6748 6.21456 23.6204 6.22168 23.5684 6.23812V6.26127L21.4844 6.91426C21.7026 6.33016 21.8321 5.71665 21.8688 5.09423C21.8688 2.28077 19.588 0 16.7745 0C13.9611 0 11.6803 2.28077 11.6803 5.09423C11.7128 5.68754 11.833 6.27279 12.0369 6.8309L8.59135 5.59902C8.55135 5.5941 8.51094 5.5941 8.47094 5.59902H8.43389C8.37837 5.60001 8.32344 5.61101 8.2718 5.63144L1.12598 8.41011C0.961171 8.47281 0.846262 8.62361 0.82959 8.79913V16.246V24.3967C0.830342 24.6525 1.03828 24.8592 1.29409 24.8585C1.35065 24.8583 1.40669 24.8478 1.45942 24.8274L8.44315 22.1229L16.4087 24.9756C16.5048 25.0081 16.6089 25.0081 16.7051 24.9756L23.8463 22.7434C24.0469 22.6806 24.18 22.4904 24.1704 22.2803ZM16.7745 0.926224C19.0765 0.926224 20.9425 2.79228 20.9425 5.09423C20.9425 6.905 18.2241 11.9066 16.7745 14.3565C15.325 11.8881 12.6065 6.88184 12.6065 5.09423C12.6065 2.79228 14.4726 0.926224 16.7745 0.926224ZM23.2581 21.9608L17.0246 23.9105V20.3769C17.0246 20.1212 16.8173 19.9138 16.5615 19.9138C16.3057 19.9138 16.0984 20.1212 16.0984 20.3769V23.8781L8.90163 21.3032V18.3392C8.90163 18.0835 8.69427 17.8761 8.43852 17.8761C8.18277 17.8761 7.97541 18.0835 7.97541 18.3392V21.3032L1.75581 23.7252V16.5655L4.04359 15.6393C4.2884 15.5652 4.42675 15.3067 4.35266 15.0618C4.27856 14.817 4.02003 14.6787 3.77521 14.7528C3.74963 14.7605 3.72473 14.7705 3.70083 14.7825L1.75576 15.5652V9.11868L7.97535 6.71049V8.09983C7.97535 8.35558 8.18271 8.56294 8.43846 8.56294C8.69421 8.56294 8.90157 8.35558 8.90157 8.09983V6.69197L12.4536 7.96553C13.5928 10.5687 14.9032 13.0936 16.3762 15.5235C16.5088 15.7422 16.7936 15.8119 17.0123 15.6793C17.076 15.6407 17.1295 15.5872 17.1681 15.5235C18.6339 13.1079 19.9396 10.5985 21.0768 8.01184L23.2442 7.33106L23.258 14.9215L20.9101 15.4911C20.6543 15.5218 20.4718 15.754 20.5025 16.0098C20.5332 16.2655 20.7655 16.448 21.0212 16.4173C21.0581 16.4218 21.0954 16.4218 21.1324 16.4173L23.258 15.8986V21.9608H23.2581Z" fill="#2D383F"/>
<path d="M16.7556 2.40332C15.2696 2.40332 14.0649 3.60799 14.0649 5.094C14.0649 6.58001 15.2696 7.78468 16.7556 7.78468C18.2406 7.78213 19.4438 6.57897 19.4463 5.094C19.4463 3.60799 18.2416 2.40332 16.7556 2.40332ZM16.7556 6.85846C15.7895 6.84584 15.0121 6.06028 15.0097 5.094H14.9912C14.9912 4.1195 15.7811 3.32954 16.7556 3.32954C17.7301 3.32954 18.5201 4.1195 18.5201 5.094C18.5201 6.0685 17.7301 6.85846 16.7556 6.85846Z" fill="#2D383F"/>
<path d="M10.6981 13.9672V13.9811L8.45661 13.0132C8.34251 12.9656 8.21411 12.9656 8.10001 13.0132L6.20589 13.7774C5.96802 13.8733 5.85294 14.1439 5.94886 14.3817C6.04478 14.6196 6.31536 14.7347 6.55322 14.6387L8.26673 13.9487L10.3276 14.8194C10.3861 14.8443 10.4492 14.8569 10.5128 14.8564C10.7686 14.8585 10.9776 14.6529 10.9797 14.3971C10.9812 14.2101 10.8701 14.0405 10.6981 13.9672Z" fill="#2D383F"/>
<path d="M18.27 16.6161C18.201 16.393 17.9766 16.2562 17.7467 16.2969L17.7513 16.2599L16.6028 16.5377L14.6578 15.6949C14.4224 15.5926 14.1487 15.7004 14.0465 15.9357C13.9442 16.171 14.052 16.4447 14.2873 16.547L16.3713 17.4732C16.4298 17.4982 16.4929 17.5108 16.5565 17.5103H16.6677L17.9644 17.1954C18.2087 17.1198 18.3455 16.8604 18.27 16.6161Z" fill="#2D383F"/>
</g>

</g></symbol><symbol id="moon" viewBox="0 0 20 20"><g fill="">
<path d="M19.5272 11.382C19.3228 11.3307 19.1183 11.382 18.9394 11.5103C18.2748 12.0745 17.5081 12.5362 16.6646 12.844C15.8723 13.1518 15.0033 13.3057 14.0831 13.3057C12.0128 13.3057 10.1215 12.4593 8.76681 11.0999C7.41217 9.74052 6.56872 7.84251 6.56872 5.76497C6.56872 4.89291 6.72207 4.0465 6.97767 3.27704C7.25882 2.45628 7.66777 1.71247 8.20451 1.07125C8.43454 0.789119 8.38343 0.378739 8.10227 0.147901C7.92336 0.0196573 7.71888 -0.0316401 7.51441 0.0196573C5.34188 0.609578 3.4505 1.91766 2.09586 3.66177C0.792336 5.38024 0 7.50908 0 9.84311C0 12.6388 1.12461 15.178 2.96487 17.0247C4.80513 18.8715 7.3355 20 10.1215 20C12.4729 20 14.6454 19.1792 16.3835 17.8199C18.147 16.4348 19.425 14.4599 19.9618 12.2028C20.0895 11.8181 19.8851 11.459 19.5272 11.382ZM15.6167 16.7426C14.1342 17.9225 12.2429 18.6406 10.1726 18.6406C7.74444 18.6406 5.54635 17.6403 3.96168 16.0501C2.37701 14.4599 1.3802 12.2541 1.3802 9.81746C1.3802 7.79122 2.04474 5.94451 3.1949 4.45688C3.98724 3.43094 4.98405 2.58453 6.13421 1.99461C6.00642 2.27674 5.87862 2.55888 5.77638 2.86666C5.44411 3.79002 5.29076 4.76467 5.29076 5.79062C5.29076 8.22724 6.28757 10.4587 7.87224 12.0489C9.45691 13.6391 11.6806 14.6394 14.1087 14.6394C15.1822 14.6394 16.2045 14.4599 17.1502 14.1008C17.4825 13.9726 17.8148 13.8443 18.1215 13.6904C17.5081 14.8703 16.6646 15.9219 15.6167 16.7426Z" fill=""/>
</g></symbol><symbol id="mountain" viewBox="0 0 25 25"><g fill="">
<g clip-path="url(#clip0_248_2161)">
<path d="M23.4153 24.1879L19.3747 14.7901L15.5583 5.9074C15.4551 5.665 15.1749 5.55224 14.9325 5.65546C14.8192 5.70376 14.7289 5.79404 14.6806 5.9074L11.2744 13.8121L9.93871 16.9177L7.00963 10.1579C6.90634 9.91551 6.62614 9.80274 6.3838 9.90596C6.27044 9.95427 6.18016 10.0445 6.13186 10.1579L3.37928 16.517L0.0399368 24.1831C-0.0654315 24.4246 0.0448861 24.7058 0.286333 24.8112C0.347037 24.8377 0.412572 24.8513 0.478822 24.851H22.9765C23.2399 24.8508 23.4533 24.6371 23.4531 24.3736C23.4531 24.3098 23.4402 24.2467 23.4153 24.1879ZM15.1147 7.29561L18.2107 14.4943H17.1231L15.1576 12.3237C14.9804 12.1287 14.6787 12.1143 14.4837 12.2916C14.4531 12.3194 14.4263 12.351 14.4039 12.3857L13.6692 13.5211H12.4384L15.1147 7.29561ZM6.57074 11.5318L9.018 17.1896H7.68226C7.52007 17.1899 7.36914 17.2726 7.28154 17.4091L6.80449 18.1676L5.57371 16.4311C5.48474 16.3028 5.33864 16.2262 5.18253 16.226H4.54805L6.57074 11.5318ZM1.22779 23.8969L4.13302 17.1801H4.93446L6.42285 19.3029C6.51182 19.4312 6.65792 19.5078 6.81403 19.5081C6.97283 19.5046 7.11947 19.4223 7.20522 19.2886L7.93987 18.1532H9.42826L11.9137 23.8778L1.22779 23.8969ZM12.9584 23.8969L10.4587 18.1246L12.0282 14.4752H13.9364C14.0986 14.4749 14.2495 14.3923 14.3371 14.2558L14.8666 13.44L16.5554 15.3053C16.6455 15.4052 16.7738 15.4624 16.9084 15.4627H18.6162L22.2466 23.9112L12.9584 23.8969Z" fill="#2D383F"/>
<path d="M7.61096 2.08189C7.16093 0.922602 5.85626 0.347698 4.69703 0.797794C3.83387 1.13286 3.26385 1.96221 3.26028 2.8881C3.25557 2.97075 3.25557 3.05352 3.26028 3.13617C2.13241 3.65997 1.64278 4.99893 2.16658 6.12679C2.52932 6.90778 3.30572 7.41351 4.16667 7.42961L4.19052 7.44869H7.52987C9.01188 7.47112 10.2314 6.28786 10.2538 4.80584C10.2762 3.32383 9.09298 2.10431 7.61096 2.08189ZM7.55849 6.50891H4.21914C3.50512 6.58267 2.86653 6.0637 2.79277 5.34968C2.719 4.63565 3.23797 3.99706 3.952 3.9233C4.21026 3.87124 4.37747 3.61972 4.32541 3.3614C4.32141 3.34166 4.31622 3.32216 4.30978 3.30314C4.26321 3.16968 4.23906 3.02943 4.23823 2.8881C4.23417 2.17146 4.81176 1.58725 5.52841 1.58314C6.16234 1.5795 6.70606 2.03448 6.81429 2.65912C6.85812 2.90993 7.09122 3.08208 7.34382 3.0503C7.41531 3.04559 7.48699 3.04559 7.55849 3.0503C8.51354 3.0503 9.28779 3.82455 9.28779 4.7796C9.28779 5.73466 8.51354 6.50891 7.55849 6.50891Z" fill="#2D383F"/>
<path d="M23.6966 2.63997C23.7013 2.55733 23.7013 2.47456 23.6966 2.39191C23.6917 1.14836 22.6797 0.144172 21.4362 0.148943C20.517 0.152521 19.6936 0.714604 19.3539 1.56727C17.8794 1.59816 16.7046 2.81392 16.7269 4.29057C16.7493 5.77258 17.9688 6.95584 19.4508 6.93342H22.7902C24.0335 6.91016 25.0226 5.88343 24.9994 4.64006C24.9833 3.77911 24.4776 3.00271 23.6966 2.63997ZM24.0559 4.94758C23.9296 5.54008 23.4102 5.96632 22.8045 5.97455H19.4651C18.5101 5.97455 17.7358 5.2003 17.7358 4.24525C17.7358 3.29019 18.5101 2.51594 19.4651 2.51594C19.5366 2.51123 19.6083 2.51123 19.6798 2.51594C19.9212 2.54099 20.1429 2.38088 20.195 2.14384C20.3146 1.43727 20.9843 0.961417 21.6909 1.08098C22.3975 1.20054 22.8734 1.87026 22.7538 2.57688C22.7416 2.64862 22.7235 2.71922 22.6995 2.78792C22.6153 3.03754 22.7494 3.3082 22.9991 3.39246C23.0181 3.3989 23.0376 3.40415 23.0573 3.40808C23.7582 3.5574 24.2053 4.24668 24.0559 4.94758Z" fill="#2D383F"/>
</g>

</g></symbol><symbol id="odnoklassniki" viewBox="0 0 9 16"><g fill="">
<path d="M4.5 2.42035C5.41587 2.42035 6.1607 3.18736 6.1607 4.1305C6.1607 5.0708 5.41587 5.83781 4.5 5.83781C3.58413 5.83781 2.8393 5.0708 2.8393 4.1305C2.8393 3.18736 3.58413 2.42035 4.5 2.42035ZM4.5 8.25816C6.71243 8.25816 8.51106 6.40597 8.51106 4.1305C8.51106 1.85219 6.71243 0 4.5 0C2.28757 0 0.491701 1.85219 0.491701 4.1305C0.491701 6.40597 2.28757 8.25816 4.5 8.25816ZM6.12208 11.6273C6.93863 11.4342 7.72485 11.1018 8.45037 10.6331C8.99934 10.278 9.16486 9.53083 8.82003 8.96551C8.47244 8.39735 7.74967 8.22691 7.19795 8.58485C5.55656 9.6473 3.44344 9.6473 1.79929 8.58485C1.25033 8.22691 0.524805 8.39735 0.179975 8.96551C-0.164855 9.53083 0.000663014 10.278 0.549632 10.6331C1.27515 11.1018 2.06136 11.4342 2.87792 11.6273L0.63515 13.934C0.177216 14.4056 0.177216 15.1726 0.63515 15.6442C0.866875 15.88 1.16481 15.9993 1.4655 15.9993C1.76619 15.9993 2.06688 15.88 2.29861 15.6442L4.5 13.3772L6.70415 15.6442C7.16208 16.1186 7.90416 16.1186 8.36485 15.6442C8.82278 15.1726 8.82278 14.4056 8.36485 13.934L6.12208 11.6273Z" fill=""/>
</g></symbol><symbol id="path" viewBox="0 0 22 22"><g fill="none">
<path d="M18.1429 8.76743H12.7857C11.1091 8.76743 9.75 10.1366 9.75 11.8256C9.75 13.5145 11.1091 14.8837 12.7857 14.8837H15.1071C16.7837 14.8837 18.1429 16.2529 18.1429 17.9419C18.1429 19.6308 16.7837 21 15.1071 21H3.85714M6.71428 15.9302C6.71428 14.3406 5.4351 13.0519 3.85714 13.0519C2.27919 13.0519 1 14.3406 1 15.9302V16.0384C1 16.6695 1.1985 17.2845 1.56701 17.7949L3.8515 20.9593C3.85429 20.9632 3.86 20.9632 3.86279 20.9593L6.14727 17.7949C6.51578 17.2845 6.71428 16.6695 6.71428 16.0384V15.9302ZM4.40947 14.7454L4.42662 14.7535C4.77242 14.9183 5.02453 15.2332 5.11112 15.6086C5.19868 15.9881 5.10458 16.3904 4.86077 16.6929C4.61964 16.9921 4.25485 17.1691 3.87232 17.1691H3.84197C3.45944 17.1691 3.09464 16.9921 2.85352 16.6929C2.60971 16.3904 2.51561 15.9881 2.60316 15.6086C2.68975 15.2332 2.94186 14.9183 3.28767 14.7535L3.30482 14.7454C3.65446 14.5788 4.05982 14.5788 4.40947 14.7454ZM21 3.89849C21 2.30887 19.7208 1 18.1429 1C16.5649 1 15.2857 2.30887 15.2857 3.89849C15.2857 4.52339 15.4857 5.1384 15.8561 5.63972L18.1372 8.72766C18.14 8.73147 18.1457 8.73147 18.1485 8.72766L20.4297 5.63972C20.8 5.1384 21 4.52339 21 3.89849ZM18.6875 2.65136L18.7262 2.66941C19.0631 2.82627 19.3099 3.13018 19.3957 3.4939C19.4838 3.86694 19.3925 4.25998 19.1492 4.55491L19.137 4.56971C18.8999 4.85725 18.548 5.02359 18.1769 5.02359H18.1088C17.7377 5.02359 17.3858 4.85725 17.1487 4.56971L17.1365 4.55491C16.8932 4.25998 16.8019 3.86694 16.89 3.4939C16.9758 3.13018 17.2226 2.82627 17.5595 2.66941L17.5983 2.65136C17.9438 2.49048 18.342 2.49048 18.6875 2.65136Z" stroke="#0266C1" stroke-linecap="round"/>
</g></symbol><symbol id="phone" viewBox="0 0 26 26"><g fill="none">
<path d="M22.8368 23.6885C22.4584 24.4342 21.6789 24.8974 20.8502 24.8067C20.494 24.7677 20.1382 24.72 19.783 24.6636C15.1541 23.9275 10.8761 21.7392 7.56222 18.4122C4.24829 15.0852 2.06855 10.7904 1.3354 6.14328C1.27919 5.78698 1.2317 5.43001 1.19289 5.07268C1.10253 4.24071 1.56391 3.45809 2.30667 3.07814L5.55725 1.41536C6.81529 0.771838 8.33752 1.5225 8.77994 2.8686C9.04827 3.68504 9.36516 4.48843 9.73023 5.2744C9.91316 5.66825 10.1072 6.0556 10.312 6.43607C10.7968 7.33683 10.4698 8.49216 9.54135 8.91583C8.19298 9.53113 7.87184 11.3091 8.91916 12.3605L13.5902 17.0499C14.6375 18.1014 16.4085 17.779 17.0214 16.4253C17.4666 15.4418 18.6736 15.0858 19.632 15.577C19.8643 15.6961 20.0991 15.8112 20.3363 15.9222C21.2349 16.3429 22.1563 16.6998 23.094 16.9925C24.4592 17.4186 25.2342 18.965 24.5851 20.2438L22.8368 23.6885Z" stroke="#2D383F" stroke-linecap="round" stroke-linejoin="round"/>
</g></symbol><symbol id="pin-contacts" viewBox="0 0 20 26"><g fill="none">
<path d="M18.8635 9.62847C18.8635 4.96342 14.8951 1.18164 9.99987 1.18164C5.10462 1.18164 1.13623 4.96342 1.13623 9.62847V10.1372C1.13623 12.0038 1.74823 13.8237 2.88667 15.3426L9.98236 24.8094C9.99094 24.8209 10.0088 24.8209 10.0174 24.8094L17.1131 15.3426C18.2515 13.8237 18.8635 12.0038 18.8635 10.1372V9.62847Z" stroke="#2D383F" stroke-linecap="round" stroke-linejoin="round"/>
<path d="M8.2674 6.25049C9.36221 5.74805 10.6375 5.74805 11.7323 6.25049C12.8271 6.75293 13.6223 7.70313 13.8927 8.8321C14.1631 9.96107 13.8793 11.1459 13.1217 12.0513C12.364 12.9567 11.215 13.484 9.99987 13.484C8.78472 13.484 7.6357 12.9567 6.87807 12.0513C6.12044 11.1459 5.83665 9.96107 6.10705 8.8321C6.37744 7.70313 7.17259 6.75293 8.2674 6.25049Z" stroke="#2D383F" stroke-linecap="round" stroke-linejoin="round"/>
</g></symbol><symbol id="pin-tours" viewBox="0 0 9 12"><g fill="">
<path d="M4.49981 0C2.01874 0 0 1.98191 0 4.41796C0 5.05338 0.132472 5.66006 0.39354 6.2213C1.51862 8.63833 3.67571 11.1902 4.31017 11.9146C4.35771 11.9688 4.42701 12 4.49994 12C4.57287 12 4.64217 11.9688 4.6897 11.9146C5.32392 11.1903 7.48101 8.63857 8.60646 6.2213C8.86765 5.66006 9 5.05338 9 4.41796C8.99975 1.98191 6.98101 0 4.49981 0ZM4.49981 6.71267C3.21099 6.71267 2.16234 5.68315 2.16234 4.41784C2.16234 3.15241 3.21099 2.12289 4.49981 2.12289C5.78864 2.12289 6.83728 3.15241 6.83728 4.41784C6.83741 5.68315 5.78876 6.71267 4.49981 6.71267Z" fill=""/>
</g></symbol><symbol id="reddit" viewBox="0 0 14 15"><g fill="">
<path d="M8.36171 0C7.91277 0 7.49149 0.244007 7.22128 0.59589C6.95106 0.947774 6.80213 1.37671 6.69362 1.82877C6.52128 2.55565 6.46808 3.36216 6.45532 4.08904C5.19361 4.17894 4.05105 4.57962 3.10211 5.19863C2.717 4.85188 2.25317 4.65925 1.80849 4.66438C1.3021 4.66952 0.821252 4.90325 0.463803 5.38356C-0.219178 6.30051 -0.140455 7.80051 0.651038 8.69178C0.602102 8.96661 0.565931 9.24914 0.565931 9.53425C0.565931 12.5548 3.44679 15 7 15C10.5532 15 13.4341 12.5522 13.4341 9.53425C13.4341 9.24914 13.3979 8.96661 13.349 8.69178C14.1405 7.80051 14.2192 6.30051 13.5362 5.38356C13.1788 4.90325 12.6979 4.66952 12.1915 4.66438C11.7468 4.65925 11.283 4.85188 10.8979 5.19863C9.9532 4.58219 8.81703 4.18151 7.5617 4.08904C7.57873 3.41866 7.62341 2.7226 7.74894 2.19863C7.82766 1.86986 7.92128 1.63099 8.02128 1.5C8.12128 1.36901 8.19362 1.31507 8.36171 1.31507C8.72554 1.31507 8.77235 1.44092 8.9915 1.74658C9.10214 1.90068 9.2298 2.09332 9.43405 2.28082C9.63831 2.46832 9.94044 2.63014 10.2681 2.63014V1.31507C10.1766 1.31507 10.1596 1.3125 10.0979 1.25342C10.0362 1.19435 9.95108 1.05822 9.82554 0.883562C9.57448 0.531678 9.08724 0 8.36171 0ZM11.9021 0.123288C11.0553 0.123288 10.3702 0.950343 10.3702 1.9726C10.3702 2.99486 11.0553 3.82192 11.9021 3.82192C12.749 3.82192 13.4341 2.99486 13.4341 1.9726C13.4341 0.950343 12.749 0.123288 11.9021 0.123288ZM11.9021 0.780822C12.4468 0.780822 12.8894 1.31507 12.8894 1.9726C12.8894 2.63014 12.4468 3.16438 11.9021 3.16438C11.3575 3.16438 10.9149 2.63014 10.9149 1.9726C10.9149 1.31507 11.3575 0.780822 11.9021 0.780822ZM7 5.11644C10.0149 5.11644 12.566 7.14298 12.566 9.53425C12.566 11.9281 10.0149 13.9521 7 13.9521C3.98509 13.9521 1.43402 11.9281 1.43402 9.53425C1.43402 7.14298 3.98509 5.11644 7 5.11644ZM1.82551 5.71233C1.97658 5.7149 2.13402 5.75599 2.28509 5.83562C1.73828 6.33647 1.30423 6.91182 1.00849 7.56164C0.80423 7.05308 0.85955 6.41866 1.11061 6.08219C1.29359 5.83562 1.54679 5.70976 1.82551 5.71233ZM12.1745 5.71233C12.4532 5.70976 12.7064 5.83562 12.8894 6.08219C13.1405 6.41866 13.1958 7.05308 12.9915 7.56164C12.6958 6.91182 12.2617 6.33647 11.7149 5.83562C11.866 5.75599 12.0234 5.7149 12.1745 5.71233ZM4.82127 7.35616C4.27658 7.35616 3.83403 7.89041 3.83403 8.54795C3.83403 9.20548 4.27658 9.73973 4.82127 9.73973C5.36595 9.73973 5.80851 9.20548 5.80851 8.54795C5.80851 7.89041 5.36595 7.35616 4.82127 7.35616ZM9.17873 7.35616C8.63405 7.35616 8.19149 7.89041 8.19149 8.54795C8.19149 9.20548 8.63405 9.73973 9.17873 9.73973C9.72342 9.73973 10.166 9.20548 10.166 8.54795C10.166 7.89041 9.72342 7.35616 9.17873 7.35616ZM4.29361 11.4041C4.64042 12.2697 5.71276 13.1096 7 13.1096C8.28724 13.1096 9.37661 12.2697 9.72342 11.4041C9.09363 11.8947 8.10001 12.226 7 12.226C5.9 12.226 4.9234 11.8947 4.29361 11.4041Z" fill=""/>
</g></symbol><symbol id="share" viewBox="0 0 17 15"><g fill="">
<path d="M8.50033 1.125V9.625M8.50033 1.125L5.66699 3.95833M8.50033 1.125L11.3337 3.95833M1.41699 11.0417L1.85687 12.8019C1.93348 13.1084 2.11033 13.3804 2.35931 13.5749C2.60829 13.7693 2.91512 13.875 3.23103 13.875H13.7696C14.0855 13.875 14.3924 13.7693 14.6413 13.5749C14.8903 13.3804 15.0672 13.1084 15.1438 12.8019L15.5837 11.0417" stroke="#1C3374" stroke-width="1.16667" stroke-linecap="round" stroke-linejoin="round"/>
</g></symbol><symbol id="shield" viewBox="0 0 20 22"><g fill="none">
<path d="M7.75001 10.912L10 13.1562L13.9375 9.22882M9.99997 1C7.67869 2.18698 5.09257 2.81813 2.44902 2.81813C2.09212 2.81813 1.73627 2.80662 1.38197 2.7838C0.924632 4.87029 0.87403 7.04136 1.25148 9.17646C1.92717 12.9986 3.93142 16.4612 6.91222 18.9559C7.86795 19.7558 8.90448 20.4398 10 21C11.0955 20.4398 12.132 19.7558 13.0878 18.9559C16.0686 16.4612 18.0728 12.9986 18.7485 9.17647C19.126 7.04136 19.0754 4.87029 18.618 2.7838C18.2637 2.80662 17.9078 2.81813 17.5509 2.81813C14.9074 2.81813 12.3212 2.18698 9.99997 1Z" stroke="#0266C1"/>
</g></symbol><symbol id="star-active" viewBox="0 0 15 14"><g fill="none">
<g clip-path="url(#clip0_248_2534)">
<path d="M7.5 11.0412L12.135 13.6501L10.9087 8.72981L15 5.4209L9.60676 4.98898L7.5 0.350098L5.39326 4.98898L0 5.4209L4.09126 8.72981L2.865 13.6501L7.5 11.0412Z" fill="white"/>
</g>

</g></symbol><symbol id="star" viewBox="0 0 15 14"><g fill="none">
<g clip-path="url(#clip0_248_2546)">
<path d="M7.74525 10.6055L7.5 10.4674L7.25475 10.6055L3.63071 12.6453L4.57642 8.85073L4.6535 8.54147L4.40569 8.34105L1.28779 5.81937L5.43318 5.48739L5.72674 5.46388L5.84852 5.19573L7.5 1.55927L9.15151 5.19574L9.27329 5.46388L9.56685 5.48739L13.7122 5.81937L10.5943 8.34105L10.3465 8.54147L10.4236 8.85073L11.3693 12.6453L7.74525 10.6055Z" stroke="white"/>
</g>

</g></symbol><symbol id="sun" viewBox="0 0 20 20"><g fill="">
<path d="M13.545 6.45505C12.6455 5.55558 11.3757 4.97357 10 4.97357C8.62433 4.97357 7.35449 5.52912 6.45502 6.45505C5.55555 7.35451 4.97354 8.62435 4.97354 10C4.97354 11.3757 5.55555 12.6455 6.45502 13.545C7.35449 14.4444 8.62433 15.0265 10 15.0265C11.3757 15.0265 12.6455 14.4709 13.545 13.545C14.4444 12.6455 15.0265 11.3757 15.0265 10C15.0265 8.62435 14.4709 7.35451 13.545 6.45505ZM12.5926 12.5926C11.9312 13.254 11.0053 13.6508 10 13.6508C8.9947 13.6508 8.06878 13.254 7.4074 12.5926C6.74603 11.9312 6.3492 11.0053 6.3492 10C6.3492 8.99472 6.74603 8.0688 7.4074 7.40742C8.06878 6.74605 8.9947 6.34923 10 6.34923C11.0053 6.34923 11.9312 6.74605 12.5926 7.40742C13.254 8.0688 13.6508 8.99472 13.6508 10C13.6508 11.0053 13.254 11.9312 12.5926 12.5926Z" fill=""/>
<path d="M19.3122 9.3122H17.2751C16.9048 9.3122 16.5873 9.62966 16.5873 10C16.5873 10.3704 16.9048 10.6879 17.2751 10.6879H19.3122C19.6825 10.6879 20 10.3704 20 10C20 9.62966 19.6825 9.3122 19.3122 9.3122Z" fill=""/>
<path d="M9.99999 16.5873C9.62962 16.5873 9.31216 16.9048 9.31216 17.2751V19.3122C9.31216 19.6825 9.62962 20 9.99999 20C10.3704 20 10.6878 19.6825 10.6878 19.3122V17.2751C10.6878 16.9048 10.3704 16.5873 9.99999 16.5873Z" fill=""/>
<path d="M17.0635 16.1111L15.6085 14.656C15.3704 14.3915 14.9207 14.3915 14.6561 14.656C14.3916 14.9206 14.3916 15.3439 14.6561 15.6084L16.1111 17.0634C16.3757 17.328 16.799 17.328 17.0635 17.0634C17.3281 16.7989 17.3281 16.3756 17.0635 16.1111Z" fill=""/>
<path d="M9.99999 0C9.62962 0 9.31216 0.317459 9.31216 0.687829V2.72486C9.31216 3.09523 9.62962 3.41269 9.99999 3.41269C10.3704 3.41269 10.6878 3.09523 10.6878 2.72486V0.687829C10.6878 0.317459 10.3704 0 9.99999 0Z" fill=""/>
<path d="M17.0899 2.93653C16.8254 2.67198 16.4021 2.67198 16.1376 2.93653L14.6825 4.39155C14.418 4.6561 14.418 5.07938 14.6825 5.34393C14.9206 5.60848 15.3704 5.60848 15.6349 5.34393L17.0899 3.88891C17.3545 3.62436 17.3545 3.20108 17.0899 2.93653Z" fill=""/>
<path d="M2.72487 9.3122H0.687831C0.31746 9.3122 0 9.62966 0 10C0 10.3704 0.291005 10.6879 0.687831 10.6879H2.72487C3.09524 10.6879 3.4127 10.3704 3.4127 10C3.4127 9.62966 3.09524 9.3122 2.72487 9.3122Z" fill=""/>
<path d="M5.31746 14.656C5.07937 14.3915 4.62963 14.3915 4.36508 14.656L2.91005 16.1111C2.6455 16.3756 2.6455 16.7989 2.91005 17.0634C3.1746 17.328 3.59788 17.328 3.86243 17.0634L5.31746 15.6084C5.58201 15.3439 5.58201 14.9206 5.31746 14.656Z" fill=""/>
<path d="M5.31746 4.39155L3.86243 2.93653C3.59788 2.67198 3.1746 2.67198 2.91005 2.93653C2.6455 3.20108 2.6455 3.62436 2.91005 3.88891L4.36508 5.34393C4.62963 5.60848 5.05291 5.60848 5.31746 5.34393C5.58201 5.07938 5.58201 4.6561 5.31746 4.39155Z" fill=""/>
</g></symbol><symbol id="tree" viewBox="0 0 23 23"><g fill="">
<g clip-path="url(#clip0_248_2173)">
<path d="M22.6246 16.6365L18.1102 11.472H20.2913C20.546 11.4714 20.7519 11.2644 20.7514 11.0098C20.7511 10.9084 20.7175 10.8099 20.6556 10.7296L17.0312 5.96623H18.8757C19.1304 5.96589 19.3365 5.75919 19.3363 5.50454C19.3361 5.39271 19.2953 5.28475 19.2215 5.20077L14.7856 0.156126C14.6172 -0.0348923 14.3257 -0.0531642 14.1347 0.115317C14.1202 0.128056 14.1066 0.141716 14.0939 0.156126L9.65332 5.19616C9.4827 5.38522 9.49763 5.67682 9.68663 5.84744C9.77229 5.92473 9.88376 5.9671 9.99916 5.96623H11.8667L10.7508 7.42337L7.76273 4.02492C7.5943 3.8339 7.30288 3.81563 7.11186 3.98411C7.09739 3.99685 7.08379 4.01051 7.07105 4.02492L3.27604 8.33639C3.10796 8.52769 3.12681 8.81906 3.31811 8.98714C3.40209 9.06092 3.51005 9.10167 3.62188 9.10184H5.08362L2.04946 13.0721C1.89919 13.2777 1.94398 13.5662 2.14958 13.7165C2.22636 13.7726 2.31864 13.8036 2.41374 13.8053H4.11988L0.370984 18.1167C0.205442 18.3102 0.228094 18.6013 0.421649 18.7669C0.503959 18.8373 0.608518 18.8765 0.716823 18.8776H5.8168V22.1054C5.8168 22.5994 6.21734 23 6.71138 23H8.11779C8.61182 23.0025 9.01444 22.6041 9.01697 22.11C9.01697 22.1085 9.01697 22.107 9.01697 22.1054V18.8776H12.8443V22.1054C12.8443 22.5994 13.2448 23 13.7388 23H15.1453C15.6393 23 16.0398 22.5994 16.0398 22.1054V17.402H22.2788C22.5334 17.4017 22.7396 17.195 22.7393 16.9403C22.7391 16.8285 22.6984 16.7205 22.6246 16.6365ZM8.09473 22.0777L6.73904 22.1054L6.71138 18.8776H8.09473V22.0777ZM12.8443 17.9553H1.73129L5.50324 13.6531C5.67397 13.4642 5.65916 13.1726 5.47021 13.0018C5.38214 12.9223 5.2668 12.8797 5.14818 12.883H3.34981L6.38398 8.91279C6.53932 8.71099 6.50168 8.42146 6.29988 8.26612C6.21953 8.20428 6.12109 8.17061 6.0197 8.17038H4.63634L7.40306 5.02094L10.1698 8.16116L8.22385 10.7342C8.06851 10.936 8.10615 11.2255 8.30795 11.3809C8.3883 11.4427 8.48674 11.4764 8.58813 11.4766H10.7738L6.25948 16.6411C6.0914 16.8325 6.11025 17.1238 6.30156 17.2919C6.38554 17.3657 6.4935 17.4064 6.60532 17.4066H12.8443V17.9553ZM15.1176 22.0685L13.7665 22.1054L13.7388 17.402H15.1222L15.1176 22.0685ZM15.1453 16.4798H7.61978L12.1341 11.3152C12.3022 11.1239 12.2834 10.8325 12.0921 10.6645C12.0081 10.5907 11.9001 10.5499 11.7883 10.5498H9.52421L13.167 5.78178C13.3199 5.57808 13.2786 5.28902 13.0749 5.13622C12.9963 5.07731 12.901 5.04497 12.8028 5.04399H11.0367L14.4582 1.16137L17.8612 5.04399H16.0813C15.8267 5.04463 15.6207 5.25155 15.6213 5.50621C15.6215 5.6076 15.6552 5.70605 15.717 5.7864L19.3368 10.5498H17.0912C16.8365 10.5501 16.6303 10.7568 16.6306 11.0115C16.6307 11.1233 16.6716 11.2312 16.7453 11.3152L21.2597 16.4798H15.1453Z" fill="#2D383F"/>
</g>

</g></symbol><symbol id="vk" viewBox="0 0 16 9"><g fill="">
<path d="M15.8574 8.02743C15.8144 7.95645 15.5484 7.38659 14.2683 6.21531C12.9282 4.98883 13.1082 5.18799 14.7223 3.06728C15.7054 1.77572 16.0984 0.986988 15.9754 0.649804C15.8584 0.328395 15.1353 0.413184 15.1353 0.413184L12.7312 0.426986C12.7312 0.426986 12.5531 0.403324 12.4201 0.481212C12.2911 0.558114 12.2081 0.735579 12.2081 0.735579C12.2081 0.735579 11.8271 1.7353 11.3191 2.58516C10.248 4.37855 9.81894 4.4732 9.64393 4.36179C9.2369 4.10249 9.33891 3.31869 9.33891 2.76263C9.33891 1.02445 9.60593 0.299803 8.81787 0.112478C8.55585 0.0503654 8.36384 0.00895679 7.69479 0.00205536C6.83672 -0.00681791 6.10967 0.00501311 5.69864 0.203183C5.42462 0.335296 5.21361 0.630086 5.34262 0.646846C5.50163 0.667551 5.86165 0.74248 6.05267 0.998819C6.29969 1.3291 6.29069 2.07248 6.29069 2.07248C6.29069 2.07248 6.4327 4.11827 5.95966 4.37263C5.63464 4.54714 5.1896 4.19122 4.23453 2.56347C3.7455 1.73037 3.37547 0.808537 3.37547 0.808537C3.37547 0.808537 3.30447 0.636987 3.17746 0.545297C3.02345 0.433888 2.80743 0.398395 2.80743 0.398395L0.521262 0.412198C0.521262 0.412198 0.178236 0.422057 0.0522271 0.568959C-0.0597811 0.700086 0.0432264 0.970227 0.0432264 0.970227C0.0432264 0.970227 1.83336 5.09827 3.85951 7.17954C5.71864 9.0873 7.8288 8.96208 7.8288 8.96208H8.78487C8.78487 8.96208 9.07389 8.93054 9.2209 8.77377C9.35691 8.62983 9.35191 8.35969 9.35191 8.35969C9.35191 8.35969 9.33291 7.09475 9.92895 6.90842C10.516 6.72504 11.2701 8.13095 12.0691 8.67222C12.6732 9.08138 13.1322 8.99166 13.1322 8.99166L15.2693 8.96208C15.2693 8.96208 16.3874 8.89406 15.8574 8.02743Z" fill=""/>
</g></symbol></svg>