<svg viewBox="0 0 22 19" fill="" xmlns="http://www.w3.org/2000/svg">
<path d="M21.2129 14.4121C21.3596 14.5602 21.4419 14.7603 21.4419 14.9688C21.4419 15.1772 21.3596 15.3773 21.2129 15.5254L18.8691 17.8691C18.7198 18.0135 18.5202 18.0942 18.3125 18.0942C18.1048 18.0942 17.9052 18.0135 17.7559 17.8691C17.6092 17.721 17.5269 17.521 17.5269 17.3125C17.5269 17.104 17.6092 16.904 17.7559 16.7559L18.7715 15.75H17.6191C16.4996 15.748 15.3967 15.4795 14.4016 14.9667C13.4064 14.4538 12.5477 13.7114 11.8965 12.8008L7.82422 7.10742C7.31888 6.3997 6.65233 5.82244 5.87968 5.42338C5.10703 5.02432 4.25048 4.81492 3.38086 4.8125H1.125C0.9178 4.8125 0.719086 4.73019 0.572573 4.58368C0.42606 4.43717 0.34375 4.23845 0.34375 4.03125C0.34375 3.82405 0.42606 3.62534 0.572573 3.47882C0.719086 3.33231 0.9178 3.25 1.125 3.25H3.38086C4.50037 3.25197 5.60331 3.52049 6.59844 4.03333C7.59357 4.54618 8.45228 5.28862 9.10351 6.19922L13.1758 11.8926C13.6811 12.6003 14.3477 13.1776 15.1203 13.5766C15.893 13.9757 16.7495 14.1851 17.6191 14.1875H18.7715L17.7559 13.1816C17.6313 13.0298 17.5676 12.8371 17.5772 12.641C17.5869 12.4449 17.6691 12.2593 17.808 12.1205C17.9468 11.9816 18.1324 11.8994 18.3285 11.8897C18.5246 11.8801 18.7173 11.9438 18.8691 12.0684L21.2129 14.4121ZM11.9648 7.44922C12.0487 7.50927 12.1436 7.55212 12.2441 7.5753C12.3446 7.59848 12.4487 7.60153 12.5504 7.58428C12.6521 7.56704 12.7493 7.52982 12.8365 7.4748C12.9238 7.41977 12.9992 7.34801 13.0586 7.26367L13.1758 7.10742C13.6811 6.3997 14.3477 5.82244 15.1203 5.42338C15.893 5.02432 16.7495 4.81492 17.6191 4.8125H18.7715L17.7559 5.81836C17.6092 5.96648 17.5269 6.16653 17.5269 6.375C17.5269 6.58348 17.6092 6.78352 17.7559 6.93164C17.9052 7.07603 18.1048 7.15675 18.3125 7.15675C18.5202 7.15675 18.7198 7.07603 18.8691 6.93164L21.2129 4.58789C21.3596 4.43977 21.4419 4.23973 21.4419 4.03125C21.4419 3.82278 21.3596 3.62273 21.2129 3.47461L18.8691 1.13086C18.7173 1.00628 18.5246 0.942614 18.3285 0.952247C18.1324 0.96188 17.9468 1.04412 17.808 1.18298C17.6691 1.32183 17.5869 1.50737 17.5772 1.70351C17.5676 1.89964 17.6313 2.09235 17.7559 2.24414L18.7715 3.25H17.6191C16.4996 3.25197 15.3967 3.52049 14.4016 4.03333C13.4064 4.54618 12.5477 5.28862 11.8965 6.19922L11.7891 6.35547C11.7285 6.43873 11.685 6.53313 11.6611 6.63326C11.6372 6.73338 11.6332 6.83725 11.6496 6.93889C11.6659 7.04053 11.7022 7.13794 11.7563 7.22552C11.8104 7.3131 11.8813 7.38912 11.9648 7.44922ZM9.03516 11.5508C8.9513 11.4907 8.85639 11.4479 8.7559 11.4247C8.6554 11.4015 8.55131 11.3985 8.44963 11.4157C8.34795 11.433 8.25069 11.4702 8.16346 11.5252C8.07623 11.5802 8.00076 11.652 7.94141 11.7363L7.82422 11.8926C7.31888 12.6003 6.65233 13.1776 5.87968 13.5766C5.10703 13.9757 4.25048 14.1851 3.38086 14.1875H1.125C0.9178 14.1875 0.719086 14.2698 0.572573 14.4163C0.42606 14.5628 0.34375 14.7616 0.34375 14.9688C0.34375 15.176 0.42606 15.3747 0.572573 15.5212C0.719086 15.6677 0.9178 15.75 1.125 15.75H3.38086C4.50037 15.748 5.60331 15.4795 6.59844 14.9667C7.59357 14.4538 8.45228 13.7114 9.10351 12.8008L9.21094 12.6445C9.27148 12.5613 9.31497 12.4669 9.3389 12.3667C9.36284 12.2666 9.36676 12.1628 9.35042 12.0611C9.33409 11.9595 9.29782 11.8621 9.24372 11.7745C9.18962 11.6869 9.11874 11.6109 9.03516 11.5508Z" fill=""/>
</svg>
