<svg viewBox="0 0 19 18" fill="" xmlns="http://www.w3.org/2000/svg">
<path d="M17.5625 17.25C17.4415 17.25 17.3227 17.218 17.2181 17.1572L4.15556 9.59469C4.05138 9.53425 3.9649 9.44751 3.90479 9.34314C3.84467 9.23877 3.81303 9.12044 3.81303 9C3.81303 8.87956 3.84467 8.76123 3.90479 8.65686C3.9649 8.55249 4.05138 8.46575 4.15556 8.40531L17.2181 0.842813C17.3225 0.782331 17.4411 0.750426 17.5618 0.750308C17.6826 0.75019 17.8012 0.781862 17.9058 0.84214C18.0104 0.902417 18.0973 0.989175 18.1577 1.09369C18.2181 1.1982 18.2499 1.31678 18.25 1.4375V16.5625C18.25 16.7448 18.1776 16.9197 18.0486 17.0486C17.9197 17.1776 17.7448 17.25 17.5625 17.25ZM0.375 0.75H1.75V17.25H0.375V0.75Z" fill=""/>
</svg>
