<svg viewBox="0 0 16 20" fill="" xmlns="http://www.w3.org/2000/svg">
<path d="M15.5 7.14732C15.5 3.19996 12.1421 0 8 0C3.85786 0 0.5 3.19996 0.5 7.14732V7.57782C0.5 9.15722 1.01784 10.6971 1.98114 11.9823L7.98519 19.9927C7.99245 20.0024 8.00756 20.0024 8.01482 19.9927L14.0189 11.9823C14.9822 10.6971 15.5 9.15722 15.5 7.57782V7.14732Z" fill=""/>
<path d="M6.66733 4.76428C7.50949 4.38052 8.49051 4.38052 9.33267 4.76428C10.1748 5.14804 10.7865 5.87379 10.9945 6.73609C11.2025 7.59839 10.9842 8.50338 10.4014 9.19489C9.81859 9.8864 8.93473 10.2892 8 10.2892C7.06527 10.2892 6.18141 9.8864 5.59862 9.19489C5.01582 8.50338 4.79753 7.59839 5.00552 6.73609C5.21352 5.87379 5.82517 5.14804 6.66733 4.76428Z" fill=""/>
</svg>
